<svg width="85" height="73" viewBox="0 0 85 73" fill="none" xmlns="http://www.w3.org/2000/svg">
<path fill-rule="evenodd" clip-rule="evenodd" d="M64.3312 48.4956C60.0064 48.4956 56.4863 45.0932 56.4863 40.9048C56.4863 36.7212 60.0064 33.3187 64.3312 33.3187C68.6513 33.3187 72.1714 36.7212 72.1714 40.9048C72.1714 45.0932 68.656 48.4956 64.3312 48.4956ZM5.81663 54.9382V58.4724H79.1881V54.9382H5.81663ZM5.17661 52.0487L7.05902 29.7657H1.44475C0.644724 29.7657 0 29.1163 0 28.3209V18.9136C0 18.1136 0.644724 17.4689 1.44475 17.4689H12.9462L15.4593 2.16493C15.5722 1.46844 16.1793 0.955486 16.8852 0.955486H68.1148C68.8254 0.955486 69.4278 1.46844 69.5407 2.16493L72.0585 17.4689H83.5553C84.3553 17.4689 85 18.1136 85 18.9136V28.3209C85 29.1163 84.3553 29.7657 83.5553 29.7657H77.941L79.8281 52.0487H80.6281C81.4281 52.0487 82.0729 52.6981 82.0729 53.4934V59.9171C82.0729 60.7124 81.4281 61.3572 80.6281 61.3572H75.5221V70.5998C75.5221 71.3998 74.8774 72.0445 74.082 72.0445H59.4746C58.6793 72.0445 58.0345 71.3998 58.0345 70.5998V61.3572H26.9655V70.5998C26.9655 71.3998 26.3207 72.0445 25.5254 72.0445H10.9227C10.1226 72.0445 9.47791 71.3998 9.47791 70.5998V61.3572H4.37189C3.57657 61.3572 2.92714 60.7124 2.92714 59.9171V53.4934C2.92714 52.6981 3.57657 52.0487 4.37189 52.0487H5.17661ZM76.9292 52.0487L75.0421 29.7657H9.95792L8.07081 52.0487H76.9292ZM50.7591 45.5638H34.2409C33.4409 45.5638 32.7962 44.9143 32.7962 44.119V37.6953C32.7962 36.9 33.4409 36.2506 34.2409 36.2506H50.7591C51.5591 36.2506 52.2038 36.9 52.2038 37.6953V44.119C52.2038 44.9143 51.5591 45.5638 50.7591 45.5638ZM35.6857 42.6743H49.319V39.1401H35.6857V42.6743ZM11.398 26.8762L12.4709 20.3584H2.88949V26.8762H11.398ZM72.5291 20.3584L73.602 26.8762H82.1152V20.3584H72.5291ZM14.3251 26.8762H70.6749L66.8913 3.84498H43.8977V6.37681H46.8201C47.6154 6.37681 48.2649 7.02154 48.2649 7.82156C48.2649 8.61687 47.6154 9.2616 46.8201 9.2616H38.0905C37.2904 9.2616 36.6457 8.61687 36.6457 7.82156C36.6457 7.02154 37.2904 6.37681 38.0905 6.37681H41.0129V3.84498H18.1087L14.3251 26.8762ZM12.3627 69.1597H24.0807V61.3572H12.3627V69.1597ZM60.9193 69.1597H72.6373V61.3572H60.9193V69.1597ZM20.6735 48.4956C16.3487 48.4956 12.8286 45.0932 12.8286 40.9048C12.8286 36.7212 16.3487 33.3187 20.6735 33.3187C24.9936 33.3187 28.5137 36.7212 28.5137 40.9048C28.5137 45.0932 24.9983 48.4956 20.6735 48.4956ZM20.6735 36.2035C17.9393 36.2035 15.7181 38.3165 15.7181 40.9048C15.7181 43.4978 17.9393 45.6108 20.6735 45.6108C23.403 45.6108 25.6289 43.4978 25.6289 40.9048C25.6289 38.3165 23.403 36.2035 20.6735 36.2035ZM64.3312 36.2035C61.597 36.2035 59.3758 38.3165 59.3758 40.9048C59.3758 43.4978 61.597 45.6108 64.3312 45.6108C67.0607 45.6108 69.2866 43.4978 69.2866 40.9048C69.2866 38.3165 67.0607 36.2035 64.3312 36.2035Z" fill="#7C7C7C"/>
</svg>
