<svg width="74" height="73" viewBox="0 0 74 73" fill="none" xmlns="http://www.w3.org/2000/svg">
<path d="M55.7852 61.6054H52.8664C52.4426 61.6054 52.0998 61.944 52.0998 62.3616C52.0998 62.7793 52.4426 63.1179 52.8664 63.1179H54.4377V63.8028C54.4377 64.2204 54.7805 64.5591 55.2043 64.5591C55.6281 64.5591 55.9709 64.2204 55.9709 63.8028V63.0994C57.2746 63.0037 58.3095 61.9381 58.3095 60.6279C58.3095 59.255 57.1768 58.1381 55.7852 58.1381H54.624C54.0775 58.1381 53.6328 57.6998 53.6328 57.1607C53.6328 56.6216 54.0775 56.1833 54.624 56.1833H57.5428C57.9666 56.1833 58.3094 55.8447 58.3094 55.4271C58.3094 55.0095 57.9666 54.6708 57.5428 54.6708H55.9707V53.9862C55.9707 53.5686 55.6279 53.2299 55.2041 53.2299C54.7804 53.2299 54.4375 53.5686 54.4375 53.9862V54.6894C53.1342 54.7853 52.0996 55.8507 52.0996 57.1605C52.0996 58.5334 53.2323 59.6504 54.624 59.6504H55.7852C56.3316 59.6504 56.7764 60.0887 56.7764 60.6278C56.7764 61.1668 56.3316 61.6054 55.7852 61.6054Z" fill="#7C7C7C"/>
<path d="M55.2066 72.7967C62.9757 72.7967 69.2971 66.5593 69.2971 58.8925C69.2971 51.2279 62.9757 44.9924 55.2066 44.9924C47.4351 44.9924 41.1123 51.2279 41.1123 58.8925C41.1123 66.5593 47.4351 72.7967 55.2066 72.7967ZM55.2066 46.5048C62.1305 46.5048 67.7639 52.0621 67.7639 58.8925C67.7639 65.7251 62.1305 71.2842 55.2066 71.2842C48.2803 71.2842 42.6455 65.7251 42.6455 58.8925C42.6455 52.0621 48.2803 46.5048 55.2066 46.5048Z" fill="#7C7C7C"/>
<path d="M55.2057 68.8431C60.7657 68.8431 65.2897 64.3796 65.2897 58.8933C65.2897 53.4085 60.7657 48.9461 55.2057 48.9461C49.6442 48.9461 45.1196 53.4085 45.1196 58.8933C45.1195 64.3796 49.6442 68.8431 55.2057 68.8431ZM55.2057 50.4584C59.9205 50.4584 63.7565 54.2421 63.7565 58.8932C63.7565 63.5458 59.9206 67.3305 55.2057 67.3305C50.4894 67.3305 46.6528 63.5456 46.6528 58.8932C46.6527 54.2421 50.4894 50.4584 55.2057 50.4584Z" fill="#7C7C7C"/>
<path d="M67.605 15.2027C67.6043 15.2027 67.6036 15.2027 67.602 15.2027C66.9319 15.2038 66.3024 15.4614 65.8284 15.929C65.0416 16.7057 64.8998 17.8704 65.3804 18.8001L64.2114 19.9538C63.9119 20.2492 63.9119 20.7281 64.2114 21.0231C64.3612 21.1708 64.5573 21.2447 64.7534 21.2447C64.9495 21.2447 65.1457 21.1708 65.2954 21.0231L66.4642 19.8695C66.8215 20.0496 67.2097 20.1508 67.602 20.1508C68.2443 20.1508 68.8866 19.9093 69.3755 19.4271C70.354 18.4611 70.3547 16.8911 69.377 15.927C68.9046 15.46 68.2751 15.2027 67.605 15.2027ZM68.2915 18.3579C67.9097 18.733 67.2914 18.7323 66.9126 18.3579C66.533 17.9831 66.533 17.3731 66.9126 16.9983C67.0974 16.8162 67.343 16.7154 67.6043 16.7151H67.605C67.8655 16.7151 68.1096 16.8148 68.293 16.9962C68.6732 17.3709 68.6725 17.9821 68.2915 18.3579Z" fill="#7C7C7C"/>
<path d="M54.9605 17.4677H31.1543C30.7305 17.4677 30.3877 17.8063 30.3877 18.2239C30.3877 18.6415 30.7305 18.9802 31.1543 18.9802H54.9603C55.3841 18.9802 55.7269 18.6415 55.7269 18.2239C55.7271 17.8063 55.3841 17.4677 54.9605 17.4677Z" fill="#7C7C7C"/>
<path d="M67.2436 11.7594H46.7826C42.1133 4.51772 34.1812 0.201172 25.4633 0.201172C11.5352 0.201172 0.204102 11.3792 0.204102 25.119C0.204102 34.2749 5.24535 42.6348 13.3799 47.0067L17.2352 57.0596C15.4861 57.2053 14.1038 58.6397 14.1038 60.4016C14.1038 62.0871 15.3677 63.4748 17.0073 63.7214C16.6268 64.2649 16.4013 64.9217 16.4013 65.6307C16.4013 67.4895 17.9338 69.0015 19.818 69.0015H20.5876V69.6456C20.5876 71.3843 22.022 72.799 23.7842 72.799H27.1418C28.9041 72.799 30.3384 71.3843 30.3384 69.6456V69.0015H31.1081C32.9923 69.0015 34.5255 67.4895 34.5255 65.6307C34.5255 64.9217 34.2998 64.2649 33.9191 63.7214C35.5589 63.4749 36.823 62.0872 36.823 60.4016C36.823 58.6395 35.4407 57.2052 33.6916 57.0596L37.5469 47.0067C45.6814 42.6344 50.7227 34.2746 50.7227 25.119C50.7227 24.9758 50.7137 24.8311 50.7114 24.6865H67.2439C70.8568 24.6865 73.7965 21.7868 73.7965 18.2228C73.7965 14.6587 70.8565 11.7594 67.2436 11.7594ZM28.8051 69.6454C28.8051 70.5501 28.0587 71.2863 27.1417 71.2863H23.7841C22.867 71.2863 22.1207 70.5501 22.1207 69.6454V69.0014H28.8051V69.6454ZM31.1078 67.4891H19.8179C18.7796 67.4891 17.9343 66.6553 17.9343 65.6306C17.9343 64.6059 18.7796 63.7725 19.8179 63.7725H31.1078C32.1468 63.7725 32.992 64.6059 32.992 65.6306C32.992 66.6553 32.1468 67.4891 31.1078 67.4891ZM35.2896 60.4016C35.2896 61.4264 34.4444 62.2602 33.4061 62.2602C28.479 62.2602 22.4535 62.2602 17.5204 62.2602C16.4821 62.2602 15.6369 61.4264 15.6369 60.4016C15.6369 59.3769 16.4821 58.5436 17.5204 58.5436C38.5649 58.5441 16.3192 58.5437 33.4061 58.5436C34.4444 58.5436 35.2896 59.3769 35.2896 60.4016ZM27.3946 57.0311H23.531V33.3164C23.531 32.2654 24.3979 31.4107 25.4633 31.4107C26.5545 31.4107 27.3946 32.2854 27.3946 33.3164V57.0311ZM49.1892 25.119C49.1892 33.809 44.3546 41.736 36.5719 45.8066C36.4072 45.8926 36.28 46.0348 36.2141 46.2069L32.0631 57.0311H28.9277V33.3164C28.9277 31.446 27.399 29.8982 25.4631 29.8982C23.5527 29.8982 21.9977 31.4318 21.9977 33.3164V57.0311H18.8631L14.7121 46.2069C14.6462 46.0348 14.5191 45.8926 14.3543 45.8066C6.57172 41.7363 1.737 33.8097 1.737 25.119C1.737 12.2132 12.3801 1.71364 25.463 1.71364C33.3226 1.71364 40.5049 5.44562 44.9485 11.7596H29.6847C26.0719 11.7596 23.1328 14.6589 23.1328 18.2229C23.1328 21.7869 26.0719 24.6867 29.6847 24.6867H49.1782C49.1805 24.8311 49.1892 24.9757 49.1892 25.119ZM67.2436 23.1741H29.6847C26.9171 23.1741 24.666 20.953 24.666 18.2228C24.666 15.4928 26.9171 13.2719 29.6847 13.2719H67.2436C70.0113 13.2719 72.2631 15.493 72.2631 18.2228C72.2632 20.953 70.0113 23.1741 67.2436 23.1741Z" fill="#7C7C7C"/>
</svg>
