<svg width="1407" height="210" viewBox="0 0 1407 210" fill="none" xmlns="http://www.w3.org/2000/svg">
<circle cx="22.5823" cy="166.417" r="1.7473" fill="#3E3727"/>
<circle cx="43.553" cy="162.922" r="1.7473" fill="#3E3727"/>
<path d="M62.2456 150.87L58.9257 151.569L54.7322 148.599L55.0817 124.136L50.8881 124.661L34.813 134.62L21.7082 166.072L10.7002 170.265" stroke="#3E3727" stroke-width="0.997136"/>
<path d="M63.9924 93.5575L48.4414 114.875L56.1295 142.132" stroke="#3E3727" stroke-width="0.997136"/>
<path d="M56.1312 79.2295C60.9654 84.0637 68.9913 97.2966 62.4215 111.555C61.1984 115.282 57.2844 123.122 51.4135 124.659C45.5426 126.197 36.6197 128.911 32.8921 130.076L43.2012 163.1L35.513 170.089" stroke="#3E3727" stroke-width="0.997136"/>
<circle cx="49.6632" cy="71.5414" r="9.95962" fill="#3E3727"/>
<rect x="78.8418" y="35.3705" width="120.913" height="117.768" transform="rotate(11.162 78.8418 35.3705)" fill="#FF662A"/>
<g clip-path="url(#clip0_1920_13910)">
<path d="M136.977 76.6078H116.475C113.077 76.6078 109.818 77.9578 107.415 80.3608C105.012 82.7638 103.662 86.023 103.662 89.4213V125.299C103.662 126.982 103.993 128.648 104.637 130.203C105.281 131.757 106.225 133.17 107.415 134.36C109.818 136.763 113.077 138.113 116.475 138.113H122.062C121.549 136.699 121.469 135.165 121.831 133.705L124.215 124.069C124.547 122.71 125.248 121.469 126.239 120.481L140.718 105.976C141.91 104.787 143.325 103.844 144.882 103.202C146.438 102.56 148.106 102.231 149.79 102.235V89.4213C149.79 86.023 148.44 82.7638 146.037 80.3608C143.634 77.9578 140.375 76.6078 136.977 76.6078ZM126.726 109.923H116.475C115.795 109.923 115.144 109.653 114.663 109.172C114.182 108.692 113.912 108.04 113.912 107.36C113.912 106.681 114.182 106.029 114.663 105.548C115.144 105.068 115.795 104.798 116.475 104.798H126.726C127.406 104.798 128.058 105.068 128.538 105.548C129.019 106.029 129.289 106.681 129.289 107.36C129.289 108.04 129.019 108.692 128.538 109.172C128.058 109.653 127.406 109.923 126.726 109.923ZM136.977 99.6722H116.475C115.795 99.6722 115.144 99.4022 114.663 98.9216C114.182 98.441 113.912 97.7891 113.912 97.1095C113.912 96.4298 114.182 95.778 114.663 95.2974C115.144 94.8168 115.795 94.5468 116.475 94.5468H136.977C137.657 94.5468 138.308 94.8168 138.789 95.2974C139.27 95.778 139.54 96.4298 139.54 97.1095C139.54 97.7891 139.27 98.441 138.789 98.9216C138.308 99.4022 137.657 99.6722 136.977 99.6722ZM136.977 89.4213H116.475C115.795 89.4213 115.144 89.1513 114.663 88.6707C114.182 88.1901 113.912 87.5383 113.912 86.8586C113.912 86.179 114.182 85.5271 114.663 85.0465C115.144 84.5659 115.795 84.2959 116.475 84.2959H136.977C137.657 84.2959 138.308 84.5659 138.789 85.0465C139.27 85.5271 139.54 86.179 139.54 86.8586C139.54 87.5383 139.27 88.1901 138.789 88.6707C138.308 89.1513 137.657 89.4213 136.977 89.4213Z" fill="white"/>
<path d="M157.386 115.05C157.412 117.076 156.634 119.029 155.223 120.483L153.429 122.302C153.429 122.302 142.538 111.436 142.564 111.436L144.357 109.617C145.42 108.529 146.784 107.785 148.274 107.481C149.764 107.178 151.311 107.328 152.715 107.914C154.118 108.499 155.314 109.492 156.147 110.764C156.98 112.036 157.411 113.529 157.386 115.05Z" fill="white"/>
<path d="M149.792 125.94L140.72 134.987C140.4 135.319 139.99 135.551 139.541 135.653L129.905 138.036C129.476 138.146 129.026 138.143 128.599 138.026C128.172 137.909 127.783 137.683 127.47 137.37C127.157 137.057 126.931 136.668 126.814 136.241C126.698 135.814 126.694 135.364 126.804 134.935L129.187 125.3C129.29 124.85 129.522 124.44 129.854 124.121L138.926 115.074C138.926 115.074 149.792 125.915 149.792 125.94Z" fill="white"/>
</g>
<circle cx="252.902" cy="170.465" r="1.7473" fill="#3E3727"/>
<circle cx="290.994" cy="164.523" r="1.7473" fill="#3E3727"/>
<rect x="343.762" y="22.293" width="120.913" height="117.768" rx="11.9656" transform="rotate(33.7596 343.762 22.293)" fill="#FFA22B"/>
<path d="M279.636 68.7692C271.307 75.0012 253.181 92.1481 247.311 110.879L275.617 170.986L290.818 164.172" stroke="#3E3727" stroke-width="0.997136"/>
<path d="M268.106 79.4301L262.165 107.736L280.162 124.336C282.841 125.501 289.039 127.76 292.393 127.481" stroke="#3E3727" stroke-width="0.997136"/>
<circle cx="284.004" cy="60.036" r="9.78489" fill="#3E3727"/>
<path d="M256.222 130.103L238.924 165.398L248.534 172.038L252.203 170.291" stroke="#3E3727" stroke-width="0.997136"/>
<path d="M277.538 71.0464L262.337 107.914L282.081 120.146" stroke="#3E3727" stroke-width="0.997136"/>
<path d="M380.874 75.6069H343.94C342.395 75.6114 340.914 76.2273 339.821 77.32C338.729 78.4126 338.113 79.8933 338.108 81.4386V128.092C338.113 129.637 338.729 131.117 339.821 132.21C340.914 133.303 342.395 133.919 343.94 133.923H380.874C382.419 133.919 383.9 133.303 384.992 132.21C386.085 131.117 386.701 129.637 386.705 128.092V81.4386C386.701 79.8933 386.085 78.4126 384.992 77.32C383.9 76.2273 382.419 75.6114 380.874 75.6069ZM360.871 117.808L353.096 125.584C352.723 125.937 352.229 126.134 351.716 126.134C351.202 126.134 350.708 125.937 350.335 125.584L346.448 121.696C346.084 121.33 345.881 120.834 345.882 120.318C345.883 119.801 346.088 119.307 346.453 118.941C346.818 118.576 347.313 118.371 347.829 118.37C348.346 118.369 348.841 118.572 349.208 118.936L351.716 121.463L358.111 115.048C358.477 114.685 358.973 114.481 359.489 114.482C360.006 114.483 360.5 114.689 360.866 115.054C361.231 115.419 361.436 115.914 361.437 116.43C361.438 116.946 361.235 117.442 360.871 117.808ZM360.871 102.257L353.096 110.033C352.723 110.386 352.229 110.582 351.716 110.582C351.202 110.582 350.708 110.386 350.335 110.033L346.448 106.145C346.084 105.779 345.881 105.283 345.882 104.767C345.883 104.25 346.088 103.756 346.453 103.391C346.818 103.025 347.313 102.82 347.829 102.819C348.346 102.818 348.841 103.021 349.208 103.385L351.716 105.912L358.111 99.4971C358.477 99.1336 358.973 98.93 359.489 98.9311C360.006 98.9321 360.5 99.1377 360.866 99.5028C361.231 99.8678 361.436 100.363 361.437 100.879C361.438 101.395 361.235 101.891 360.871 102.257ZM360.871 86.7065L353.096 94.4819C352.724 94.8376 352.23 95.0361 351.716 95.0361C351.201 95.0361 350.707 94.8376 350.335 94.4819L346.448 90.5942C346.265 90.4132 346.12 90.198 346.021 89.9609C345.922 89.7237 345.871 89.4694 345.87 89.2124C345.87 88.9554 345.92 88.7008 346.018 88.4633C346.116 88.2258 346.26 88.01 346.442 87.8283C346.624 87.6465 346.84 87.5025 347.077 87.4044C347.315 87.3063 347.569 87.256 347.826 87.2566C348.083 87.2571 348.337 87.3084 348.575 87.4074C348.812 87.5065 349.027 87.6514 349.208 87.8339L351.716 90.3609L358.111 83.9462C358.292 83.7637 358.507 83.6188 358.744 83.5197C358.981 83.4206 359.236 83.3694 359.493 83.3688C359.75 83.3683 360.004 83.4185 360.242 83.5166C360.479 83.6147 360.695 83.7588 360.877 83.9405C361.059 84.1222 361.203 84.338 361.301 84.5756C361.399 84.8131 361.449 85.0677 361.448 85.3247C361.448 85.5816 361.397 85.836 361.298 86.0731C361.199 86.3102 361.054 86.5255 360.871 86.7065ZM376.986 122.26H367.266C366.751 122.26 366.257 122.055 365.892 121.691C365.527 121.326 365.323 120.832 365.323 120.316C365.323 119.8 365.527 119.306 365.892 118.941C366.257 118.577 366.751 118.372 367.266 118.372H376.986C377.501 118.372 377.996 118.577 378.36 118.941C378.725 119.306 378.93 119.8 378.93 120.316C378.93 120.832 378.725 121.326 378.36 121.691C377.996 122.055 377.501 122.26 376.986 122.26ZM376.986 106.709H367.266C366.751 106.709 366.257 106.504 365.892 106.14C365.527 105.775 365.323 105.281 365.323 104.765C365.323 104.249 365.527 103.755 365.892 103.391C366.257 103.026 366.751 102.821 367.266 102.821H376.986C377.501 102.821 377.996 103.026 378.36 103.391C378.725 103.755 378.93 104.249 378.93 104.765C378.93 105.281 378.725 105.775 378.36 106.14C377.996 106.504 377.501 106.709 376.986 106.709ZM376.986 91.1579H367.266C366.751 91.1579 366.257 90.9531 365.892 90.5886C365.527 90.224 365.323 89.7296 365.323 89.214C365.323 88.6985 365.527 88.2041 365.892 87.8395C366.257 87.475 366.751 87.2702 367.266 87.2702H376.986C377.501 87.2702 377.996 87.475 378.36 87.8395C378.725 88.2041 378.93 88.6985 378.93 89.214C378.93 89.7296 378.725 90.224 378.36 90.5886C377.996 90.9531 377.501 91.1579 376.986 91.1579Z" fill="white"/>
<circle cx="500.416" cy="171.374" r="1.7473" fill="#3E3727"/>
<circle cx="551.787" cy="172.423" r="1.7473" fill="#3E3727"/>
<rect x="558.423" y="87.8558" width="120.913" height="117.768" rx="17.9484" transform="rotate(-32.6322 558.423 87.8558)" fill="#82AC26"/>
<path d="M544.624 73.0107L520.511 107.083L537.46 169.462L551.263 172.607" stroke="#3E3727" stroke-width="0.997136"/>
<circle cx="549.516" cy="64.6189" r="9.61016" fill="#3E3727"/>
<path d="M538.513 82.2681L542.881 108.128L558.432 88.0342L563.499 85.0637" stroke="#3E3727" stroke-width="0.997136"/>
<path d="M535.365 86.6337L550.567 107.252L558.779 88.2062" stroke="#3E3727" stroke-width="0.997136"/>
<path d="M523.483 119.308L485.742 165.786L500.419 170.853" stroke="#3E3727" stroke-width="0.997136"/>
<path d="M641.071 76.1398C635.401 76.1398 629.859 77.821 625.145 80.971C620.43 84.1209 616.756 88.598 614.586 93.8362C612.417 99.0743 611.849 104.838 612.955 110.399C614.061 115.96 616.791 121.068 620.801 125.077C624.81 129.086 629.918 131.816 635.478 132.922C641.039 134.028 646.803 133.461 652.041 131.291C657.279 129.121 661.757 125.447 664.906 120.733C668.056 116.019 669.738 110.476 669.738 104.806C669.735 97.2044 666.714 89.9145 661.338 84.5391C655.963 79.1636 648.673 76.1425 641.071 76.1398ZM641.358 120.802C641.216 121.113 640.998 121.383 640.724 121.587C640.45 121.79 640.129 121.922 639.791 121.968C639.677 121.99 639.562 122.003 639.447 122.006C638.874 122.006 638.324 121.78 637.918 121.376L624.502 107.96C624.255 107.722 624.071 107.426 623.968 107.099C623.864 106.771 623.844 106.424 623.909 106.087C623.958 105.747 624.09 105.424 624.293 105.148C624.497 104.871 624.765 104.649 625.075 104.501L627.579 103.258L642.619 118.299L641.358 120.802ZM656.322 107.998C656.276 108.361 656.14 108.707 655.927 109.004C655.713 109.301 655.428 109.54 655.099 109.699L644.396 114.763L643.383 116.77L629.107 102.494L631.095 101.5L636.179 90.7789C636.337 90.4492 636.576 90.1646 636.873 89.9509C637.17 89.7373 637.516 89.6014 637.879 89.5558L655.213 87.6064L646.594 96.2256C645.712 96.0104 644.783 96.0898 643.95 96.4515C643.117 96.8133 642.425 97.4375 641.98 98.2291C641.535 99.0207 641.361 99.9362 641.485 100.836C641.608 101.736 642.023 102.57 642.665 103.212C643.307 103.855 644.142 104.269 645.042 104.393C645.941 104.516 646.857 104.342 647.648 103.897C648.44 103.452 649.064 102.76 649.426 101.927C649.788 101.094 649.867 100.166 649.652 99.2833L658.271 90.6642L656.322 107.998Z" fill="#F9F9F9"/>
<circle cx="777.795" cy="164.718" r="1.7473" fill="#3E3727"/>
<circle cx="810.641" cy="162.272" r="1.7473" fill="#3E3727"/>
<rect x="808.894" y="51.1405" width="120.913" height="117.768" rx="23.9313" transform="rotate(-4.72517 808.894 51.1405)" fill="#4F4085"/>
<path d="M789.674 67.3956L781.462 86.7907C778.258 92.7315 773.634 107.094 780.763 117.019C779.715 127.736 775.137 152.419 765.212 165.419C768.182 165.71 774.787 166.013 777.443 164.895" stroke="#3E3727" stroke-width="0.997136"/>
<circle cx="790.898" cy="57.6105" r="9.61016" fill="#3E3727"/>
<path d="M780.761 117.19L799.807 166.29L810.64 162.446M784.955 78.4004L794.215 99.7175L809.242 90.8062C807.495 89.0589 805.678 83.9568 812.387 77.5267" stroke="#3E3727" stroke-width="0.997136"/>
<path d="M781.288 86.9663L796.14 103.041L809.07 90.8104" stroke="#3E3727" stroke-width="0.997136"/>
<path d="M899.838 125.136H883.503C883.249 125.137 883.005 125.238 882.825 125.418C882.645 125.598 882.543 125.842 882.543 126.097C882.629 126.755 882.319 127.436 881.582 127.442H866.208C865.954 127.441 865.71 127.34 865.53 127.16C865.35 126.98 865.248 126.736 865.247 126.481C865.327 125.821 865.035 125.146 864.287 125.136H847.952C847.697 125.137 847.453 125.238 847.273 125.418C847.093 125.598 846.992 125.842 846.991 126.097V127.192C846.991 127.697 847.09 128.197 847.283 128.663C847.477 129.129 847.76 129.553 848.117 129.91C848.474 130.267 848.897 130.55 849.364 130.743C849.83 130.936 850.33 131.036 850.835 131.035H896.955C897.46 131.036 897.96 130.936 898.426 130.743C898.893 130.55 899.316 130.267 899.673 129.91C900.03 129.553 900.313 129.129 900.507 128.663C900.7 128.197 900.799 127.697 900.799 127.192C900.787 126.382 901.006 125.194 899.838 125.136Z" fill="white"/>
<path d="M867.113 125.519H880.68C880.814 124.868 881.168 124.284 881.682 123.863C882.197 123.443 882.841 123.214 883.505 123.213H898.302V107.83C898.236 108.003 896.335 109.772 896.179 109.973C895.604 110.559 894.864 110.957 894.058 111.115C893.252 111.273 892.417 111.183 891.663 110.857C890.688 111.377 889.665 111.802 888.607 112.125C888.301 112.888 887.773 113.541 887.091 114C886.409 114.46 885.605 114.703 884.783 114.7H882.227C881.403 114.703 880.596 114.459 879.913 113.998C879.229 113.537 878.7 112.881 878.394 112.115C877.339 111.798 876.319 111.377 875.348 110.857C874.592 111.182 873.756 111.272 872.948 111.114C872.141 110.956 871.4 110.558 870.822 109.973L869.016 108.157C868.432 107.58 868.036 106.84 867.878 106.035C867.72 105.229 867.809 104.395 868.132 103.641C867.609 102.666 867.185 101.643 866.863 100.585C866.101 100.279 865.447 99.7508 864.988 99.069C864.529 98.3871 864.285 97.583 864.288 96.761V94.2052C864.285 93.3806 864.53 92.5741 864.991 91.8904C865.451 91.2067 866.107 90.6774 866.873 90.3714C866.911 90.2561 866.94 90.1407 866.988 90.0255H852.412C851.672 89.9925 850.949 90.2541 850.402 90.7529C849.855 91.2517 849.527 91.9472 849.491 92.687V123.213H864.288C864.953 123.214 865.597 123.443 866.111 123.863C866.626 124.284 866.98 124.868 867.113 125.519Z" fill="white"/>
<path d="M898.784 92.0049C898.729 92.0028 898.676 91.983 898.632 91.9484C898.589 91.9138 898.558 91.8662 898.544 91.8127C898.174 90.273 897.564 88.801 896.738 87.4504C896.709 87.401 896.697 87.3441 896.702 87.2873C896.707 87.2306 896.73 87.1768 896.766 87.1333C897.127 86.7152 897.315 86.1756 897.291 85.6241C897.268 85.0726 897.036 84.5506 896.641 84.1643L894.826 82.3483C894.439 81.9541 893.917 81.7217 893.366 81.6986C892.814 81.6754 892.275 81.863 891.857 82.2235C891.814 82.2579 891.762 82.2789 891.707 82.2841C891.652 82.2892 891.597 82.2781 891.549 82.2523C890.194 81.427 888.719 80.8176 887.177 80.4459C887.122 80.4309 887.074 80.3983 887.039 80.3532C887.004 80.3081 886.985 80.2529 886.985 80.196C886.937 79.6462 886.684 79.1345 886.277 78.7625C885.869 78.3904 885.337 78.1853 884.785 78.1879H882.229C881.675 78.1857 881.142 78.3922 880.734 78.7662C880.326 79.1402 880.074 79.6542 880.028 80.2056C880.026 80.261 880.007 80.3142 879.972 80.3574C879.937 80.4007 879.89 80.4317 879.836 80.4459C878.297 80.8159 876.825 81.4254 875.474 82.2522C875.425 82.2806 875.368 82.293 875.311 82.2879C875.254 82.2827 875.2 82.2602 875.157 82.2234C874.739 81.863 874.199 81.6753 873.648 81.6985C873.096 81.7217 872.574 81.954 872.188 82.3482L870.372 84.1643C869.978 84.5506 869.745 85.0726 869.722 85.6241C869.699 86.1756 869.887 86.7153 870.247 87.1334C870.284 87.1751 870.306 87.2272 870.311 87.2825C870.316 87.3377 870.304 87.3931 870.276 87.4409C869.451 88.7957 868.841 90.2706 868.469 91.8127C868.454 91.8676 868.422 91.9161 868.377 91.9508C868.332 91.9855 868.277 92.0045 868.22 92.0049C867.67 92.0527 867.158 92.3055 866.786 92.7131C866.414 93.1208 866.209 93.6534 866.211 94.2053V96.7611C866.209 97.3144 866.416 97.8482 866.79 98.256C867.164 98.6638 867.678 98.9157 868.229 98.9614C868.285 98.9635 868.338 98.9833 868.381 99.0179C868.424 99.0525 868.455 99.1001 868.469 99.1536C868.839 100.693 869.449 102.165 870.276 103.516C870.304 103.565 870.317 103.622 870.311 103.679C870.306 103.736 870.284 103.789 870.247 103.833C869.887 104.251 869.699 104.791 869.722 105.342C869.745 105.894 869.978 106.416 870.372 106.802L872.188 108.618C872.574 109.012 873.096 109.245 873.648 109.268C874.199 109.291 874.739 109.103 875.157 108.743C875.2 108.709 875.252 108.687 875.306 108.682C875.361 108.677 875.416 108.688 875.464 108.714C876.819 109.539 878.294 110.149 879.836 110.521C879.891 110.536 879.94 110.568 879.974 110.613C880.009 110.658 880.028 110.713 880.028 110.77C880.076 111.32 880.329 111.832 880.737 112.204C881.144 112.576 881.677 112.781 882.229 112.779H884.785C885.338 112.781 885.872 112.574 886.28 112.2C886.687 111.826 886.939 111.312 886.985 110.761C886.987 110.705 887.007 110.652 887.041 110.609C887.076 110.566 887.124 110.535 887.177 110.52C888.717 110.151 890.189 109.541 891.539 108.714C891.589 108.686 891.646 108.673 891.703 108.678C891.759 108.683 891.813 108.706 891.857 108.743C892.275 109.103 892.814 109.291 893.366 109.268C893.917 109.244 894.439 109.012 894.826 108.618L896.641 106.802C897.036 106.416 897.268 105.894 897.291 105.342C897.315 104.791 897.127 104.251 896.766 103.833C896.73 103.791 896.707 103.739 896.702 103.684C896.697 103.629 896.709 103.573 896.738 103.525C897.563 102.171 898.172 100.696 898.544 99.1536C898.559 99.0987 898.592 99.0503 898.637 99.0156C898.682 98.9809 898.737 98.9619 898.794 98.9614C899.344 98.9136 899.855 98.6608 900.227 98.2532C900.599 97.8455 900.805 97.3129 900.802 96.761V94.2052C900.804 93.6519 900.598 93.1181 900.224 92.7103C899.85 92.3025 899.336 92.0506 898.784 92.0049ZM883.507 104.611C881.087 104.609 878.766 103.646 877.055 101.935C875.344 100.223 874.381 97.9032 874.379 95.4832C874.88 83.3734 892.136 83.377 892.635 95.4832C892.632 97.9033 891.67 100.223 889.958 101.935C888.247 103.646 885.927 104.609 883.507 104.611Z" fill="white"/>
<circle cx="982.303" cy="159.047" r="1.7473" fill="#3E3727"/>
<circle cx="1003.27" cy="159.047" r="1.7473" fill="#3E3727"/>
<rect x="1016.2" y="48.2694" width="120.913" height="117.768" rx="44.3725" transform="rotate(-2.02668 1016.2 48.2694)" fill="#4152A5"/>
<path d="M1004.84 62.2424C1001.93 67.9503 996.038 82.581 995.759 95.4412C994.186 99.6929 991.32 117.108 992.439 152.753L984.751 158.868L983.877 158.694" stroke="#3E3727" stroke-width="0.997136"/>
<circle cx="1007.64" cy="53.1598" r="9.43543" fill="#3E3727"/>
<path d="M995.755 95.447C995.056 107.678 997.048 136.229 1010.61 152.584L1002.74 159.224M998.201 78.8477L983.349 94.9228L985.271 116.415C984.573 117.987 982.65 121.552 980.554 123.229" stroke="#3E3727" stroke-width="0.997136"/>
<path d="M998.728 79.3739H1017.25L1012.88 61.3767L1018.3 57.0085C1017.13 54.4458 1015.54 48.9359 1018.47 47.3983" stroke="#3E3727" stroke-width="0.997136"/>
<path d="M1018.29 57.004L1022.31 53.8589" stroke="#3E3727" stroke-width="0.997136"/>
<g clip-path="url(#clip1_1920_13910)">
<path d="M1085.58 75.0518C1072.88 75.0518 1062.57 85.3771 1062.57 98.0602C1062.57 110.743 1072.88 121.059 1085.58 121.059C1098.26 121.059 1108.58 110.753 1108.58 98.0695C1108.58 85.3958 1098.26 75.0703 1085.58 75.0518ZM1085.57 115.058C1076.17 115.058 1068.52 107.426 1068.52 98.0509C1068.52 88.6667 1076.17 81.0345 1085.57 81.0345C1094.94 81.0438 1102.57 88.6854 1102.57 98.0602C1102.57 107.435 1094.94 115.058 1085.57 115.058Z" fill="white"/>
<path d="M1068.6 120.665L1071.04 118.228C1068.88 116.662 1066.99 114.77 1065.41 112.608L1062.98 115.041L1061.86 113.922C1061.51 113.568 1060.89 113.568 1060.54 113.922L1050.84 123.623C1048.3 126.158 1048.3 130.277 1050.84 132.802C1053.36 135.33 1057.48 135.348 1060.03 132.802L1069.73 123.102C1070.09 122.738 1070.09 122.151 1069.73 121.788L1068.6 120.665Z" fill="white"/>
<path d="M1083.41 95.0377L1082.45 94.4413C1082.43 94.1617 1082.38 93.8915 1082.31 93.6212L1083.02 92.7266C1083.14 92.5775 1083.15 92.3632 1083.04 92.1954L1082.38 91.1517C1082.28 90.984 1082.07 90.9001 1081.88 90.9467L1080.79 91.2076C1080.57 91.0306 1080.34 90.8721 1080.1 90.723L1079.97 89.6048C1079.95 89.4091 1079.8 89.2506 1079.61 89.204L1078.41 88.9338C1078.22 88.8965 1078.02 88.9804 1077.91 89.1481L1077.32 90.0987C1077.04 90.1266 1076.76 90.1732 1076.49 90.2478L1075.61 89.5488C1075.46 89.4184 1075.24 89.4091 1075.08 89.5116L1074.03 90.1732C1073.86 90.2757 1073.78 90.4807 1073.83 90.6764L1074.09 91.7667C1073.9 91.9811 1073.74 92.2141 1073.6 92.4564L1072.49 92.5868C1072.29 92.6055 1072.13 92.7546 1072.08 92.9409L1071.81 94.1431C1071.77 94.3388 1071.85 94.5345 1072.02 94.6463L1072.98 95.2334C1073.01 95.513 1073.05 95.7925 1073.13 96.0628L1072.42 96.9481C1072.3 97.0972 1072.29 97.3115 1072.39 97.4793L1073.05 98.523C1073.16 98.6907 1073.35 98.7653 1073.55 98.728L1074.65 98.4671C1074.86 98.6535 1075.09 98.8119 1075.34 98.9517L1075.46 100.07C1075.49 100.266 1075.63 100.424 1075.82 100.471L1077.02 100.741C1077.06 100.75 1077.09 100.75 1077.13 100.75C1077.28 100.75 1077.43 100.666 1077.52 100.536L1078.11 99.5759C1078.39 99.548 1078.67 99.5014 1078.94 99.4268L1079.82 100.135C1079.98 100.256 1080.19 100.266 1080.36 100.163L1081.4 99.5014C1081.57 99.3989 1081.65 99.1939 1081.61 99.0075L1081.35 97.8985C1081.52 97.6842 1081.69 97.4605 1081.82 97.2182L1082.95 97.0971C1083.15 97.0691 1083.3 96.9294 1083.35 96.7337L1083.62 95.5315C1083.66 95.3358 1083.58 95.1402 1083.41 95.0377ZM1078.92 96.743C1077.93 97.3953 1076.5 97.1344 1075.8 96.0441C1075.15 94.9817 1075.42 93.6211 1076.5 92.9315C1077.53 92.2792 1078.97 92.6147 1079.61 93.6304C1080.25 94.6183 1080.03 96.0347 1078.92 96.743Z" fill="white"/>
<path d="M1098.33 101.067L1096.95 100.219C1096.92 99.8 1096.86 99.3807 1096.73 98.9706L1097.74 97.6939C1097.87 97.5448 1097.88 97.3305 1097.77 97.1627L1096.87 95.7556C1096.77 95.5878 1096.58 95.4947 1096.38 95.5506L1094.81 95.914C1094.49 95.6438 1094.14 95.3921 1093.77 95.1871L1093.58 93.575C1093.56 93.3793 1093.42 93.2208 1093.22 93.1742L1091.59 92.8108C1091.4 92.7735 1091.2 92.8481 1091.1 93.0158L1090.25 94.395C1089.82 94.423 1089.4 94.4975 1088.99 94.6094L1087.72 93.6029C1087.56 93.4818 1087.35 93.4724 1087.18 93.575L1085.78 94.4696C1085.61 94.5814 1085.52 94.7771 1085.57 94.9728L1085.94 96.5384C1085.66 96.8645 1085.41 97.2093 1085.21 97.5821L1083.6 97.7685C1083.41 97.7871 1083.25 97.9362 1083.2 98.1319L1082.84 99.7535C1082.79 99.9492 1082.88 100.154 1083.04 100.257L1084.42 101.105C1084.45 101.533 1084.52 101.953 1084.64 102.363L1083.63 103.621C1083.51 103.779 1083.5 103.994 1083.6 104.161L1084.5 105.569C1084.6 105.736 1084.8 105.82 1084.99 105.774L1086.57 105.41C1086.89 105.69 1087.24 105.932 1087.61 106.137L1087.79 107.749C1087.82 107.945 1087.96 108.103 1088.15 108.15L1089.78 108.513C1089.81 108.523 1089.85 108.523 1089.89 108.523C1090.04 108.523 1090.19 108.439 1090.28 108.299L1091.13 106.929C1091.55 106.901 1091.97 106.827 1092.38 106.715L1093.65 107.721C1093.81 107.842 1094.02 107.852 1094.19 107.749L1095.6 106.855C1095.77 106.752 1095.85 106.547 1095.8 106.361L1095.43 104.776C1095.71 104.46 1095.96 104.105 1096.17 103.742L1097.77 103.556C1097.96 103.537 1098.13 103.388 1098.17 103.192L1098.53 101.571C1098.58 101.375 1098.5 101.17 1098.33 101.067ZM1092.49 103.509C1090.81 104.534 1088.79 103.965 1087.84 102.465C1086.85 100.9 1087.31 98.8121 1088.89 97.815C1090.44 96.8179 1092.54 97.2838 1093.53 98.8587C1094.53 100.424 1094.06 102.512 1092.49 103.509Z" fill="white"/>
</g>
<circle cx="1196.29" cy="145.132" r="1.7473" fill="#3E3727"/>
<circle cx="1261.28" cy="117.876" r="1.7473" fill="#3E3727"/>
<path d="M1271.42 159.457H1314.06" stroke="#3E3727" stroke-width="0.997136"/>
<path d="M1286.62 166.51C1283.68 164.972 1282.02 169.014 1281.55 171.227V172.276H1304.79C1304.85 171.227 1304.93 168.921 1304.79 168.082C1304.62 167.034 1302.35 171.752 1302 171.402C1301.65 171.053 1303.05 170.354 1303.05 168.956C1303.05 167.558 1302.52 169.655 1301.3 170.703C1300.07 171.752 1301.82 170.004 1301.47 169.131C1301.19 168.432 1300.54 169.771 1300.25 170.529C1297.98 164.588 1297.28 165.461 1293.26 164.762C1289.24 164.063 1288.54 169.131 1288.37 168.432C1288.23 167.873 1287.14 166.917 1286.62 166.51Z" fill="#3E3727"/>
<rect x="1271.42" y="41.6885" width="120.913" height="117.768" rx="58.8841" transform="rotate(-2.02668 1271.42 41.6885)" fill="#FFA22B"/>
<path d="M1208.34 84.5039L1231.93 92.5415L1242.24 80.4851" stroke="#3E3727" stroke-width="0.997136"/>
<path d="M1207.82 84.8506L1184.93 88.1705L1198.04 98.6543M1207.65 118.748L1182.66 122.942L1204.33 140.24L1196.99 145.133" stroke="#3E3727" stroke-width="0.997136"/>
<path d="M1254.82 127.489L1279.11 127.14" stroke="#3E3727" stroke-width="0.997136"/>
<path d="M1261.11 135.874L1281.38 136.224" stroke="#3E3727" stroke-width="0.997136"/>
<path d="M1252.9 143.384L1279.81 143.733" stroke="#3E3727" stroke-width="0.997136"/>
<circle cx="1208.35" cy="65.6327" r="9.61016" fill="#3E3727"/>
<path d="M1208.34 75.2424L1207.65 118.75L1255.7 124.866L1261.81 117.527" stroke="#3E3727" stroke-width="0.997136"/>
<g clip-path="url(#clip2_1920_13910)">
<path d="M1317.47 125.296C1318.15 124.616 1318.69 123.809 1319.06 122.92C1319.42 122.032 1319.61 121.08 1319.61 120.118C1319.61 119.157 1319.42 118.205 1319.06 117.316C1318.69 116.428 1318.15 115.621 1317.47 114.941C1316.79 114.261 1315.98 113.721 1315.09 113.353C1314.21 112.985 1313.25 112.796 1312.29 112.796C1311.33 112.796 1310.38 112.985 1309.49 113.353C1308.6 113.721 1307.79 114.26 1307.11 114.94C1305.08 116.976 1304.27 120.133 1304.02 122.991C1303.87 124.609 1303.88 126.236 1304.05 127.851C1304.09 128.257 1304.48 128.348 1304.55 128.36H1304.57C1304.73 128.36 1307.07 128.413 1307.79 126.129C1307.92 125.704 1308.11 125.299 1308.36 124.927C1308.46 124.781 1308.61 124.673 1308.78 124.621C1308.95 124.569 1309.13 124.576 1309.3 124.642C1309.46 124.707 1309.6 124.826 1309.69 124.98C1309.78 125.134 1309.81 125.314 1309.79 125.491C1309.67 126.358 1309.85 127.239 1310.3 127.991C1310.35 128.075 1310.42 128.142 1310.51 128.184C1310.6 128.226 1310.69 128.24 1310.79 128.226C1313.24 127.85 1315.75 127.012 1317.47 125.296Z" fill="white"/>
<path d="M1363.97 73.7483C1363.79 70.6854 1361.6 68.4912 1358.54 68.314C1348.13 67.6941 1336.54 72.1059 1327.5 81.1478L1325.08 83.5591C1324.22 84.4278 1323.39 85.3193 1322.61 86.2334H1315.01C1313.39 86.2956 1311.96 87.2266 1311.16 88.5931L1306.69 97.5329C1306.57 97.8537 1306.48 98.1868 1306.44 98.526C1306.44 99.1012 1306.68 99.6507 1307.08 100.057C1307.49 100.463 1308.04 100.694 1308.62 100.699H1314.26C1313.53 103.164 1314.02 105.591 1315.58 107.156L1325.13 116.699C1326.69 118.266 1329.12 118.755 1331.58 118.022V123.672C1331.59 124.247 1331.82 124.795 1332.23 125.201C1332.63 125.607 1333.18 125.838 1333.76 125.845C1334.1 125.799 1334.43 125.716 1334.75 125.597L1343.69 121.127C1345.06 120.32 1345.99 118.897 1346.05 117.278V109.676C1346.96 108.894 1347.85 108.068 1348.72 107.199L1351.14 104.788C1360.18 95.7461 1364.59 84.152 1363.97 73.7483ZM1351.3 91.8638C1350.23 92.94 1348.86 93.6729 1347.36 93.9699C1345.87 94.2668 1344.32 94.1145 1342.92 93.532C1341.51 92.9496 1340.31 91.9633 1339.46 90.6978C1338.62 89.4323 1338.17 87.9444 1338.17 86.4224C1338.17 84.9004 1338.62 83.4126 1339.46 82.1471C1340.31 80.8816 1341.51 79.8952 1342.92 79.3128C1344.32 78.7304 1345.87 78.578 1347.36 78.8749C1348.86 79.1719 1350.23 79.9048 1351.3 80.9811C1352.75 82.4242 1353.56 84.3815 1353.56 86.4224C1353.56 88.4633 1352.75 90.4206 1351.3 91.8638Z" fill="white"/>
<path d="M1313.21 80.2567C1312.79 79.8371 1312.55 79.2681 1312.55 78.6748C1312.55 78.0815 1312.79 77.5125 1313.21 77.0929L1319 71.2982C1319.42 70.8779 1319.99 70.6417 1320.59 70.6417C1321.18 70.6417 1321.75 70.8779 1322.17 71.2982C1322.59 71.7185 1322.83 72.2886 1322.83 72.8831C1322.83 73.4775 1322.59 74.0476 1322.17 74.4679L1316.38 80.2626C1316.17 80.4708 1315.92 80.6358 1315.65 80.7483C1315.38 80.8607 1315.09 80.9183 1314.79 80.9177C1314.5 80.9172 1314.21 80.8585 1313.94 80.7451C1313.66 80.6317 1313.42 80.4657 1313.21 80.2567Z" fill="white"/>
<path d="M1304.81 78.9307C1304.39 78.5113 1304.15 77.9432 1304.15 77.3511C1304.15 76.7589 1304.39 76.1909 1304.81 75.7715L1307.78 72.7955C1308.2 72.3891 1308.76 72.1646 1309.35 72.1701C1309.94 72.1757 1310.5 72.411 1310.91 72.8254C1311.33 73.2398 1311.56 73.8003 1311.57 74.3863C1311.57 74.9723 1311.35 75.5371 1310.94 75.9594L1307.97 78.9307C1307.76 79.1392 1307.52 79.3047 1307.25 79.4176C1306.97 79.5305 1306.68 79.5887 1306.39 79.5887C1306.09 79.5887 1305.8 79.5305 1305.53 79.4176C1305.26 79.3047 1305.01 79.1392 1304.81 78.9307Z" fill="white"/>
<path d="M1351.84 118.884C1351.63 118.676 1351.46 118.43 1351.35 118.158C1351.24 117.887 1351.18 117.596 1351.18 117.302C1351.18 117.008 1351.24 116.717 1351.35 116.445C1351.46 116.174 1351.63 115.927 1351.84 115.72L1357.63 109.931C1358.05 109.511 1358.62 109.274 1359.21 109.274C1359.81 109.273 1360.38 109.509 1360.8 109.928C1361.22 110.348 1361.45 110.917 1361.45 111.511C1361.46 112.105 1361.22 112.675 1360.8 113.095L1355.01 118.89C1354.8 119.098 1354.55 119.263 1354.28 119.375C1354.01 119.488 1353.72 119.545 1353.42 119.545C1353.13 119.544 1352.83 119.485 1352.56 119.372C1352.29 119.259 1352.04 119.093 1351.84 118.884Z" fill="white"/>
<path d="M1353.16 127.284C1352.74 126.864 1352.51 126.295 1352.51 125.702C1352.51 125.108 1352.74 124.539 1353.16 124.12L1356.13 121.149C1356.34 120.94 1356.59 120.775 1356.86 120.662C1357.13 120.55 1357.42 120.491 1357.72 120.491C1358.01 120.491 1358.3 120.549 1358.57 120.661C1358.85 120.773 1359.09 120.938 1359.3 121.146C1359.51 121.353 1359.67 121.6 1359.79 121.872C1359.9 122.143 1359.96 122.434 1359.96 122.728C1359.96 123.022 1359.9 123.314 1359.79 123.585C1359.68 123.857 1359.51 124.104 1359.3 124.312L1356.33 127.284C1356.13 127.492 1355.88 127.658 1355.61 127.771C1355.33 127.884 1355.04 127.942 1354.75 127.942C1354.45 127.942 1354.16 127.884 1353.89 127.771C1353.62 127.658 1353.37 127.492 1353.16 127.284Z" fill="white"/>
</g>
<defs>
<clipPath id="clip0_1920_13910">
<rect width="61.505" height="61.505" fill="white" transform="translate(95.9731 76.6035)"/>
</clipPath>
<clipPath id="clip1_1920_13910">
<rect width="61.505" height="61.505" fill="white" transform="translate(1048.01 74.1287)"/>
</clipPath>
<clipPath id="clip2_1920_13910">
<rect width="60.1072" height="60.1072" fill="white" transform="translate(1303.92 68.2528)"/>
</clipPath>
</defs>
</svg>
