<svg width="80" height="80" viewBox="0 0 80 80" fill="none" xmlns="http://www.w3.org/2000/svg">
<mask id="mask0_1920_15814" style="mask-type:luminance" maskUnits="userSpaceOnUse" x="0" y="0" width="80" height="80">
<path d="M0.885742 0.885948H79.1138V79.114H0.885742V0.885948Z" fill="white"/>
</mask>
<g mask="url(#mask0_1920_15814)">
<path d="M2.32959 7.9086H16.539L25.7063 49.1617H72.9182L77.5019 21.6596H19.5948" stroke="#7C7C7C" stroke-width="2" stroke-miterlimit="10" stroke-linecap="round" stroke-linejoin="round"/>
<path d="M25.7449 59.7932C22.3698 59.7932 19.6333 62.5297 19.6333 65.9048C19.6333 69.2799 22.3698 72.0164 25.7449 72.0164C29.12 72.0164 31.8564 69.2799 31.8564 65.9048C31.8564 62.5297 29.12 59.7932 25.7449 59.7932Z" stroke="#7C7C7C" stroke-width="2" stroke-miterlimit="10" stroke-linecap="round" stroke-linejoin="round"/>
<path d="M25.7349 59.8133V49.118" stroke="#7C7C7C" stroke-width="2" stroke-miterlimit="10" stroke-linecap="round" stroke-linejoin="round"/>
<path d="M61.3477 65.9048C61.3477 69.2799 64.0841 72.0164 67.4592 72.0164C70.8343 72.0164 73.5708 69.2799 73.5708 65.9048C73.5708 62.5297 70.8343 59.7932 67.4592 59.7932C64.0841 59.7932 61.3477 62.5297 61.3477 65.9048Z" stroke="#7C7C7C" stroke-width="2" stroke-miterlimit="10" stroke-linecap="round" stroke-linejoin="round"/>
<path d="M22.6318 35.3508H75.1913" stroke="#7C7C7C" stroke-width="2" stroke-miterlimit="10" stroke-linecap="round" stroke-linejoin="round"/>
<path d="M58.6865 21.6596V49.1617" stroke="#7C7C7C" stroke-width="2" stroke-miterlimit="10" stroke-linecap="round" stroke-linejoin="round"/>
<path d="M39.936 21.6596V49.1617" stroke="#7C7C7C" stroke-width="2" stroke-miterlimit="10" stroke-linecap="round" stroke-linejoin="round"/>
<path d="M47.3204 65.9385C47.3204 66.7822 46.6362 67.4664 45.7925 67.4664C44.9488 67.4664 44.2646 66.7822 44.2646 65.9385C44.2646 65.0948 44.9488 64.4106 45.7925 64.4106C46.6362 64.4106 47.3204 65.0948 47.3204 65.9385Z" fill="#7C7C7C"/>
<path d="M61.2938 65.9691H52.585" stroke="#7C7C7C" stroke-width="2" stroke-miterlimit="10" stroke-linecap="round" stroke-linejoin="round"/>
<path d="M38.8647 65.9691H31.8364" stroke="#7C7C7C" stroke-width="2" stroke-miterlimit="10" stroke-linecap="round" stroke-linejoin="round"/>
</g>
</svg>
