<svg width="72" height="62" viewBox="0 0 72 62" fill="none" xmlns="http://www.w3.org/2000/svg">
<path d="M36.0005 35.8114C35.8352 35.8113 35.672 35.7744 35.5224 35.7031L0.647388 19.067C0.454117 18.9749 0.290698 18.8289 0.17623 18.6462C0.0617627 18.4634 0.000976563 18.2513 0.000976562 18.0348C0.000976562 17.8183 0.0617627 17.6062 0.17623 17.4234C0.290698 17.2406 0.454117 17.0946 0.647388 17.0025L35.5224 0.360794C35.672 0.289577 35.8352 0.252655 36.0005 0.252655C36.1658 0.252655 36.329 0.289577 36.4786 0.360794L71.3536 17.0025C71.5469 17.0946 71.7103 17.2406 71.8248 17.4234C71.9393 17.6062 72 17.8183 72 18.0348C72 18.2513 71.9393 18.4634 71.8248 18.6462C71.7103 18.8289 71.5469 18.9749 71.3536 19.067L36.4786 35.7031C36.329 35.7744 36.1658 35.8113 36.0005 35.8114ZM3.76926 18.0348L36.0005 33.4332L68.2318 18.0348L36.0005 2.65345L3.76926 18.0348Z" fill="#7C7C7C"/>
<path d="M13.5 37.625C13.2016 37.625 12.9155 37.5048 12.7045 37.2909C12.4935 37.077 12.375 36.7869 12.375 36.4844V24.5078C12.375 24.2053 12.4935 23.9152 12.7045 23.7013C12.9155 23.4874 13.2016 23.3672 13.5 23.3672C13.7984 23.3672 14.0845 23.4874 14.2955 23.7013C14.5065 23.9152 14.625 24.2053 14.625 24.5078V36.4844C14.625 36.7869 14.5065 37.077 14.2955 37.2909C14.0845 37.5048 13.7984 37.625 13.5 37.625Z" fill="#7C7C7C"/>
<path d="M58.5 37.625C58.2016 37.625 57.9155 37.5048 57.7045 37.2909C57.4935 37.077 57.375 36.7869 57.375 36.4844V24.5078C57.375 24.2053 57.4935 23.9152 57.7045 23.7013C57.9155 23.4874 58.2016 23.3672 58.5 23.3672C58.7984 23.3672 59.0845 23.4874 59.2955 23.7013C59.5065 23.9152 59.625 24.2053 59.625 24.5078V36.4844C59.625 36.7869 59.5065 37.077 59.2955 37.2909C59.0845 37.5048 58.7984 37.625 58.5 37.625Z" fill="#7C7C7C"/>
<path d="M36 49.3335C23.2762 49.3335 12.375 42.2673 12.375 36.4844C12.375 36.1819 12.4935 35.8917 12.7045 35.6778C12.9155 35.4639 13.2016 35.3438 13.5 35.3438C13.7984 35.3438 14.0845 35.4639 14.2955 35.6778C14.5065 35.8917 14.625 36.1819 14.625 36.4844C14.625 40.1002 23.625 47.0523 36 47.0523C48.375 47.0523 57.375 40.1002 57.375 36.4844C57.375 36.1819 57.4935 35.8917 57.7045 35.6778C57.9155 35.4639 58.2016 35.3438 58.5 35.3438C58.7984 35.3438 59.0845 35.4639 59.2955 35.6778C59.5065 35.8917 59.625 36.1819 59.625 36.4844C59.625 42.2673 48.7238 49.3335 36 49.3335Z" fill="#7C7C7C"/>
<path d="M52.8753 49.6015C52.5769 49.6015 52.2908 49.4813 52.0798 49.2674C51.8688 49.0535 51.7503 48.7634 51.7503 48.4609V26.9259L35.4997 18.6849C35.3628 18.6211 35.2399 18.5301 35.1383 18.4173C35.0368 18.3045 34.9586 18.1721 34.9084 18.0281C34.8583 17.8841 34.8371 17.7313 34.8463 17.5788C34.8555 17.4263 34.8948 17.2773 34.9619 17.1405C35.029 17.0038 35.1224 16.882 35.2368 16.7826C35.3511 16.6831 35.484 16.608 35.6276 16.5616C35.7711 16.5152 35.9224 16.4985 36.0724 16.5125C36.2224 16.5265 36.3681 16.5709 36.5009 16.6431L53.3759 25.1978C53.5633 25.2923 53.7211 25.4378 53.8314 25.6182C53.9417 25.7985 54.0002 26.0065 54.0003 26.2187V48.4609C54.0003 48.7634 53.8818 49.0535 53.6708 49.2674C53.4598 49.4813 53.1737 49.6015 52.8753 49.6015Z" fill="#7C7C7C"/>
<path d="M52.875 54.7344C52.2075 54.7344 51.555 54.5337 51 54.1577C50.4449 53.7817 50.0124 53.2473 49.7569 52.622C49.5015 51.9967 49.4346 51.3087 49.5649 50.6449C49.6951 49.9811 50.0165 49.3714 50.4885 48.8929C50.9605 48.4143 51.5619 48.0884 52.2166 47.9564C52.8713 47.8243 53.5499 47.8921 54.1666 48.1511C54.7833 48.4101 55.3104 48.8487 55.6812 49.4114C56.0521 49.9741 56.25 50.6357 56.25 51.3125C56.25 52.22 55.8944 53.0904 55.2615 53.7321C54.6285 54.3739 53.7701 54.7344 52.875 54.7344ZM52.875 50.1719C52.6525 50.1719 52.435 50.2388 52.25 50.3641C52.065 50.4894 51.9208 50.6676 51.8356 50.876C51.7505 51.0844 51.7282 51.3138 51.7716 51.535C51.815 51.7563 51.9222 51.9595 52.0795 52.119C52.2368 52.2786 52.4373 52.3872 52.6555 52.4312C52.8738 52.4752 53.1 52.4526 53.3055 52.3663C53.5111 52.28 53.6868 52.1338 53.8104 51.9462C53.934 51.7586 54 51.5381 54 51.3125C54 51.01 53.8815 50.7199 53.6705 50.506C53.4595 50.292 53.1734 50.1719 52.875 50.1719Z" fill="#7C7C7C"/>
<path d="M54.5632 61.578H51.1882C51.032 61.5786 50.8775 61.5462 50.7343 61.4829C50.5912 61.4196 50.4627 61.3268 50.3568 61.2104C50.251 61.094 50.1703 60.9565 50.1197 60.8068C50.0691 60.657 50.0499 60.4982 50.0632 60.3404L50.6257 53.4967C50.6368 53.1942 50.7661 52.9086 50.985 52.7027C51.2039 52.4968 51.4945 52.3875 51.7928 52.3988C52.0912 52.4102 52.3729 52.5412 52.576 52.7632C52.779 52.9851 52.8868 53.2797 52.8757 53.5822C52.8645 53.2797 52.9723 52.9851 53.1753 52.7632C53.3784 52.5412 53.6601 52.4102 53.9585 52.3988C54.2568 52.3875 54.5474 52.4968 54.7663 52.7027C54.9852 52.9086 55.1145 53.1942 55.1257 53.4967L55.6882 60.3404C55.7014 60.4982 55.6822 60.657 55.6316 60.8068C55.581 60.9565 55.5003 61.094 55.3945 61.2104C55.2886 61.3268 55.1601 61.4196 55.017 61.4829C54.8738 61.5462 54.7193 61.5786 54.5632 61.578ZM52.4088 59.2968H53.3425L52.8757 53.6906C52.8729 53.6622 52.8729 53.6335 52.8757 53.6051C52.8784 53.6335 52.8784 53.6622 52.8757 53.6906L52.4088 59.2968Z" fill="#7C7C7C"/>
</svg>
