<svg width="85" height="85" viewBox="0 0 85 85" fill="none" xmlns="http://www.w3.org/2000/svg">
<mask id="path-1-inside-1_1920_15853" fill="white">
<path d="M75.6132 11.0559H66.8495C66.5204 8.53223 64.3616 6.57528 61.7496 6.57528C59.1373 6.57528 56.9784 8.53223 56.6494 11.0559H54.6901C54.3611 8.53223 52.2022 6.57528 49.5899 6.57528C46.9779 6.57528 44.8191 8.53223 44.49 11.056H42.5303C42.2013 8.53232 40.0425 6.57537 37.4305 6.57537C34.8182 6.57537 32.6593 8.53232 32.3303 11.056H30.3706C30.0415 8.53232 27.8827 6.57537 25.2707 6.57537C22.6588 6.57537 20.4999 8.53232 20.1709 11.0561H12.7483C12.3816 11.0561 12.0842 11.3535 12.0842 11.7202L12.0844 59.6328H3.54199C3.17534 59.6328 2.87793 59.9302 2.87793 60.2969V60.4262C2.87793 65.8657 6.80298 70.4857 12.0845 71.4177V77.7605C12.0845 78.1271 12.3819 78.4245 12.7486 78.4245L75.6135 78.4245C75.9801 78.4245 76.2775 78.127 76.2775 77.7604V74.2313H80.6009C80.9675 74.2313 81.2649 73.9339 81.2649 73.5672L81.2648 16.7156C81.2648 15.2029 80.6777 13.7831 79.612 12.7174C78.5406 11.6461 77.1204 11.0559 75.6132 11.0559ZM61.7496 7.90341C63.6273 7.90341 65.1845 9.26801 65.5022 11.0559H57.9966C58.3144 9.26801 59.8715 7.90341 61.7496 7.90341ZM49.5899 7.90341C51.4681 7.90341 53.0253 9.2681 53.343 11.0559H45.8374C46.1551 9.2681 47.7122 7.90341 49.5899 7.90341ZM37.4306 7.90341C39.3083 7.90341 40.8655 9.26801 41.1832 11.0559H33.6776C33.9953 9.2681 35.5525 7.90341 37.4306 7.90341ZM25.2708 7.9035C27.1485 7.9035 28.7057 9.26819 29.0234 11.056H21.5183C21.8359 9.2681 23.3931 7.9035 25.2708 7.9035ZM20.1699 12.3841C20.4959 14.9117 22.6565 16.8721 25.2708 16.8721C25.6375 16.8721 25.9349 16.5747 25.9349 16.2081C25.9349 15.8414 25.6375 15.544 25.2708 15.544C23.3906 15.544 21.8324 14.1758 21.5175 12.3841H29.7378C29.7439 12.3843 29.7489 12.3876 29.7549 12.3876C29.761 12.3876 29.766 12.3843 29.772 12.3841H32.3292C32.6551 14.9117 34.8158 16.8721 37.4305 16.8721C37.7972 16.8721 38.0946 16.5747 38.0946 16.2081C38.0946 15.8414 37.7972 15.544 37.4305 15.544C35.55 15.544 33.9917 14.1758 33.6768 12.3841H41.8975C41.9036 12.3843 41.9086 12.3876 41.9146 12.3876C41.9206 12.3876 41.9257 12.3843 41.9317 12.3841H44.4889C44.8148 14.9117 46.9754 16.8721 49.5898 16.8721C49.9564 16.8721 50.2538 16.5747 50.2538 16.2081C50.2538 15.8414 49.9564 15.544 49.5898 15.544C47.7096 15.544 46.1513 14.1758 45.8365 12.3841H54.0572C54.0632 12.3843 54.0683 12.3876 54.0743 12.3876C54.0803 12.3876 54.0854 12.3843 54.0914 12.3841H56.6481C56.9741 14.9117 59.1347 16.8721 61.7495 16.8721C62.1161 16.8721 62.4135 16.5747 62.4135 16.2081C62.4135 15.8414 62.1161 15.544 61.7495 15.544C59.8689 15.544 58.3106 14.1758 57.9957 12.3841H66.2165C66.2225 12.3843 66.2275 12.3876 66.2336 12.3876C66.2396 12.3876 66.2446 12.3843 66.2506 12.3841H71.974C71.9323 12.4192 71.8955 12.4595 71.8548 12.4957C70.811 13.4119 70.1435 14.726 69.9878 16.1038C69.9661 16.3049 69.9533 16.5089 69.9533 16.7157V21.5046H13.4124V12.3841H20.1699ZM13.4124 22.8328L69.9536 22.8327L69.9537 66.1121C69.9537 67.218 69.5193 68.2655 68.7358 69.0572C67.9386 69.8457 66.8911 70.2802 65.7861 70.2803C63.4878 70.2803 61.6184 68.4105 61.6184 66.1122V60.2969C61.6184 59.9302 61.321 59.6328 60.9544 59.6328H13.4125L13.4124 22.8328ZM4.22022 60.9609L60.2902 60.9609V66.1121C60.2906 67.527 60.8604 68.9202 61.845 69.9343C61.9204 70.012 61.9999 70.0854 62.0798 70.1587C62.1231 70.1983 62.1626 70.242 62.2071 70.2802L14.0597 70.2803C13.6291 70.2803 13.2188 70.2535 12.8297 70.199C8.09091 69.6154 4.47531 65.6907 4.22022 60.9609ZM79.9367 72.9031H76.2775L76.2774 30.8597C76.2774 30.493 75.98 30.1956 75.6133 30.1956C75.2467 30.1956 74.9492 30.493 74.9492 30.8597L74.9493 77.0962L13.4125 77.0963V71.5655C13.6296 71.5787 13.8327 71.6083 14.0598 71.6083L65.7861 71.6083C67.2435 71.6083 68.6226 71.0376 69.6745 69.9965C70.7112 68.9499 71.2819 67.5703 71.2819 66.112L71.2818 16.7155C71.2818 16.417 71.3121 16.1255 71.3699 15.8437C71.7745 13.8719 73.5236 12.384 75.6132 12.384C76.7659 12.384 77.8523 12.8357 78.6729 13.6563C79.4878 14.4713 79.9366 15.5577 79.9366 16.7155L79.9367 72.9031Z"/>
</mask>
<path d="M75.6132 11.0559H66.8495C66.5204 8.53223 64.3616 6.57528 61.7496 6.57528C59.1373 6.57528 56.9784 8.53223 56.6494 11.0559H54.6901C54.3611 8.53223 52.2022 6.57528 49.5899 6.57528C46.9779 6.57528 44.8191 8.53223 44.49 11.056H42.5303C42.2013 8.53232 40.0425 6.57537 37.4305 6.57537C34.8182 6.57537 32.6593 8.53232 32.3303 11.056H30.3706C30.0415 8.53232 27.8827 6.57537 25.2707 6.57537C22.6588 6.57537 20.4999 8.53232 20.1709 11.0561H12.7483C12.3816 11.0561 12.0842 11.3535 12.0842 11.7202L12.0844 59.6328H3.54199C3.17534 59.6328 2.87793 59.9302 2.87793 60.2969V60.4262C2.87793 65.8657 6.80298 70.4857 12.0845 71.4177V77.7605C12.0845 78.1271 12.3819 78.4245 12.7486 78.4245L75.6135 78.4245C75.9801 78.4245 76.2775 78.127 76.2775 77.7604V74.2313H80.6009C80.9675 74.2313 81.2649 73.9339 81.2649 73.5672L81.2648 16.7156C81.2648 15.2029 80.6777 13.7831 79.612 12.7174C78.5406 11.6461 77.1204 11.0559 75.6132 11.0559ZM61.7496 7.90341C63.6273 7.90341 65.1845 9.26801 65.5022 11.0559H57.9966C58.3144 9.26801 59.8715 7.90341 61.7496 7.90341ZM49.5899 7.90341C51.4681 7.90341 53.0253 9.2681 53.343 11.0559H45.8374C46.1551 9.2681 47.7122 7.90341 49.5899 7.90341ZM37.4306 7.90341C39.3083 7.90341 40.8655 9.26801 41.1832 11.0559H33.6776C33.9953 9.2681 35.5525 7.90341 37.4306 7.90341ZM25.2708 7.9035C27.1485 7.9035 28.7057 9.26819 29.0234 11.056H21.5183C21.8359 9.2681 23.3931 7.9035 25.2708 7.9035ZM20.1699 12.3841C20.4959 14.9117 22.6565 16.8721 25.2708 16.8721C25.6375 16.8721 25.9349 16.5747 25.9349 16.2081C25.9349 15.8414 25.6375 15.544 25.2708 15.544C23.3906 15.544 21.8324 14.1758 21.5175 12.3841H29.7378C29.7439 12.3843 29.7489 12.3876 29.7549 12.3876C29.761 12.3876 29.766 12.3843 29.772 12.3841H32.3292C32.6551 14.9117 34.8158 16.8721 37.4305 16.8721C37.7972 16.8721 38.0946 16.5747 38.0946 16.2081C38.0946 15.8414 37.7972 15.544 37.4305 15.544C35.55 15.544 33.9917 14.1758 33.6768 12.3841H41.8975C41.9036 12.3843 41.9086 12.3876 41.9146 12.3876C41.9206 12.3876 41.9257 12.3843 41.9317 12.3841H44.4889C44.8148 14.9117 46.9754 16.8721 49.5898 16.8721C49.9564 16.8721 50.2538 16.5747 50.2538 16.2081C50.2538 15.8414 49.9564 15.544 49.5898 15.544C47.7096 15.544 46.1513 14.1758 45.8365 12.3841H54.0572C54.0632 12.3843 54.0683 12.3876 54.0743 12.3876C54.0803 12.3876 54.0854 12.3843 54.0914 12.3841H56.6481C56.9741 14.9117 59.1347 16.8721 61.7495 16.8721C62.1161 16.8721 62.4135 16.5747 62.4135 16.2081C62.4135 15.8414 62.1161 15.544 61.7495 15.544C59.8689 15.544 58.3106 14.1758 57.9957 12.3841H66.2165C66.2225 12.3843 66.2275 12.3876 66.2336 12.3876C66.2396 12.3876 66.2446 12.3843 66.2506 12.3841H71.974C71.9323 12.4192 71.8955 12.4595 71.8548 12.4957C70.811 13.4119 70.1435 14.726 69.9878 16.1038C69.9661 16.3049 69.9533 16.5089 69.9533 16.7157V21.5046H13.4124V12.3841H20.1699ZM13.4124 22.8328L69.9536 22.8327L69.9537 66.1121C69.9537 67.218 69.5193 68.2655 68.7358 69.0572C67.9386 69.8457 66.8911 70.2802 65.7861 70.2803C63.4878 70.2803 61.6184 68.4105 61.6184 66.1122V60.2969C61.6184 59.9302 61.321 59.6328 60.9544 59.6328H13.4125L13.4124 22.8328ZM4.22022 60.9609L60.2902 60.9609V66.1121C60.2906 67.527 60.8604 68.9202 61.845 69.9343C61.9204 70.012 61.9999 70.0854 62.0798 70.1587C62.1231 70.1983 62.1626 70.242 62.2071 70.2802L14.0597 70.2803C13.6291 70.2803 13.2188 70.2535 12.8297 70.199C8.09091 69.6154 4.47531 65.6907 4.22022 60.9609ZM79.9367 72.9031H76.2775L76.2774 30.8597C76.2774 30.493 75.98 30.1956 75.6133 30.1956C75.2467 30.1956 74.9492 30.493 74.9492 30.8597L74.9493 77.0962L13.4125 77.0963V71.5655C13.6296 71.5787 13.8327 71.6083 14.0598 71.6083L65.7861 71.6083C67.2435 71.6083 68.6226 71.0376 69.6745 69.9965C70.7112 68.9499 71.2819 67.5703 71.2819 66.112L71.2818 16.7155C71.2818 16.417 71.3121 16.1255 71.3699 15.8437C71.7745 13.8719 73.5236 12.384 75.6132 12.384C76.7659 12.384 77.8523 12.8357 78.6729 13.6563C79.4878 14.4713 79.9366 15.5577 79.9366 16.7155L79.9367 72.9031Z" fill="#7C7C7C" stroke="#7C7C7C" stroke-width="4" mask="url(#path-1-inside-1_1920_15853)"/>
<mask id="path-2-inside-2_1920_15853" fill="white">
<path d="M22.2261 65.6203C22.2261 65.2536 21.9287 64.9562 21.562 64.9562H12.748C12.3814 64.9562 12.084 65.2536 12.084 65.6203C12.084 65.9869 12.3814 66.2843 12.748 66.2843H21.562C21.9287 66.2843 22.2261 65.9869 22.2261 65.6203Z"/>
</mask>
<path d="M22.2261 65.6203C22.2261 65.2536 21.9287 64.9562 21.562 64.9562H12.748C12.3814 64.9562 12.084 65.2536 12.084 65.6203C12.084 65.9869 12.3814 66.2843 12.748 66.2843H21.562C21.9287 66.2843 22.2261 65.9869 22.2261 65.6203Z" fill="#7C7C7C"/>
<path d="M24.2261 65.6203C24.2261 64.149 23.0332 62.9562 21.562 62.9562V66.9562C20.8241 66.9562 20.2261 66.3582 20.2261 65.6203H24.2261ZM21.562 62.9562H12.748V66.9562H21.562V62.9562ZM12.748 62.9562C11.2768 62.9562 10.084 64.149 10.084 65.6203H14.084C14.084 66.3582 13.486 66.9562 12.748 66.9562V62.9562ZM10.084 65.6203C10.084 67.0915 11.2768 68.2843 12.748 68.2843V64.2843C13.486 64.2843 14.084 64.8823 14.084 65.6203H10.084ZM12.748 68.2843H21.562V64.2843H12.748V68.2843ZM21.562 68.2843C23.0332 68.2843 24.2261 67.0915 24.2261 65.6203H20.2261C20.2261 64.8823 20.8241 64.2843 21.562 64.2843V68.2843Z" fill="#7C7C7C" mask="url(#path-2-inside-2_1920_15853)"/>
<mask id="path-4-inside-3_1920_15853" fill="white">
<path d="M33.7075 66.2843H47.6317C47.9983 66.2843 48.2957 65.9869 48.2957 65.6203C48.2957 65.2536 47.9983 64.9562 47.6317 64.9562H33.7075C33.3409 64.9562 33.0435 65.2536 33.0435 65.6203C33.0435 65.9869 33.341 66.2843 33.7075 66.2843Z"/>
</mask>
<path d="M33.7075 66.2843H47.6317C47.9983 66.2843 48.2957 65.9869 48.2957 65.6203C48.2957 65.2536 47.9983 64.9562 47.6317 64.9562H33.7075C33.3409 64.9562 33.0435 65.2536 33.0435 65.6203C33.0435 65.9869 33.341 66.2843 33.7075 66.2843Z" fill="#7C7C7C"/>
<path d="M33.7075 68.2843H47.6317V64.2843H33.7075V68.2843ZM47.6317 68.2843C49.1029 68.2843 50.2957 67.0915 50.2957 65.6203H46.2957C46.2957 64.8823 46.8938 64.2843 47.6317 64.2843V68.2843ZM50.2957 65.6203C50.2957 64.149 49.1029 62.9562 47.6317 62.9562V66.9562C46.8938 66.9562 46.2957 66.3582 46.2957 65.6203H50.2957ZM47.6317 62.9562H33.7075V66.9562H47.6317V62.9562ZM33.7075 62.9562C32.2363 62.9562 31.0435 64.149 31.0435 65.6203H35.0435C35.0435 66.3582 34.4454 66.9562 33.7075 66.9562V62.9562ZM31.0435 65.6203C31.0435 67.0917 32.2366 68.2843 33.7075 68.2843V64.2843C34.4454 64.2843 35.0435 64.8822 35.0435 65.6203H31.0435Z" fill="#7C7C7C" mask="url(#path-4-inside-3_1920_15853)"/>
<mask id="path-6-inside-4_1920_15853" fill="white">
<path d="M75.6133 16.5143C75.2466 16.5143 74.9492 16.8117 74.9492 17.1783V25.128C74.9492 25.4947 75.2466 25.7921 75.6133 25.7921C75.9799 25.7921 76.2773 25.4947 76.2773 25.128V17.1783C76.2773 16.8117 75.9799 16.5143 75.6133 16.5143Z"/>
</mask>
<path d="M75.6133 16.5143C75.2466 16.5143 74.9492 16.8117 74.9492 17.1783V25.128C74.9492 25.4947 75.2466 25.7921 75.6133 25.7921C75.9799 25.7921 76.2773 25.4947 76.2773 25.128V17.1783C76.2773 16.8117 75.9799 16.5143 75.6133 16.5143Z" fill="#7C7C7C"/>
<path d="M75.6133 14.5143C74.1421 14.5143 72.9492 15.7071 72.9492 17.1783H76.9492C76.9492 17.9162 76.3512 18.5143 75.6133 18.5143V14.5143ZM72.9492 17.1783V25.128H76.9492V17.1783H72.9492ZM72.9492 25.128C72.9492 26.5993 74.1421 27.7921 75.6133 27.7921V23.7921C76.3512 23.7921 76.9492 24.3901 76.9492 25.128H72.9492ZM75.6133 27.7921C77.0845 27.7921 78.2773 26.5993 78.2773 25.128H74.2773C74.2773 24.3901 74.8754 23.7921 75.6133 23.7921V27.7921ZM78.2773 25.128V17.1783H74.2773V25.128H78.2773ZM78.2773 17.1783C78.2773 15.7071 77.0845 14.5143 75.6133 14.5143V18.5143C74.8754 18.5143 74.2773 17.9162 74.2773 17.1783H78.2773Z" fill="#7C7C7C" mask="url(#path-6-inside-4_1920_15853)"/>
<mask id="path-8-inside-5_1920_15853" fill="white">
<path d="M18.5146 27.6702C18.148 27.6702 17.8506 27.9676 17.8506 28.3342V39.625C17.8506 39.9917 18.148 40.2891 18.5146 40.2891C18.8813 40.2891 19.1787 39.9917 19.1787 39.625V28.3342C19.1787 27.9676 18.8813 27.6702 18.5146 27.6702Z"/>
</mask>
<path d="M18.5146 27.6702C18.148 27.6702 17.8506 27.9676 17.8506 28.3342V39.625C17.8506 39.9917 18.148 40.2891 18.5146 40.2891C18.8813 40.2891 19.1787 39.9917 19.1787 39.625V28.3342C19.1787 27.9676 18.8813 27.6702 18.5146 27.6702Z" fill="#7C7C7C"/>
<path d="M18.5146 25.6702C17.0434 25.6702 15.8506 26.863 15.8506 28.3342H19.8506C19.8506 29.0721 19.2526 29.6702 18.5146 29.6702V25.6702ZM15.8506 28.3342V39.625H19.8506V28.3342H15.8506ZM15.8506 39.625C15.8506 41.0963 17.0434 42.2891 18.5146 42.2891V38.2891C19.2526 38.2891 19.8506 38.8871 19.8506 39.625H15.8506ZM18.5146 42.2891C19.9859 42.2891 21.1787 41.0963 21.1787 39.625H17.1787C17.1787 38.8871 17.7767 38.2891 18.5146 38.2891V42.2891ZM21.1787 39.625V28.3342H17.1787V39.625H21.1787ZM21.1787 28.3342C21.1787 26.863 19.9859 25.6702 18.5146 25.6702V29.6702C17.7767 29.6702 17.1787 29.0721 17.1787 28.3342H21.1787Z" fill="#7C7C7C" mask="url(#path-8-inside-5_1920_15853)"/>
<mask id="path-10-inside-6_1920_15853" fill="white">
<path d="M18.5146 41.9379C18.148 41.9379 17.8506 42.2354 17.8506 42.602V50.3953C17.8506 50.7619 18.148 51.0593 18.5146 51.0593C18.8813 51.0593 19.1787 50.7619 19.1787 50.3953V42.602C19.1787 42.2354 18.8813 41.9379 18.5146 41.9379Z"/>
</mask>
<path d="M18.5146 41.9379C18.148 41.9379 17.8506 42.2354 17.8506 42.602V50.3953C17.8506 50.7619 18.148 51.0593 18.5146 51.0593C18.8813 51.0593 19.1787 50.7619 19.1787 50.3953V42.602C19.1787 42.2354 18.8813 41.9379 18.5146 41.9379Z" fill="#7C7C7C"/>
<path d="M18.5146 39.9379C17.0434 39.9379 15.8506 41.1308 15.8506 42.602H19.8506C19.8506 43.3399 19.2526 43.9379 18.5146 43.9379V39.9379ZM15.8506 42.602V50.3953H19.8506V42.602H15.8506ZM15.8506 50.3953C15.8506 51.8665 17.0434 53.0593 18.5146 53.0593V49.0593C19.2526 49.0593 19.8506 49.6573 19.8506 50.3953H15.8506ZM18.5146 53.0593C19.9859 53.0593 21.1787 51.8665 21.1787 50.3953H17.1787C17.1787 49.6573 17.7767 49.0593 18.5146 49.0593V53.0593ZM21.1787 50.3953V42.602H17.1787V50.3953H21.1787ZM21.1787 42.602C21.1787 41.131 19.986 39.9379 18.5146 39.9379V43.9379C17.7766 43.9379 17.1787 43.3398 17.1787 42.602H21.1787Z" fill="#7C7C7C" mask="url(#path-10-inside-6_1920_15853)"/>
<mask id="path-12-inside-7_1920_15853" fill="white">
<path d="M45.8445 37.2532C45.8445 35.0353 44.9807 32.9497 43.4122 31.3813C40.1749 28.144 34.9065 28.144 31.6692 31.3813C28.4319 34.6194 28.4319 39.887 31.6692 43.1243C33.2377 44.6928 35.3228 45.5566 37.5406 45.5566C39.7584 45.5566 41.8437 44.6928 43.4121 43.1243C44.9805 41.5558 45.8445 39.4711 45.8445 37.2532ZM37.5407 44.2284C35.6773 44.2284 33.926 43.503 32.6082 42.1852C29.8888 39.4659 29.8888 35.0405 32.6082 32.3203C33.9683 30.961 35.7543 30.2805 37.5407 30.2805C39.3271 30.2805 41.1131 30.9611 42.4732 32.3203C43.7905 33.638 44.5164 35.3898 44.5164 37.2532C44.5164 39.1166 43.7905 40.8675 42.4732 42.1852C41.1554 43.503 39.4041 44.2284 37.5407 44.2284Z"/>
</mask>
<path d="M45.8445 37.2532C45.8445 35.0353 44.9807 32.9497 43.4122 31.3813C40.1749 28.144 34.9065 28.144 31.6692 31.3813C28.4319 34.6194 28.4319 39.887 31.6692 43.1243C33.2377 44.6928 35.3228 45.5566 37.5406 45.5566C39.7584 45.5566 41.8437 44.6928 43.4121 43.1243C44.9805 41.5558 45.8445 39.4711 45.8445 37.2532ZM37.5407 44.2284C35.6773 44.2284 33.926 43.503 32.6082 42.1852C29.8888 39.4659 29.8888 35.0405 32.6082 32.3203C33.9683 30.961 35.7543 30.2805 37.5407 30.2805C39.3271 30.2805 41.1131 30.9611 42.4732 32.3203C43.7905 33.638 44.5164 35.3898 44.5164 37.2532C44.5164 39.1166 43.7905 40.8675 42.4732 42.1852C41.1554 43.503 39.4041 44.2284 37.5407 44.2284Z" fill="#7C7C7C"/>
<path d="M43.4122 31.3813L41.998 32.7955L41.998 32.7955L43.4122 31.3813ZM31.6692 31.3813L30.255 29.9671L30.2547 29.9673L31.6692 31.3813ZM31.6692 43.1243L30.2549 44.5385L30.2549 44.5385L31.6692 43.1243ZM32.6082 32.3203L31.1944 30.9056L31.1938 30.9063L32.6082 32.3203ZM42.4732 32.3203L43.8876 30.9063L43.8869 30.9056L42.4732 32.3203ZM42.4732 42.1852L43.8874 43.5994L43.8876 43.5992L42.4732 42.1852ZM47.8445 37.2532C47.8445 34.5049 46.77 31.9106 44.8263 29.967L41.998 32.7955C43.1914 33.9889 43.8445 35.5657 43.8445 37.2532H47.8445ZM44.8264 29.9671C40.8081 25.9488 34.2733 25.9488 30.255 29.9671L33.0834 32.7955C35.5397 30.3393 39.5418 30.3393 41.998 32.7955L44.8264 29.9671ZM30.2547 29.9673C26.2368 33.9863 26.2365 40.52 30.2549 44.5385L33.0834 41.7101C30.6272 39.2539 30.627 35.2525 33.0836 32.7953L30.2547 29.9673ZM30.2549 44.5385C32.1984 46.482 34.7923 47.5566 37.5406 47.5566V43.5566C35.8534 43.5566 34.2769 42.9036 33.0834 41.7101L30.2549 44.5385ZM37.5406 47.5566C40.2889 47.5566 42.8829 46.482 44.8263 44.5385L41.9978 41.7101C40.8044 42.9036 39.2279 43.5566 37.5406 43.5566V47.5566ZM44.8263 44.5385C46.7696 42.5951 47.8445 40.0018 47.8445 37.2532H43.8445C43.8445 38.9403 43.1915 40.5164 41.9978 41.7101L44.8263 44.5385ZM37.5407 42.2284C36.2078 42.2284 34.9652 41.7137 34.0224 40.771L31.194 43.5994C32.8868 45.2923 35.1469 46.2284 37.5407 46.2284V42.2284ZM34.0224 40.771C32.0842 38.8328 32.0839 35.6737 34.0227 33.7343L31.1938 30.9063C27.6938 34.4074 27.6935 40.0989 31.194 43.5994L34.0224 40.771ZM34.022 33.7349C34.9912 32.7663 36.2617 32.2805 37.5407 32.2805V28.2805C35.2469 28.2805 32.9454 29.1557 31.1944 30.9056L34.022 33.7349ZM37.5407 32.2805C38.8197 32.2805 40.0902 32.7663 41.0594 33.7349L43.8869 30.9056C42.136 29.1558 39.8346 28.2805 37.5407 28.2805V32.2805ZM41.0587 33.7342C42.0013 34.6772 42.5164 35.9205 42.5164 37.2532H46.5164C46.5164 34.8592 45.5797 32.5989 43.8876 30.9063L41.0587 33.7342ZM42.5164 37.2532C42.5164 38.5857 42.0015 39.8281 41.0587 40.7713L43.8876 43.5992C45.5795 41.9068 46.5164 39.6474 46.5164 37.2532H42.5164ZM41.059 40.771C40.1163 41.7137 38.8736 42.2284 37.5407 42.2284V46.2284C39.9345 46.2284 42.1946 45.2923 43.8874 43.5994L41.059 40.771Z" fill="#7C7C7C" mask="url(#path-12-inside-7_1920_15853)"/>
<path d="M57.2108 54.581C57.2108 54.581 57.2109 54.581 57.2109 54.5811L57.2108 54.581ZM45.4833 29.3061C41.1029 24.9257 33.9747 24.9257 29.5943 29.3061L47.1264 43.0825C49.8114 38.6946 49.1646 32.9869 45.4833 29.3061Z" fill="#7C7C7C" stroke="#7C7C7C" stroke-width="2"/>
</svg>
