<svg width="664" height="382" viewBox="0 0 664 382" fill="none" xmlns="http://www.w3.org/2000/svg">
    <path d="M1.61914 328.963H663.14" stroke="#D8DBDE" stroke-width="1.61741" stroke-linecap="round"
        stroke-linejoin="round" />
    <path
        d="M526.773 178.942H516.921C515.542 178.942 514.296 178.111 513.789 176.836C513.657 176.512 513.525 176.178 513.383 175.854C512.846 174.598 513.15 173.14 514.113 172.178L521.37 164.929C522.698 163.602 522.698 161.456 521.37 160.14L507.484 146.268C506.156 144.942 504.008 144.942 502.69 146.268L495.554 153.396C494.551 154.399 493.051 154.632 491.743 154.075C491.541 153.994 491.348 153.903 491.145 153.822C489.838 153.285 488.956 152.07 488.956 150.663V140.173C488.956 138.3 487.436 136.781 485.561 136.781H465.928C464.052 136.781 462.532 138.3 462.532 140.173V150.652C462.532 152.06 461.64 153.285 460.343 153.811C460.231 153.852 460.12 153.903 460.018 153.943C458.721 154.49 457.221 154.257 456.228 153.255L448.514 145.549C447.187 144.223 445.038 144.223 443.72 145.549L429.834 159.421C428.506 160.747 428.506 162.894 429.834 164.21L437.497 171.864C438.5 172.867 438.733 174.365 438.186 175.671C438.176 175.702 438.156 175.732 438.145 175.762C437.608 177.048 436.382 177.929 434.983 177.929H423.732C421.857 177.929 420.337 179.448 420.337 181.321V200.933C420.337 202.806 421.857 204.325 423.732 204.325H434.649C436.068 204.325 437.304 205.226 437.831 206.542C437.831 206.553 437.841 206.573 437.852 206.583C438.379 207.879 438.125 209.347 437.142 210.329L429.135 218.328C427.807 219.654 427.807 221.801 429.135 223.117L443.021 236.988C444.349 238.315 446.497 238.315 447.815 236.988L455.376 229.435C456.39 228.422 457.91 228.2 459.228 228.767C459.289 228.797 459.349 228.817 459.42 228.848C460.687 229.394 461.549 230.609 461.549 231.986V243.073C461.549 244.946 463.069 246.465 464.944 246.465H484.577C486.453 246.465 487.973 244.946 487.973 243.073V232.807C487.973 231.419 488.814 230.164 490.112 229.668C490.345 229.577 490.568 229.486 490.791 229.395C492.047 228.878 493.487 229.182 494.44 230.144L501.991 237.687C503.318 239.013 505.467 239.013 506.785 237.687L520.671 223.816C521.999 222.489 521.999 220.343 520.671 219.026L513.637 212C512.653 211.018 512.36 209.529 512.927 208.264C513.059 207.96 513.191 207.656 513.322 207.352C513.839 206.107 515.076 205.307 516.434 205.307H526.773C528.648 205.307 530.168 203.788 530.168 201.915V182.303C530.168 180.43 528.648 178.911 526.773 178.911V178.942ZM475.253 211.24C464.417 211.24 455.63 202.462 455.63 191.638C455.63 180.815 464.417 172.036 475.253 172.036C486.088 172.036 494.875 180.815 494.875 191.638C494.875 202.462 486.088 211.24 475.253 211.24Z"
        fill="#D8DBDE" />
    <path
        d="M463.808 105.455H200.947C194.011 105.455 188.389 111.072 188.389 118V294.327C188.389 301.255 194.011 306.871 200.947 306.871H463.808C470.744 306.871 476.366 301.255 476.366 294.327V118C476.366 111.072 470.744 105.455 463.808 105.455Z"
        fill="#0E0F2D" />
    <g style="mix-blend-mode:multiply">
        <path
            d="M188.488 295.836C189.238 302.053 194.529 306.872 200.945 306.872H463.806C470.232 306.872 475.512 302.053 476.263 295.836H188.488Z"
            fill="#E5E5E5" />
    </g>
    <path
        d="M453.561 115.701H211.215C204.279 115.701 198.657 121.318 198.657 128.246V279.858C198.657 286.786 204.279 292.402 211.215 292.402H453.561C460.497 292.402 466.119 286.786 466.119 279.858V128.246C466.119 121.318 460.497 115.701 453.561 115.701Z"
        fill="#FF662A" />
    <path
        d="M276.042 220.789V179.464H290.704C303.554 179.464 312.215 188.409 312.215 200.127C312.215 211.901 303.158 220.789 290.873 220.789H276.042ZM290.251 188.635H285.892V211.562H290.421C297.667 211.562 302.252 206.524 302.252 200.127C302.252 193.617 298.006 188.635 290.251 188.635ZM323.109 220.789V179.464H351.64V188.635H332.959V195.428H351.64V204.599H332.959V211.618H351.64V220.789H323.109ZM375.781 220.789L360.497 179.464H370.8L380.536 207.373L390.33 179.464H400.576L385.292 220.789H375.781Z"
        fill="white" />
    <path
        d="M359.184 236.139H245.913C244.831 236.139 243.954 237.016 243.954 238.098C243.954 239.18 244.831 240.057 245.913 240.057H359.184C360.266 240.057 361.143 239.18 361.143 238.098C361.143 237.016 360.266 236.139 359.184 236.139Z"
        fill="#4D4B4B" />
    <path
        d="M386.491 236.139H367.31C366.228 236.139 365.351 237.016 365.351 238.098C365.351 239.18 366.228 240.057 367.31 240.057H386.491C387.573 240.057 388.45 239.18 388.45 238.098C388.45 237.016 387.573 236.139 386.491 236.139Z"
        fill="#4D4B4B" />
    <path
        d="M412.284 236.139H393.103C392.021 236.139 391.144 237.016 391.144 238.098C391.144 239.18 392.021 240.057 393.103 240.057H412.284C413.366 240.057 414.243 239.18 414.243 238.098C414.243 237.016 413.366 236.139 412.284 236.139Z"
        fill="white" />
    <path
        d="M386.491 251.072H367.31C366.228 251.072 365.351 251.949 365.351 253.031C365.351 254.113 366.228 254.991 367.31 254.991H386.491C387.573 254.991 388.45 254.113 388.45 253.031C388.45 251.949 387.573 251.072 386.491 251.072Z"
        fill="#4D4B4B" />
    <path
        d="M386.489 258.727H315.869C314.787 258.727 313.91 259.604 313.91 260.686C313.91 261.768 314.787 262.645 315.869 262.645H386.489C387.571 262.645 388.448 261.768 388.448 260.686C388.448 259.604 387.571 258.727 386.489 258.727Z"
        fill="#4D4B4B" />
    <path
        d="M412.284 251.072H393.103C392.021 251.072 391.144 251.949 391.144 253.031C391.144 254.113 392.021 254.991 393.103 254.991H412.284C413.366 254.991 414.243 254.113 414.243 253.031C414.243 251.949 413.366 251.072 412.284 251.072Z"
        fill="white" />
    <path
        d="M386.49 243.611H273.219C272.137 243.611 271.26 244.488 271.26 245.571C271.26 246.653 272.137 247.53 273.219 247.53H386.49C387.572 247.53 388.45 246.653 388.45 245.571C388.45 244.488 387.572 243.611 386.49 243.611Z"
        fill="white" />
    <path
        d="M412.104 243.611H392.923C391.841 243.611 390.964 244.488 390.964 245.571C390.964 246.653 391.841 247.53 392.923 247.53H412.104C413.186 247.53 414.063 246.653 414.063 245.571C414.063 244.488 413.186 243.611 412.104 243.611Z"
        fill="#4D4B4B" />
    <path
        d="M412.104 258.727H392.923C391.841 258.727 390.964 259.604 390.964 260.686C390.964 261.768 391.841 262.645 392.923 262.645H412.104C413.186 262.645 414.063 261.768 414.063 260.686C414.063 259.604 413.186 258.727 412.104 258.727Z"
        fill="#4D4B4B" />
    <path
        d="M219.792 135.547C222.243 135.547 224.231 133.562 224.231 131.112C224.231 128.663 222.243 126.678 219.792 126.678C217.34 126.678 215.352 128.663 215.352 131.112C215.352 133.562 217.34 135.547 219.792 135.547Z"
        fill="white" />
    <path
        d="M234.588 135.547C237.04 135.547 239.028 133.562 239.028 131.112C239.028 128.663 237.04 126.678 234.588 126.678C232.137 126.678 230.149 128.663 230.149 131.112C230.149 133.562 232.137 135.547 234.588 135.547Z"
        fill="white" />
    <path
        d="M249.388 135.547C251.84 135.547 253.828 133.562 253.828 131.112C253.828 128.663 251.84 126.678 249.388 126.678C246.936 126.678 244.949 128.663 244.949 131.112C244.949 133.562 246.936 135.547 249.388 135.547Z"
        fill="white" />
    <path d="M206.715 140.965H454.879" stroke="white" stroke-width="0.784444" stroke-miterlimit="10" />
    <path
        d="M488.737 328.833H176.038C168.821 328.833 162.365 324.348 159.861 317.584L154.165 302.225H510.599L504.903 317.584C502.4 324.348 495.943 328.833 488.726 328.833H488.737Z"
        fill="#D8DBDE" />
    <g style="mix-blend-mode:multiply">
        <path
            d="M159.445 316.471L159.86 317.584C162.364 324.348 168.82 328.833 176.037 328.833H488.726C495.942 328.833 502.399 324.348 504.902 317.584L505.318 316.471H159.445Z"
            fill="#E5E5E5" />
    </g>
    <path
        d="M200.857 192.844H145.931C133.375 192.844 123.196 203.012 123.196 215.554V244.4C123.196 256.943 133.375 267.111 145.931 267.111H200.857C213.412 267.111 223.591 256.943 223.591 244.4V215.554C223.591 203.012 213.412 192.844 200.857 192.844Z"
        fill="white" stroke="#D8DBDE" stroke-width="2.32907" stroke-miterlimit="10" />
    <path d="M197.584 230.772L157.01 209.469V252.591L197.584 230.772Z" fill="#FF662A" />
    <path d="M65.6382 123.751L56.9741 123.131L44.8074 292.684L53.4716 293.305L65.6382 123.751Z"
        fill="#D8DBDE" />
    <path d="M189.614 15.1895H153.308V20.4646H189.614V15.1895Z" fill="#D8DBDE" />
    <path d="M66.8405 123.284L164.215 8.41591L157.86 3.57617L56.3804 123.284H66.8405Z"
        fill="#D8DBDE" />
    <path d="M58.8212 288.412H40.5869V312.054H58.8212V288.412Z" fill="#0E0F2D" />
    <g style="mix-blend-mode:multiply">
        <path d="M58.8197 299.924H40.5854V312.064H58.8197V299.924Z" fill="#E5E5E5" />
    </g>
    <path
        d="M103.997 306.465H39.2291C35.2099 306.465 31.9517 309.72 31.9517 313.735V321.561C31.9517 325.576 35.2099 328.831 39.2291 328.831H103.997C108.016 328.831 111.274 325.576 111.274 321.561V313.735C111.274 309.72 108.016 306.465 103.997 306.465Z"
        fill="#0E0F2D" />
    <g style="mix-blend-mode:multiply">
        <path
            d="M31.9502 319.092V321.572C31.9502 325.592 35.2038 328.842 39.2277 328.842H103.995C108.019 328.842 111.273 325.592 111.273 321.572V319.092H31.9502Z"
            fill="#E5E5E5" />
    </g>
    <path
        d="M180.166 0.8125H197.123C202.332 0.8125 206.559 5.03462 206.559 10.2389V39.1558H170.739V10.2389C170.739 5.03462 174.966 0.8125 180.176 0.8125H180.166Z"
        fill="#FF662A" />
    <g style="mix-blend-mode:multiply">
        <path d="M206.549 23.8164H170.729V39.1558H206.549V23.8164Z" fill="#E5E5E5" />
    </g>
    <path
        d="M190.092 28.2812C212.248 28.2812 230.229 46.2531 230.229 68.3762V83.8775H149.944V68.3762C149.944 46.243 167.935 28.2812 190.081 28.2812H190.092Z"
        fill="#FF662A" />
    <g style="mix-blend-mode:multiply">
        <path d="M230.228 71.0996H149.942V83.8774H230.228V71.0996Z" fill="#E5E5E5" />
    </g>
    <path d="M236.148 75.252H144.024V88.3537H236.148V75.252Z" fill="#0E0F2D" />
    <path
        d="M62.4085 132.467C68.6165 132.467 73.6491 127.44 73.6491 121.238C73.6491 115.037 68.6165 110.01 62.4085 110.01C56.2005 110.01 51.168 115.037 51.168 121.238C51.168 127.44 56.2005 132.467 62.4085 132.467Z"
        fill="#0E0F2D" />
    <path
        d="M220.104 346.842C223.479 347.865 225.019 349.991 225.019 355.053V366.778C225.019 370.221 226.783 372.205 230.371 372.205H231.689V381.146H227.432C218.259 381.146 213.566 376.458 213.566 368.024V354.76C213.566 352.411 212.319 351.317 210.343 351.317H207.92V342.377H210.343C212.319 342.377 213.566 341.273 213.566 338.935V325.671C213.566 317.237 218.259 312.549 227.432 312.549H231.689V321.489H230.371C226.773 321.489 225.019 323.464 225.019 326.916V338.641C225.019 343.693 223.479 345.82 220.104 346.852V346.842Z"
        fill="#FF662A" />
    <path
        d="M230.898 360.33C230.898 356.077 234.051 353.293 238.014 353.293C241.977 353.293 245.129 356.077 245.129 360.33C245.129 364.582 241.977 367.508 238.014 367.508C234.051 367.508 230.898 364.501 230.898 360.33ZM250.491 360.33C250.491 356.077 253.643 353.293 257.606 353.293C261.569 353.293 264.721 356.077 264.721 360.33C264.721 364.582 261.569 367.508 257.606 367.508C253.643 367.508 250.491 364.501 250.491 360.33ZM270.154 360.33C270.154 356.077 273.306 353.293 277.27 353.293C281.233 353.293 284.385 356.077 284.385 360.33C284.385 364.582 281.233 367.508 277.27 367.508C273.306 367.508 270.154 364.501 270.154 360.33Z"
        fill="#FF662A" />
    <path
        d="M307.422 342.368V351.308H305C303.023 351.308 301.777 352.412 301.777 354.75V368.014C301.777 376.438 297.084 381.136 287.911 381.136H283.654V372.196H284.971C288.57 372.196 290.323 370.221 290.323 366.769V355.044C290.323 349.982 291.864 347.865 295.239 346.833C291.864 345.81 290.323 343.684 290.323 338.621V326.897C290.323 323.454 288.56 321.47 284.971 321.47H283.654V312.529H287.911C297.084 312.529 301.777 317.217 301.777 325.651V338.915C301.777 341.264 303.023 342.358 305 342.358H307.422V342.368Z"
        fill="#FF662A" />
    <path d="M498.899 262.371H417.559V376.956H498.899V262.371Z" fill="white" stroke="#D8DBDE"
        stroke-width="2.32907" stroke-miterlimit="10" />
    <path
        d="M486.934 277.094H429.319C428.5 277.094 427.835 277.758 427.835 278.577C427.835 279.396 428.5 280.06 429.319 280.06H486.934C487.753 280.06 488.417 279.396 488.417 278.577C488.417 277.758 487.753 277.094 486.934 277.094Z"
        fill="#FF662A" />
    <path
        d="M466.601 282.641H429.319C428.5 282.641 427.835 283.305 427.835 284.124C427.835 284.943 428.5 285.607 429.319 285.607H466.601C467.42 285.607 468.085 284.943 468.085 284.124C468.085 283.305 467.42 282.641 466.601 282.641Z"
        fill="#FF662A" />
    <path
        d="M478.987 288.25H429.319C428.5 288.25 427.835 288.914 427.835 289.733C427.835 290.553 428.5 291.217 429.319 291.217H478.987C479.806 291.217 480.47 290.553 480.47 289.733C480.47 288.914 479.806 288.25 478.987 288.25Z"
        fill="#FF662A" />
    <path
        d="M475.288 293.758H429.319C428.5 293.758 427.835 294.422 427.835 295.241C427.835 296.06 428.5 296.724 429.319 296.724H475.288C476.107 296.724 476.771 296.06 476.771 295.241C476.771 294.422 476.107 293.758 475.288 293.758Z"
        fill="#FF662A" />
    <path
        d="M475.288 341.68H429.319C428.5 341.68 427.835 342.344 427.835 343.163C427.835 343.982 428.5 344.646 429.319 344.646H475.288C476.107 344.646 476.771 343.982 476.771 343.163C476.771 342.344 476.107 341.68 475.288 341.68Z"
        fill="#FF662A" />
    <path
        d="M461.898 347.422H429.319C428.5 347.422 427.835 348.086 427.835 348.905C427.835 349.724 428.5 350.388 429.319 350.388H461.898C462.717 350.388 463.382 349.724 463.382 348.905C463.382 348.086 462.717 347.422 461.898 347.422Z"
        fill="#FF662A" />
    <path
        d="M466.713 353.324H429.319C428.5 353.324 427.835 353.988 427.835 354.808C427.835 355.627 428.5 356.291 429.319 356.291H466.713C467.532 356.291 468.196 355.627 468.196 354.808C468.196 353.988 467.532 353.324 466.713 353.324Z"
        fill="#FF662A" />
    <path
        d="M451.395 1.56055H293.46C289.009 1.56055 285.402 5.16437 285.402 9.60991V22.1953C285.402 26.6408 289.009 30.2446 293.46 30.2446H451.395C455.846 30.2446 459.453 26.6408 459.453 22.1953V9.60991C459.453 5.16437 455.846 1.56055 451.395 1.56055Z"
        fill="white" stroke="#D8DBDE" stroke-width="1.61741" stroke-miterlimit="10" />
    <path
        d="M451.404 1.56091H408.195C403.34 1.56091 399.397 5.49953 399.397 10.3494V21.4565C399.397 26.3064 403.34 30.245 408.195 30.245H451.404C455.854 30.245 459.462 26.6405 459.462 22.1956V9.60014C459.462 5.15527 455.854 1.55078 451.404 1.55078V1.56091Z"
        fill="#FF662A" />
    <path
        d="M451.395 37.332H293.46C289.009 37.332 285.402 40.9359 285.402 45.3814V57.9667C285.402 62.4123 289.009 66.0161 293.46 66.0161H451.395C455.846 66.0161 459.453 62.4123 459.453 57.9667V45.3814C459.453 40.9359 455.846 37.332 451.395 37.332Z"
        fill="white" stroke="#D8DBDE" stroke-width="1.61741" stroke-miterlimit="10" />
    <path
        d="M451.404 37.3324H408.195C403.34 37.3324 399.397 41.271 399.397 46.1209V57.228C399.397 62.0779 403.34 66.0165 408.195 66.0165H451.404C455.854 66.0165 459.462 62.412 459.462 57.9671V45.3716C459.462 40.9268 455.854 37.3223 451.404 37.3223V37.3324Z"
        fill="#0E0F2D" />
    <path
        d="M552.081 93.2226C558.246 56.1022 533.12 21.0178 495.96 14.8593C458.8 8.70073 423.678 33.8002 417.513 70.9205C411.348 108.041 436.474 143.125 473.634 149.284C510.794 155.442 545.916 130.343 552.081 93.2226Z"
        fill="white" stroke="#D8DBDE" stroke-width="2.32907" stroke-miterlimit="10" />
    <path
        d="M445.11 83.3611L457.546 66.0879H469.902L457.81 83.3611L469.902 100.553H457.546L445.11 83.3611Z"
        fill="#FF662A" />
    <path d="M493.904 39.2871H506.169L477.048 122.312H464.784L493.904 39.2871Z" fill="#FF662A" />
    <path
        d="M499.732 100.553L511.824 83.3611L499.732 66.0879H512.088L524.525 83.3611L512.088 100.553H499.732Z"
        fill="#FF662A" />
    <path
        d="M626.652 140.029H571.919C562.128 140.029 554.181 147.967 554.181 157.748V164.836C554.181 174.616 562.117 182.554 571.919 182.554H596.123L608.752 205.163L622.648 182.554H626.652C636.453 182.554 644.389 174.616 644.389 164.836V157.748C644.389 147.967 636.453 140.029 626.652 140.029Z"
        fill="#FF662A" />
    <path
        d="M573.469 161.515C573.469 157.263 576.621 154.479 580.585 154.479C584.548 154.479 587.7 157.263 587.7 161.515C587.7 165.768 584.548 168.694 580.585 168.694C576.621 168.694 573.469 165.687 573.469 161.515Z"
        fill="white" />
    <path
        d="M592.686 161.515C592.686 157.263 595.838 154.479 599.801 154.479C603.764 154.479 606.916 157.263 606.916 161.515C606.916 165.768 603.764 168.694 599.801 168.694C595.838 168.694 592.686 165.687 592.686 161.515Z"
        fill="white" />
    <path
        d="M611.915 161.515C611.915 157.263 615.067 154.479 619.03 154.479C622.993 154.479 626.145 157.263 626.145 161.515C626.145 165.768 622.993 168.694 619.03 168.694C615.067 168.694 611.915 165.687 611.915 161.515Z"
        fill="white" />
    <path d="M627.402 220.613H571.169V239.01H627.402V220.613Z" fill="#D8DBDE" />
    <g style="mix-blend-mode:multiply">
        <path d="M627.402 226.598H571.169V239.001H627.402V226.598Z" fill="#E5E5E5" />
    </g>
    <path d="M620.266 328.829H576.591L568.888 239.436H629.693L620.266 328.829Z" fill="#FF662A" />
    <g style="mix-blend-mode:multiply">
        <path d="M629.694 239.436H568.889L570.876 253.762H627.261L629.694 239.436Z" fill="#E5E5E5" />
    </g>
    <path d="M638.469 228.957H560.109V247.354H638.469V228.957Z" fill="#0E0F2D" />
    <path
        d="M612.164 296.554C618.42 289.451 617.727 278.626 610.616 272.376C603.504 266.127 592.668 266.819 586.412 273.923C580.156 281.026 580.849 291.851 587.96 298.101C595.071 304.35 605.908 303.658 612.164 296.554Z"
        fill="white" />
</svg>
    