<svg width="84" height="84" viewBox="0 0 84 84" fill="none" xmlns="http://www.w3.org/2000/svg">
<path d="M68.3851 68.3854H15.6143V15.6146H68.5622V68.3854H68.3851ZM19.1559 64.8438H65.0205V19.1562H19.1559V64.8438Z" fill="#7C7C7C"/>
<path d="M59 59H25V25H58.8229V59H59ZM28.5417 55.4583H55.2812V28.5417H28.5417V55.4583Z" fill="#7C7C7C"/>
<path d="M31.3747 17.3854H27.833V3.92708H22.5205V0.385414H31.3747V17.3854Z" fill="#7C7C7C"/>
<path d="M40.229 2.15625H43.7707V17.3854H40.229V2.15625Z" fill="#7C7C7C"/>
<path d="M56.1667 17.3854H52.625V0.385414H61.4792V3.92708H56.1667V17.3854Z" fill="#7C7C7C"/>
<path d="M31.3747 83.6146H22.5205V80.0729H27.833V66.6146H31.3747V83.6146Z" fill="#7C7C7C"/>
<path d="M40.229 66.6146H43.7707V81.8438H40.229V66.6146Z" fill="#7C7C7C"/>
<path d="M61.4792 83.6146H52.625V66.6146H56.1667V80.0729H61.4792V83.6146Z" fill="#7C7C7C"/>
<path d="M83.6143 61.4792H80.0726V56.1667H66.6143V52.625H83.6143V61.4792Z" fill="#7C7C7C"/>
<path d="M66.6143 40.2292H81.8434V43.7708H66.6143V40.2292Z" fill="#7C7C7C"/>
<path d="M83.6143 31.375H66.6143V27.8333H80.0726V22.5208H83.6143V31.375Z" fill="#7C7C7C"/>
<path d="M3.92692 61.4792H0.385254V52.625H17.3853V56.1667H3.92692V61.4792Z" fill="#7C7C7C"/>
<path d="M2.15625 40.2292H17.3854V43.7708H2.15625V40.2292Z" fill="#7C7C7C"/>
<path d="M17.3853 31.375H0.385254V22.5208H3.92692V27.8333H17.3853V31.375Z" fill="#7C7C7C"/>
</svg>
