<svg width="73" height="73" viewBox="0 0 73 73" fill="none" xmlns="http://www.w3.org/2000/svg">
<path d="M51.7087 40.9293C51.5613 40.9295 51.4157 40.8956 51.2831 40.8303C51.1504 40.765 51.0341 40.67 50.943 40.5525L35.7354 20.951C35.5772 20.7456 35.5056 20.485 35.5362 20.2263C35.5669 19.9675 35.6972 19.7315 35.8989 19.5699L47.6816 10.1786C47.782 10.0984 47.897 10.0392 48.0201 10.0041C48.1431 9.96904 48.2717 9.95889 48.3986 9.97424C48.5255 9.98958 48.6482 10.0301 48.7596 10.0935C48.8711 10.1569 48.9691 10.242 49.0481 10.3438C49.1272 10.4456 49.1856 10.5622 49.2202 10.687C49.2548 10.8117 49.2648 10.9421 49.2497 11.0708C49.2345 11.1994 49.1946 11.3238 49.132 11.4368C49.0695 11.5498 48.9856 11.6492 48.8852 11.7293L37.8624 20.5071L51.8732 38.5578L64.2805 28.6614C65.4499 27.7293 66.4266 26.5726 67.1549 25.2575C67.8831 23.9424 68.3485 22.4947 68.5245 20.9971C68.7006 19.4995 68.5837 17.9815 68.1807 16.5297C67.7777 15.0779 67.0965 13.7209 66.1759 12.5363C65.5877 11.7722 64.9045 11.0885 64.1433 10.5021C64.0372 10.4255 63.9472 10.3281 63.8789 10.2156C63.8106 10.1031 63.7653 9.97779 63.7456 9.84717C63.7259 9.71656 63.7324 9.58327 63.7645 9.45522C63.7966 9.32718 63.8538 9.20697 63.9326 9.10175C64.0114 8.99653 64.1103 8.90843 64.2233 8.84269C64.3363 8.77694 64.4612 8.73489 64.5906 8.71902C64.72 8.70316 64.8512 8.7138 64.9764 8.75033C65.1016 8.78685 65.2184 8.84851 65.3197 8.93165C66.2147 9.61935 67.0176 10.4222 67.7083 11.3199C68.786 12.7086 69.5832 14.2989 70.0544 16.0001C70.5256 17.7012 70.6616 19.4799 70.4546 21.2343C70.2476 22.9888 69.7017 24.6847 68.848 26.2251C67.9943 27.7656 66.8495 29.1204 65.4792 30.2121L52.3052 40.7182C52.135 40.8539 51.9252 40.9282 51.7087 40.9293Z" fill="#7C7C7C"/>
<path d="M55.0925 8.35554C54.8502 8.35491 54.6169 8.26263 54.4381 8.09676C54.2594 7.9309 54.1481 7.70338 54.1261 7.45873C54.1041 7.21408 54.1729 6.96989 54.319 6.77396C54.4652 6.57803 54.6782 6.44444 54.9164 6.39934C55.9243 6.20988 56.9508 6.14167 57.9745 6.19612C58.1022 6.2026 58.2275 6.23453 58.3431 6.29009C58.4587 6.34565 58.5624 6.42375 58.6482 6.51993C58.7341 6.61612 58.8004 6.7285 58.8434 6.85067C58.8863 6.97283 58.9052 7.10239 58.8988 7.23193C58.8924 7.36148 58.8609 7.48848 58.8061 7.60569C58.7513 7.7229 58.6743 7.82801 58.5794 7.91504C58.4846 8.00206 58.3737 8.06929 58.2532 8.11288C58.1327 8.15647 58.005 8.17557 57.8772 8.16909C57.0059 8.12331 56.1323 8.18159 55.2745 8.34272C55.2143 8.35249 55.1534 8.35678 55.0925 8.35554Z" fill="#7C7C7C"/>
<path d="M21.2946 40.9293C21.0768 40.9291 20.8654 40.8547 20.6943 40.7182L7.51536 30.2082C4.75294 27.9996 2.96725 24.7704 2.54992 21.2287C2.13259 17.6871 3.1177 14.1222 5.28919 11.316C6.3658 9.92632 7.70204 8.76546 9.22149 7.89981C10.7409 7.03415 12.4138 6.48068 14.1444 6.27105C15.875 6.06143 17.6294 6.19975 19.3072 6.67812C20.985 7.15648 22.5534 7.9655 23.9226 9.05891L37.1015 19.5689C37.2021 19.649 37.2861 19.7484 37.3487 19.8614C37.4114 19.9744 37.4514 20.0989 37.4666 20.2276C37.4818 20.3563 37.4718 20.4868 37.4372 20.6116C37.4026 20.7364 37.3441 20.8531 37.265 20.955L22.0603 40.5525C21.9692 40.67 21.8529 40.765 21.7203 40.8303C21.5876 40.8956 21.4421 40.9295 21.2946 40.9293ZM15.738 8.1474C15.2827 8.14763 14.8278 8.1753 14.3758 8.23027C12.8981 8.40576 11.4695 8.8766 10.1725 9.61556C8.87552 10.3545 7.73593 11.3469 6.81968 12.5353C4.96626 14.9296 4.12523 17.9716 4.4811 20.9938C4.83697 24.0161 6.36068 26.7718 8.71795 28.6565L21.1321 38.5568L35.1381 20.5101L22.72 10.6097C20.7327 9.01477 18.2724 8.14713 15.738 8.1474Z" fill="#7C7C7C"/>
<path d="M13.5604 28.8054C13.3426 28.8051 13.1312 28.7308 12.9601 28.5943L10.2503 26.4378C9.8993 26.1543 9.57072 25.8432 9.26765 25.5076C9.1807 25.4126 9.11306 25.3011 9.06859 25.1796C9.02413 25.058 9.00371 24.9288 9.0085 24.7993C9.01328 24.6698 9.04319 24.5425 9.0965 24.4247C9.14982 24.3069 9.22549 24.2008 9.31921 24.1127C9.41294 24.0245 9.52286 23.956 9.64273 23.9109C9.76259 23.8658 9.89003 23.8451 10.0178 23.8499C10.1455 23.8548 10.2711 23.8851 10.3873 23.9392C10.5035 23.9932 10.608 24.0699 10.695 24.165C10.9283 24.4261 11.1821 24.6676 11.4539 24.8871L14.1627 27.0475C14.3217 27.1743 14.4378 27.3483 14.4948 27.5452C14.5517 27.7421 14.5467 27.952 14.4805 28.1459C14.4142 28.3398 14.29 28.5079 14.1251 28.6268C13.9601 28.7457 13.7628 28.8095 13.5604 28.8093V28.8054Z" fill="#7C7C7C"/>
<path d="M8.1233 22.2758C7.90337 22.2758 7.68995 22.2001 7.51784 22.0613C7.34574 21.9225 7.22511 21.7286 7.17563 21.5113C7.10078 21.186 7.04393 20.8566 7.00536 20.5248C6.9865 20.3941 6.99374 20.2609 7.02663 20.133C7.05953 20.0052 7.11741 19.8854 7.19686 19.7807C7.2763 19.6759 7.37568 19.5885 7.4891 19.5234C7.60252 19.4584 7.72767 19.4171 7.85712 19.402C7.98657 19.387 8.11769 19.3984 8.2427 19.4357C8.3677 19.473 8.48405 19.5354 8.58483 19.6191C8.68561 19.7028 8.76878 19.8063 8.82939 19.9232C8.89 20.0402 8.92683 20.1683 8.93768 20.2999C8.96816 20.5565 9.01332 20.8112 9.07293 21.0625C9.10176 21.1888 9.10575 21.3196 9.08467 21.4475C9.06359 21.5754 9.01786 21.6978 8.95009 21.8077C8.88231 21.9177 8.79383 22.013 8.68969 22.0882C8.58556 22.1635 8.46781 22.2172 8.3432 22.2463C8.27119 22.2643 8.19745 22.2742 8.1233 22.2758Z" fill="#7C7C7C"/>
<path d="M36.6187 39.6025C36.5428 39.6025 36.4659 39.5996 36.3881 39.5936C35.5627 39.5312 34.7945 39.1427 34.2488 38.5119C33.703 37.8811 33.4233 37.0582 33.4698 36.2204C33.5163 35.3826 33.8854 34.5968 34.4975 34.032C35.1096 33.4673 35.9159 33.1687 36.743 33.2006C37.57 33.2324 38.3517 33.5921 38.9198 34.2023C39.4879 34.8125 39.7971 35.6244 39.7808 36.4634C39.7645 37.3024 39.424 38.1013 38.8327 38.6884C38.2413 39.2755 37.4463 39.6037 36.6187 39.6025ZM36.6187 35.1554C36.31 35.1549 36.0126 35.2729 35.7864 35.4858C35.5601 35.6987 35.4219 35.9906 35.3995 36.3027C35.3852 36.5055 35.4204 36.7088 35.5021 36.8945C35.5837 37.0803 35.7092 37.2427 35.8676 37.3676C36.0259 37.4924 36.2121 37.5757 36.4098 37.6101C36.6074 37.6446 36.8104 37.6291 37.0008 37.5651C37.1911 37.501 37.363 37.3904 37.5011 37.243C37.6392 37.0956 37.7394 36.9159 37.7927 36.7199C37.846 36.5239 37.8509 36.3175 37.8068 36.1192C37.7627 35.9208 37.6711 35.7365 37.5401 35.5826C37.4356 35.4593 37.308 35.3583 37.1647 35.2854C37.0214 35.2126 36.8652 35.1694 36.7052 35.1584L36.6187 35.1554Z" fill="#7C7C7C"/>
<path d="M30.479 48.3615C30.4031 48.3615 30.3263 48.3615 30.2484 48.3536C29.4187 48.2946 28.645 47.9076 28.0938 47.2761C27.5426 46.6445 27.258 45.8188 27.3012 44.9766C27.3443 44.1344 27.7118 43.3431 28.3246 42.7729C28.9374 42.2026 29.7465 41.8991 30.5778 41.9275C31.4091 41.956 32.1961 42.3141 32.7696 42.925C33.3431 43.5358 33.6571 44.3505 33.6442 45.1937C33.6312 46.0369 33.2923 46.8413 32.7004 47.4337C32.1084 48.0261 31.3108 48.3593 30.479 48.3615ZM30.479 43.9144C30.1528 43.9262 29.8441 44.0674 29.6195 44.3076C29.3949 44.5478 29.2723 44.8678 29.2781 45.1988C29.2839 45.5297 29.4176 45.8451 29.6505 46.0771C29.8834 46.3091 30.1968 46.439 30.5233 46.439C30.8498 46.439 31.1632 46.3091 31.3961 46.0771C31.6289 45.8451 31.7627 45.5297 31.7685 45.1988C31.7743 44.8678 31.6517 44.5478 31.4271 44.3076C31.2025 44.0674 30.8938 43.9262 30.5676 43.9144C30.5345 43.9154 30.5053 43.9144 30.4761 43.9144H30.479Z" fill="#7C7C7C"/>
<path d="M42.8359 48.0301C42.7581 48.0301 42.6803 48.0301 42.6014 48.0222C41.7696 47.963 40.9938 47.5751 40.4411 46.942C39.8884 46.3089 39.6028 45.4812 39.6458 44.6368C39.6889 43.7924 40.057 42.9989 40.6712 42.4269C41.2853 41.8549 42.0963 41.5502 42.9298 41.5783C43.7632 41.6063 44.5525 41.9649 45.1279 42.5769C45.7033 43.1889 46.0187 44.0055 46.0064 44.8509C45.9942 45.6963 45.6551 46.503 45.0622 47.0976C44.4692 47.6921 43.6698 48.0269 42.8359 48.0301ZM42.8291 43.583C42.5104 43.5949 42.209 43.7331 41.9898 43.968C41.7706 44.2029 41.651 44.5156 41.6569 44.8389C41.6628 45.1622 41.7936 45.4703 42.0211 45.6969C42.2487 45.9234 42.5549 46.0503 42.8739 46.0503C43.1928 46.0503 43.499 45.9234 43.7266 45.6969C43.9542 45.4703 44.085 45.1622 44.0909 44.8389C44.0967 44.5156 43.9772 44.2029 43.758 43.968C43.5387 43.7331 43.2374 43.5949 42.9186 43.583H42.8291Z" fill="#7C7C7C"/>
<path d="M36.6944 56.7891C36.6165 56.7891 36.5387 56.7891 36.4608 56.7812C36.0461 56.7507 35.6413 56.6378 35.2696 56.4487C34.8979 56.2597 34.5666 55.9982 34.2946 55.6794C33.7452 55.0354 33.4706 54.1965 33.5312 53.3472C33.5919 52.498 33.9828 51.7079 34.6179 51.1509C35.2531 50.5938 36.0805 50.3154 36.9181 50.3769C37.5427 50.4228 38.1398 50.6555 38.634 51.0455C39.1282 51.4355 39.4971 51.9653 39.6943 52.5679C39.8915 53.1706 39.9079 53.8189 39.7416 54.4311C39.5753 55.0432 39.2337 55.5915 38.76 56.0068C38.1875 56.5125 37.4536 56.7904 36.6944 56.7891ZM36.6944 52.342C36.3756 52.3538 36.0741 52.4919 35.8548 52.7268C35.6355 52.9616 35.5158 53.2744 35.5216 53.5977C35.5274 53.9211 35.6582 54.2292 35.8858 54.4558C36.1134 54.6824 36.4196 54.8094 36.7386 54.8094C37.0576 54.8094 37.3638 54.6824 37.5914 54.4558C37.819 54.2292 37.9498 53.9211 37.9556 53.5977C37.9614 53.2744 37.8418 52.9616 37.6225 52.7268C37.4031 52.4919 37.1017 52.3538 36.7829 52.342C36.7498 52.343 36.7206 52.342 36.6944 52.342Z" fill="#7C7C7C"/>
<path d="M27.6914 58.0646C26.8706 58.0656 26.0815 57.7434 25.4905 57.1659C24.8995 56.5884 24.5528 55.8008 24.5235 54.9691C24.4942 54.1374 24.7847 53.3267 25.3336 52.7079C25.8825 52.0892 26.6469 51.7108 27.4657 51.6524C28.3027 51.5927 29.129 51.8718 29.7635 52.4285C30.3979 52.9853 30.7889 53.7743 30.8507 54.6228C30.9112 55.4717 30.6368 56.3102 30.0879 56.9541C29.5389 57.598 28.7602 57.9946 27.923 58.0567C27.8452 58.0616 27.7673 58.0646 27.6914 58.0646ZM27.6058 53.6205C27.3651 53.6381 27.135 53.7276 26.9445 53.8778C26.7541 54.028 26.6118 54.2321 26.5357 54.4643C26.4596 54.6964 26.4532 54.9463 26.5171 55.1822C26.581 55.4181 26.7125 55.6294 26.895 55.7896C27.0774 55.9497 27.3026 56.0514 27.542 56.0818C27.7814 56.1122 28.0243 56.0699 28.2401 55.9604C28.4558 55.8508 28.6347 55.6788 28.754 55.4662C28.8734 55.2535 28.9278 55.0098 28.9106 54.7658C28.9001 54.6034 28.8579 54.4446 28.7865 54.2989C28.715 54.1531 28.6157 54.0231 28.4943 53.9166C28.373 53.81 28.2319 53.729 28.0794 53.6782C27.9268 53.6273 27.7659 53.6077 27.6058 53.6205Z" fill="#7C7C7C"/>
<path d="M33.8311 66.8236C33.0102 66.8249 32.2209 66.5029 31.6297 65.9254C31.0385 65.348 30.6916 64.5603 30.6622 63.7286C30.6328 62.8968 30.9232 62.086 31.4721 61.4671C32.021 60.8483 32.7855 60.4698 33.6044 60.4114C34.4412 60.3512 35.2674 60.6302 35.9015 61.1871C36.5356 61.7439 36.9258 62.5332 36.9864 63.3816C37.047 64.2299 36.773 65.068 36.2246 65.7117C35.6763 66.3554 34.8983 66.7521 34.0617 66.8147C33.9848 66.8207 33.907 66.8236 33.8311 66.8236ZM33.836 62.3765C33.8048 62.3765 33.7756 62.3765 33.7455 62.3765C33.582 62.3831 33.4214 62.4229 33.2734 62.4936C33.1254 62.5644 32.9929 62.6646 32.8839 62.7883C32.7748 62.912 32.6914 63.0567 32.6387 63.2137C32.5859 63.3708 32.5648 63.537 32.5767 63.7024C32.5886 63.8679 32.6332 64.0293 32.7078 64.1769C32.7825 64.3246 32.8856 64.4555 33.0112 64.5619C33.1368 64.6683 33.2822 64.7479 33.4387 64.7962C33.5953 64.8445 33.7598 64.8603 33.9226 64.8428C34.2382 64.8206 34.533 64.675 34.7448 64.4366C34.9565 64.1983 35.0687 63.8858 35.0576 63.5652C35.0465 63.2446 34.913 62.9409 34.6852 62.7182C34.4575 62.4956 34.1533 62.3713 33.8369 62.3716L33.836 62.3765Z" fill="#7C7C7C"/>
<path d="M43.3545 64.0506C42.5339 64.0511 41.7451 63.7285 41.1545 63.1509C40.5638 62.5732 40.2175 61.7856 40.1885 60.9541C40.1595 60.1226 40.45 59.3121 40.9989 58.6936C41.5478 58.075 42.3121 57.6967 43.1307 57.6384C43.5455 57.6081 43.9621 57.6608 44.3567 57.7937C44.7513 57.9265 45.1163 58.1369 45.4308 58.4127C45.7452 58.6886 46.003 59.0246 46.1894 59.4015C46.3758 59.7783 46.4872 60.1887 46.5172 60.6092C46.5471 61.0298 46.4951 61.4521 46.3641 61.8523C46.233 62.2524 46.0255 62.6224 45.7534 62.9413C45.4814 63.2601 45.15 63.5215 44.7783 63.7104C44.4066 63.8994 44.0018 64.0123 43.587 64.0427C43.5102 64.0486 43.4323 64.0506 43.3545 64.0506ZM43.2718 59.6114C43.0312 59.6293 42.8011 59.7191 42.6108 59.8695C42.4205 60.0199 42.2783 60.224 42.2023 60.4562C42.1263 60.6884 42.1199 60.9382 42.1838 61.1741C42.2478 61.41 42.3792 61.6215 42.5615 61.7817C42.6818 61.8893 42.8224 61.971 42.9748 62.0218C43.1271 62.0727 43.2881 62.0917 43.4479 62.0776C43.7708 62.0534 44.0711 61.9001 44.2825 61.6515C44.494 61.4028 44.5994 61.0792 44.5756 60.7518C44.5499 60.4253 44.3986 60.1221 44.1543 59.9078C43.9099 59.6935 43.5922 59.5852 43.2699 59.6065L43.2718 59.6114Z" fill="#7C7C7C"/>
</svg>
