<svg width="75" height="78" viewBox="0 0 75 78" fill="none" xmlns="http://www.w3.org/2000/svg">
<path d="M66.7969 24.375H57.4219V23.1562C57.4219 14.4203 50.588 7.3125 42.1875 7.3125H32.8125C24.412 7.3125 17.5781 14.4203 17.5781 23.1562V24.375H8.20312C6.26449 24.375 4.6875 26.0151 4.6875 28.0312V67.0312C4.6875 69.0474 6.26449 70.6875 8.20312 70.6875H66.7969C68.7355 70.6875 70.3125 69.0474 70.3125 67.0312V28.0312C70.3125 26.0151 68.7355 24.375 66.7969 24.375ZM19.9219 23.1562C19.9219 15.764 25.7046 9.75 32.8125 9.75H42.1875C49.2954 9.75 55.0781 15.764 55.0781 23.1562V24.375H52.7344V23.1562C52.7344 17.1077 48.0028 12.1875 42.1875 12.1875H32.8125C26.9972 12.1875 22.2656 17.1077 22.2656 23.1562V24.375H19.9219V23.1562ZM24.6094 24.375V23.1562C24.6094 18.4526 28.2892 14.625 32.8125 14.625H42.1875C46.7108 14.625 50.3906 18.4526 50.3906 23.1562V24.375H24.6094ZM67.9688 67.0312C67.9688 67.7037 67.4429 68.25 66.7969 68.25H8.20312C7.55711 68.25 7.03125 67.7037 7.03125 67.0312V28.0312C7.03125 27.3588 7.55711 26.8125 8.20312 26.8125H66.7969C67.4429 26.8125 67.9688 27.3588 67.9688 28.0312V67.0312Z" fill="#7C7C7C"/>
<path d="M44.5312 42.6562H42.1875V40.2188C42.1875 38.2026 40.6105 36.5625 38.6719 36.5625H36.3281C34.3895 36.5625 32.8125 38.2026 32.8125 40.2188V42.6562H30.4688C28.5301 42.6562 26.9531 44.2963 26.9531 46.3125V48.75C26.9531 50.7662 28.5301 52.4062 30.4688 52.4062H32.8125V54.8438C32.8125 56.8599 34.3895 58.5 36.3281 58.5H38.6719C40.6105 58.5 42.1875 56.8599 42.1875 54.8438V52.4062H44.5312C46.4699 52.4062 48.0469 50.7662 48.0469 48.75V46.3125C48.0469 44.2963 46.4699 42.6562 44.5312 42.6562ZM45.7031 48.75C45.7031 49.4225 45.1773 49.9688 44.5312 49.9688H41.0156C40.3685 49.9688 39.8438 50.5139 39.8438 51.1875V54.8438C39.8438 55.5162 39.3179 56.0625 38.6719 56.0625H36.3281C35.6821 56.0625 35.1562 55.5162 35.1562 54.8438V51.1875C35.1562 50.5139 34.6315 49.9688 33.9844 49.9688H30.4688C29.8227 49.9688 29.2969 49.4225 29.2969 48.75V46.3125C29.2969 45.64 29.8227 45.0938 30.4688 45.0938H33.9844C34.6315 45.0938 35.1562 44.5486 35.1562 43.875V40.2188C35.1562 39.5463 35.6821 39 36.3281 39H38.6719C39.3179 39 39.8438 39.5463 39.8438 40.2188V43.875C39.8438 44.5486 40.3685 45.0938 41.0156 45.0938H44.5312C45.1773 45.0938 45.7031 45.64 45.7031 46.3125V48.75Z" fill="#7C7C7C"/>
<path d="M37.5 30.4688C28.4534 30.4688 21.0938 38.1228 21.0938 47.5312C21.0938 56.9397 28.4534 64.5938 37.5 64.5938C46.5466 64.5938 53.9062 56.9397 53.9062 47.5312C53.9062 38.1228 46.5466 30.4688 37.5 30.4688ZM37.5 62.1562C29.7461 62.1562 23.4375 55.596 23.4375 47.5312C23.4375 39.4665 29.7461 32.9062 37.5 32.9062C45.2539 32.9062 51.5625 39.4665 51.5625 47.5312C51.5625 55.596 45.2539 62.1562 37.5 62.1562Z" fill="#7C7C7C"/>
</svg>
