<svg width="81" height="80" viewBox="0 0 81 80" fill="none" xmlns="http://www.w3.org/2000/svg">
<path d="M79.1321 46.6582H75.0463L72.4714 9.26721C72.4231 8.56714 71.8411 8.02465 71.1391 8.02562H63.1461C62.4441 8.02465 61.8621 8.56714 61.8138 9.26721L59.2389 46.6582H56.486V38.6652C56.486 37.93 55.8893 37.3329 55.1541 37.3329C54.8507 37.3324 54.557 37.4358 54.3209 37.6251L43.1642 46.5503V38.6652C43.1642 37.93 42.568 37.3329 41.8323 37.3329C41.5294 37.3324 41.2357 37.4358 40.9996 37.6251L29.8429 46.5503V38.6652C29.8429 37.93 29.2467 37.3329 28.511 37.3329C28.2081 37.3324 27.9139 37.4358 27.6783 37.6251L16.5216 46.5503V38.6652C16.5211 37.93 15.9245 37.3333 15.1893 37.3333C14.9468 37.3333 14.7102 37.3992 14.5029 37.5236L1.18107 45.5166C0.780546 45.7576 0.535156 46.1903 0.535156 46.6582V78.63C0.535156 79.3657 1.1318 79.9619 1.86748 79.9619H79.1321C79.8677 79.9619 80.4644 79.3657 80.4644 78.63V47.9905C80.4644 47.2543 79.8677 46.6582 79.1321 46.6582ZM64.3901 10.6898H69.8951L72.3763 46.6582H61.9089L64.3901 10.6898ZM45.8278 77.2977V61.3118H53.8208V77.2977H45.8278ZM77.8002 77.2977H56.486V59.9794C56.486 59.2443 55.8888 58.6476 55.1531 58.6476H44.496C43.7603 58.6476 43.1637 59.2443 43.1637 59.9794V77.2977H3.19932V47.4124L13.8564 41.0181V49.3223C13.8564 50.0585 14.4526 50.6546 15.1883 50.6556C15.4908 50.6556 15.7849 50.5522 16.0215 50.3629L27.1782 41.4376V49.3223C27.1782 50.0585 27.7739 50.6546 28.5101 50.6556C28.8125 50.6556 29.1062 50.5522 29.3428 50.3634L40.4995 41.4381V49.3228C40.4995 50.0585 41.0952 50.6556 41.8314 50.6556C42.1338 50.6556 42.4275 50.5522 42.6641 50.3634L53.8208 41.4381V47.9905C53.8208 48.7266 54.4175 49.3228 55.1531 49.3228H77.7992V77.2977H77.8002Z" fill="#7C7C7C"/>
<path d="M45.7943 2.70345C46.2787 2.96298 46.7163 3.30155 47.0895 3.70501C47.8364 4.61583 48.8999 5.20906 50.0664 5.36761C51.2953 5.21101 52.4173 4.59192 53.2052 3.63573C53.5423 3.28204 53.9194 2.96933 54.3297 2.70345C54.6039 2.71564 55.322 3.3879 55.7084 3.74891C56.427 4.63827 57.4593 5.21735 58.5921 5.36761C59.9005 5.20174 61.0962 4.54558 61.9387 3.53182C62.2651 3.22545 62.7593 2.76052 62.8549 2.70345C63.5701 2.70345 63.734 2.94054 64.1741 3.57475C64.7522 4.66705 65.8821 5.35541 67.1183 5.36761C67.8535 5.36761 68.4501 4.77096 68.4501 4.03577C68.4501 3.2996 67.8535 2.70345 67.1183 2.70345C66.8514 2.70345 66.7997 2.68491 66.367 2.05997C65.6596 0.789114 64.3087 0.0119652 62.8549 0.0387971C61.7773 0.188568 60.7967 0.742768 60.1137 1.58968C59.6712 2.00679 58.9297 2.70345 58.6482 2.70979C58.2355 2.46001 57.8588 2.15559 57.5261 1.8058C56.7251 0.830094 55.5815 0.198325 54.3292 0.0387971C53.1745 0.196373 52.1227 0.784723 51.3836 1.6853C51.0099 2.08631 50.5781 2.42927 50.1034 2.70345C49.6595 2.44879 49.2556 2.13071 48.9048 1.7575C48.1262 0.812043 47.0178 0.198325 45.803 0.0387971C45.0678 0.0363579 44.4688 0.630562 44.4663 1.36673C44.4639 2.10192 45.0586 2.70101 45.7943 2.70345Z" fill="#7C7C7C"/>
<path d="M15.1836 61.3311H9.8543C9.11862 61.3311 8.52246 61.9277 8.52246 62.6629V70.6559C8.52246 71.3921 9.11862 71.9882 9.8543 71.9882H15.1836C15.9188 71.9882 16.5154 71.3921 16.5154 70.6559V62.6629C16.5154 61.9277 15.9188 61.3311 15.1836 61.3311ZM13.8508 69.3241H11.1866V63.9957H13.8508V69.3241Z" fill="#7C7C7C"/>
<path d="M25.834 61.3311H20.5052C19.769 61.3311 19.1729 61.9277 19.1729 62.6629V70.6559C19.1729 71.3921 19.769 71.9882 20.5052 71.9882H25.834C26.5692 71.9882 27.1658 71.3921 27.1658 70.6559V62.6629C27.1658 61.9277 26.5692 61.3311 25.834 61.3311ZM24.5012 69.3241H21.837V63.9957H24.5012V69.3241Z" fill="#7C7C7C"/>
<path d="M36.4839 61.3311H31.1551C30.4189 61.3311 29.8228 61.9277 29.8228 62.6629V70.6559C29.8228 71.3921 30.4189 71.9882 31.1551 71.9882H36.4839C37.2191 71.9882 37.8157 71.3921 37.8157 70.6559V62.6629C37.8157 61.9277 37.2191 61.3311 36.4839 61.3311ZM35.1511 69.3241H32.4869V63.9957H35.1511V69.3241Z" fill="#7C7C7C"/>
</svg>
