<svg width="225" height="105" viewBox="0 0 225 105" fill="none" xmlns="http://www.w3.org/2000/svg">
<g clip-path="url(#clip0_1942_1547)">
<path d="M17.3253 31.5885C15.0937 28.9645 13.172 26.2996 12.7794 25.7461C12.738 25.7051 12.676 25.7051 12.6347 25.7461C12.2421 26.2996 10.3204 28.9645 8.08879 31.5885C-11.066 55.7984 11.1057 72.1367 11.1057 72.1367L11.2916 72.2597C11.4569 74.7811 11.8702 78.4096 11.8702 78.4096H12.6967H13.5232C13.5232 78.4096 13.9365 74.8016 14.1018 72.2597L14.2878 72.1162C14.3084 72.1367 36.4802 55.7984 17.3253 31.5885ZM12.6967 71.7676C12.6967 71.7676 11.7049 70.9272 11.4363 70.4968V70.4556L12.6347 44.0932C12.6347 44.0112 12.7587 44.0112 12.7587 44.0932L13.9572 70.4556V70.4968C13.6886 70.9272 12.6967 71.7676 12.6967 71.7676Z" fill="#001E2B"/>
<path d="M45.776 60.1345L36.5368 37.7717L36.5161 37.71H29.3277V39.2132H30.4878C30.8399 39.2132 31.1714 39.3573 31.4201 39.6044C31.6685 39.8515 31.7929 40.1811 31.7929 40.5311L31.5858 63.0381C31.5858 63.738 31.0058 64.3146 30.3014 64.3353L29.1206 64.3558V65.8384H36.1226V64.3558L35.3974 64.3353C34.6932 64.3146 34.113 63.738 34.113 63.0381V41.8283L44.181 65.8384C44.3258 66.1884 44.6573 66.415 45.0303 66.415C45.4032 66.415 45.7346 66.1884 45.8796 65.8384L55.7196 42.3637L55.8647 63.0381C55.8647 63.7588 55.2845 64.3353 54.5596 64.3558H53.8137V65.8384H62.0172V64.3558H60.8985C60.1942 64.3558 59.6141 63.7588 59.5934 63.0586L59.5313 40.5516C59.5313 39.8309 60.1112 39.2543 60.8157 39.2337L62.0172 39.2132V37.71H55.0152L45.776 60.1345Z" fill="#001E2B"/>
<path d="M81.741 42.9155C80.1541 42.056 78.3818 41.6057 76.4654 41.6057C74.5489 41.6057 72.7559 42.0355 71.1897 42.9155C69.6028 43.7748 68.3457 45.023 67.4184 46.5987C66.4911 48.1745 66.0171 50.0163 66.0171 52.0625C66.0171 54.1088 66.4911 55.9506 67.4184 57.5263C68.3457 59.102 69.6028 60.3503 71.1897 61.2098C72.7766 62.0691 74.5489 62.5194 76.4654 62.5194C78.3818 62.5194 80.1748 62.0896 81.741 61.2098C83.3279 60.3503 84.585 59.102 85.5123 57.5263C86.4396 55.9506 86.9136 54.1088 86.9136 52.0625C86.9136 50.0163 86.4396 48.1745 85.5123 46.5987C84.585 45.023 83.3279 43.7748 81.741 42.9155ZM83.2661 52.0625C83.2661 54.5796 82.6478 56.6258 81.4112 58.0992C80.1955 59.5726 78.5263 60.3298 76.4654 60.3298C74.4047 60.3298 72.7352 59.5726 71.5195 58.0992C70.2829 56.6258 69.6647 54.5796 69.6647 52.0625C69.6647 49.5455 70.2829 47.4993 71.5195 46.0259C72.7352 44.5525 74.4047 43.7953 76.4654 43.7953C78.5263 43.7953 80.1955 44.5525 81.4112 46.0259C82.6478 47.4993 83.2661 49.5455 83.2661 52.0625Z" fill="#001E2B"/>
<path d="M110.749 60.4785C110.52 60.2517 110.395 59.9423 110.395 59.571V48.5146C110.395 46.4108 109.772 44.7604 108.526 43.5848C107.301 42.4089 105.598 41.8108 103.479 41.8108C100.509 41.8108 98.1622 43.0072 96.5213 45.3587C96.5006 45.3999 96.4383 45.4207 96.3761 45.4207C96.3136 45.4207 96.2722 45.3792 96.2722 45.3175L95.5036 42.3677H94.2158L90.9136 44.2448V45.2761H91.7652C92.1597 45.2761 92.492 45.3792 92.7206 45.5857C92.949 45.792 93.0736 46.1014 93.0736 46.5344V59.5503C93.0736 59.9216 92.949 60.231 92.7206 60.458C92.492 60.6848 92.1806 60.8086 91.8067 60.8086H90.9758V62.3144H98.5774V60.8086H97.7467C97.3729 60.8086 97.0613 60.6848 96.8329 60.458C96.6045 60.231 96.4797 59.9216 96.4797 59.5503V50.9281C96.4797 49.8349 96.729 48.7416 97.1861 47.6689C97.6636 46.617 98.3697 45.7301 99.3045 45.0493C100.239 44.3686 101.361 44.0385 102.648 44.0385C104.102 44.0385 105.203 44.4923 105.888 45.3999C106.574 46.3076 106.927 47.4833 106.927 48.886V59.5298C106.927 59.9009 106.802 60.2103 106.574 60.4373C106.345 60.6643 106.034 60.7879 105.66 60.7879H104.829V62.2937H112.431V60.7879H111.6C111.289 60.8293 110.998 60.7055 110.749 60.4785Z" fill="#001E2B"/>
<path d="M125.667 36.4797C124.006 36.4797 122.492 36.8291 121.122 37.5281C119.752 38.2271 118.673 39.1729 117.905 40.3857C117.137 41.578 116.743 42.9144 116.743 44.3328C116.743 45.6073 117.033 46.7791 117.635 47.8277C118.216 48.835 119.005 49.6777 120.001 50.3767L117.033 54.365C116.659 54.8583 116.618 55.5161 116.888 56.0506C117.178 56.6057 117.718 56.9347 118.341 56.9347H119.192C118.361 57.4898 117.697 58.1475 117.241 58.9287C116.701 59.8126 116.431 60.7377 116.431 61.6834C116.431 63.4514 117.22 64.911 118.776 66.0006C120.312 67.0902 122.471 67.6452 125.189 67.6452C127.078 67.6452 128.884 67.3368 130.523 66.7406C132.184 66.1445 133.533 65.2604 134.529 64.1094C135.546 62.9581 136.065 61.5601 136.065 59.9566C136.065 58.271 135.442 57.0785 133.989 55.9274C132.744 54.9611 130.793 54.4472 128.365 54.4472H120.063C120.043 54.4472 120.022 54.4265 120.022 54.4265C120.022 54.4265 120.001 54.3855 120.022 54.365L122.18 51.4869C122.761 51.7541 123.301 51.9185 123.778 52.0213C124.276 52.1242 124.837 52.1652 125.459 52.1652C127.203 52.1652 128.78 51.8158 130.15 51.1168C131.52 50.4179 132.62 49.4723 133.408 48.2593C134.197 47.067 134.591 45.7308 134.591 44.3123C134.591 42.7909 133.844 40.0156 131.81 38.5971C131.81 38.5766 131.831 38.5766 131.831 38.5766L136.293 39.07V37.0348H129.154C128.033 36.6854 126.871 36.4797 125.667 36.4797ZM128.157 49.3488C127.369 49.7599 126.518 49.9861 125.667 49.9861C124.276 49.9861 123.052 49.4928 122.014 48.5266C120.976 47.5603 120.458 46.1419 120.458 44.3328C120.458 42.5238 120.976 41.1051 122.014 40.139C123.052 39.1729 124.276 38.6794 125.667 38.6794C126.539 38.6794 127.369 38.885 128.157 39.3166C128.946 39.7279 129.59 40.3652 130.108 41.2081C130.606 42.051 130.876 43.0993 130.876 44.3328C130.876 45.5868 130.627 46.6352 130.108 47.4576C129.61 48.3005 128.946 48.9377 128.157 49.3488ZM122.533 56.914H128.157C129.714 56.914 130.71 57.2224 131.374 57.8804C132.039 58.5381 132.371 59.422 132.371 60.4501C132.371 61.9507 131.769 63.1842 130.565 64.1094C129.361 65.0345 127.742 65.5073 125.75 65.5073C124.006 65.5073 122.554 65.1167 121.495 64.3765C120.437 63.6365 119.897 62.5058 119.897 61.0668C119.897 60.1622 120.146 59.3193 120.644 58.5793C121.142 57.8392 121.744 57.3046 122.533 56.914Z" fill="#001E2B"/>
<path d="M156.017 42.9155C154.43 42.056 152.658 41.6057 150.741 41.6057C148.825 41.6057 147.032 42.0355 145.466 42.9155C143.879 43.7748 142.622 45.023 141.694 46.5987C140.767 48.1745 140.293 50.0163 140.293 52.0625C140.293 54.1088 140.767 55.9506 141.694 57.5263C142.622 59.102 143.879 60.3503 145.466 61.2098C147.052 62.0691 148.825 62.5194 150.741 62.5194C152.658 62.5194 154.451 62.0896 156.017 61.2098C157.604 60.3503 158.861 59.102 159.788 57.5263C160.716 55.9506 161.19 54.1088 161.19 52.0625C161.19 50.0163 160.716 48.1745 159.788 46.5987C158.861 45.023 157.583 43.7748 156.017 42.9155ZM157.542 52.0625C157.542 54.5796 156.924 56.6258 155.687 58.0992C154.471 59.5726 152.802 60.3298 150.741 60.3298C148.68 60.3298 147.011 59.5726 145.795 58.0992C144.559 56.6258 143.941 54.5796 143.941 52.0625C143.941 49.525 144.559 47.4993 145.795 46.0259C147.011 44.5525 148.68 43.7953 150.741 43.7953C152.802 43.7953 154.471 44.5525 155.687 46.0259C156.903 47.4993 157.542 49.5455 157.542 52.0625Z" fill="#001E2B"/>
<path d="M182.061 39.7013C179.96 38.5925 177.611 38.0176 175.077 38.0176H165.189V39.5165H166.158C166.528 39.5165 166.858 39.6603 167.188 39.9888C167.497 40.2968 167.661 40.6459 167.661 41.0154V63.1097C167.661 63.4791 167.497 63.8283 167.188 64.1363C166.879 64.4443 166.528 64.6085 166.158 64.6085H165.189V66.1075H175.077C177.611 66.1075 179.96 65.5326 182.061 64.4237C184.162 63.3149 185.872 61.6722 187.108 59.5779C188.344 57.4835 188.983 54.9579 188.983 52.083C188.983 49.2084 188.344 46.7033 187.108 44.5884C185.851 42.4529 184.162 40.8307 182.061 39.7013ZM185.007 52.042C185.007 54.6704 184.533 56.8879 183.606 58.6743C182.679 60.4608 181.443 61.7954 179.918 62.658C178.394 63.5204 176.705 63.9516 174.892 63.9516H172.894C172.523 63.9516 172.194 63.8078 171.864 63.4791C171.555 63.1712 171.39 62.8222 171.39 62.4525V41.611C171.39 41.2414 171.534 40.9129 171.864 40.5842C172.173 40.2763 172.523 40.112 172.894 40.112H174.892C176.705 40.112 178.394 40.5432 179.918 41.4056C181.443 42.268 182.679 43.6028 183.606 45.389C184.533 47.196 185.007 49.4342 185.007 52.042Z" fill="#001E2B"/>
<path d="M213.666 53.5411C212.752 52.4937 210.987 51.6108 208.912 51.1384C211.777 49.7216 213.25 47.7299 213.25 45.1633C213.25 43.767 212.878 42.5144 212.129 41.4466C211.382 40.379 210.323 39.5165 208.974 38.921C207.623 38.3256 206.044 38.0176 204.259 38.0176H193.066V39.5165H193.959C194.333 39.5165 194.665 39.6603 194.997 39.9888C195.309 40.2968 195.475 40.6459 195.475 41.0154V63.1097C195.475 63.4791 195.309 63.8283 194.997 64.1363C194.686 64.4443 194.333 64.6085 193.959 64.6085H192.983V66.1075H205.132C206.979 66.1075 208.703 65.7995 210.261 65.1834C211.819 64.5675 213.064 63.6641 213.958 62.473C214.87 61.2822 215.328 59.8242 215.328 58.1404C215.307 56.3334 214.767 54.7934 213.666 53.5411ZM199.732 63.4997C199.42 63.1917 199.254 62.8427 199.254 62.473V52.5552H205.028C207.062 52.5552 208.62 53.0687 209.7 54.0953C210.78 55.1221 211.32 56.4567 211.32 58.0994C211.32 59.085 211.07 60.0501 210.615 60.933C210.137 61.8366 209.429 62.5553 208.475 63.1097C207.54 63.6641 206.377 63.9516 205.028 63.9516H200.77C200.397 63.9516 200.064 63.8078 199.732 63.4997ZM199.275 50.4403V41.6315C199.275 41.2619 199.42 40.9334 199.753 40.6047C200.064 40.2968 200.417 40.1325 200.791 40.1325H203.533C205.504 40.1325 206.959 40.6254 207.873 41.5698C208.786 42.5349 209.243 43.767 209.243 45.2865C209.243 46.847 208.806 48.0996 207.956 49.044C207.104 49.9681 205.817 50.4403 204.114 50.4403H199.275Z" fill="#001E2B"/>
<path d="M220.641 54.2824C220.232 54.0603 219.923 53.7374 219.677 53.354C219.452 52.9505 219.328 52.5267 219.328 52.0625C219.328 51.5983 219.452 51.1544 219.677 50.7709C219.903 50.3672 220.232 50.0646 220.641 49.8425C221.053 49.6207 221.504 49.4995 222.017 49.4995C222.53 49.4995 222.981 49.6207 223.393 49.8425C223.803 50.0646 224.111 50.3875 224.357 50.7709C224.583 51.1745 224.707 51.5983 224.707 52.0625C224.707 52.5267 224.583 52.9706 224.357 53.354C224.132 53.7577 223.803 54.0603 223.393 54.2824C222.981 54.5042 222.53 54.6254 222.017 54.6254C221.525 54.6254 221.053 54.5245 220.641 54.2824ZM223.168 53.9998C223.515 53.8182 223.764 53.5356 223.968 53.2127C224.152 52.8697 224.256 52.4863 224.256 52.0625C224.256 51.6387 224.152 51.2552 223.968 50.9122C223.782 50.5692 223.515 50.3067 223.168 50.1251C222.818 49.9434 222.448 49.8425 222.017 49.8425C221.587 49.8425 221.217 49.9434 220.867 50.1251C220.519 50.3067 220.271 50.5893 220.066 50.9122C219.882 51.2552 219.779 51.6387 219.779 52.0625C219.779 52.4863 219.882 52.8697 220.066 53.2127C220.252 53.5557 220.519 53.8182 220.867 53.9998C221.217 54.1815 221.587 54.2824 222.017 54.2824C222.448 54.2824 222.839 54.1815 223.168 53.9998ZM220.908 53.2935V53.1118L220.95 53.0917H221.074C221.113 53.0917 221.155 53.0714 221.175 53.0513C221.217 53.011 221.217 52.9909 221.217 52.9505V51.0736C221.217 51.0332 221.196 50.993 221.175 50.9727C221.134 50.9323 221.113 50.9323 221.074 50.9323H220.95L220.908 50.9122V50.7305L220.95 50.7105H222.017C222.326 50.7105 222.551 50.7709 222.735 50.9122C222.921 51.0535 223.002 51.2351 223.002 51.4773C223.002 51.6589 222.942 51.8404 222.797 51.9616C222.655 52.1029 222.489 52.1836 222.284 52.2037L222.53 52.2845L223.002 53.0311C223.044 53.0917 223.085 53.1118 223.147 53.1118H223.269L223.29 53.1321V53.3136L223.269 53.3339H222.634L222.592 53.3136L221.935 52.2238H221.771V52.9505C221.771 52.9909 221.792 53.0311 221.812 53.0513C221.854 53.0917 221.875 53.0917 221.914 53.0917H222.038L222.079 53.1118V53.2935L222.038 53.3136H220.95L220.908 53.2935ZM221.955 51.9616C222.121 51.9616 222.263 51.9212 222.346 51.8203C222.427 51.7395 222.489 51.5983 222.489 51.4369C222.489 51.2753 222.448 51.1544 222.367 51.0535C222.284 50.9526 222.16 50.9122 222.017 50.9122H221.935C221.893 50.9122 221.854 50.9323 221.833 50.9526C221.792 50.9928 221.792 51.0131 221.792 51.0535V51.9616H221.955Z" fill="#001E2B"/>
</g>
<defs>
<clipPath id="clip0_1942_1547">
<rect width="224.414" height="104" fill="white" transform="translate(0.292969 0.0625)"/>
</clipPath>
</defs>
</svg>
