<svg width="125" height="112" viewBox="0 0 125 112" fill="none" xmlns="http://www.w3.org/2000/svg">
<g clip-path="url(#clip0_1942_1564)">
<path d="M62.5002 67.1822C68.6534 67.1822 73.6415 62.2037 73.6415 56.0624C73.6415 49.9211 68.6534 44.9426 62.5002 44.9426C56.347 44.9426 51.3589 49.9211 51.3589 56.0624C51.3589 62.2037 56.347 67.1822 62.5002 67.1822Z" fill="#61DAFB"/>
<path d="M62.4999 78.8444C95.5169 78.8444 122.283 68.6445 122.283 56.0623C122.283 43.4801 95.5169 33.2803 62.4999 33.2803C29.4829 33.2803 2.71729 43.4801 2.71729 56.0623C2.71729 68.6445 29.4829 78.8444 62.4999 78.8444Z" stroke="#61DAFB" stroke-width="3"/>
<path d="M42.7318 67.4535C59.2403 95.9919 81.4736 114.027 92.3911 107.736C103.309 101.445 98.7763 73.2098 82.2678 44.6714C65.7593 16.133 43.526 -1.90202 32.6085 4.38907C21.6909 10.6802 26.2233 38.9151 42.7318 67.4535Z" stroke="#61DAFB" stroke-width="3"/>
<path d="M42.7319 44.6714C26.2234 73.2098 21.691 101.445 32.6086 107.736C43.5261 114.027 65.7594 95.9918 82.2679 67.4534C98.7764 38.915 103.309 10.6801 92.3912 4.389C81.4737 -1.90209 59.2404 16.1329 42.7319 44.6714Z" stroke="#61DAFB" stroke-width="3"/>
</g>
<defs>
<clipPath id="clip0_1942_1564">
<rect width="125" height="111" fill="white" transform="translate(0 0.5625)"/>
</clipPath>
</defs>
</svg>
