<svg width="64" height="62" viewBox="0 0 64 62" fill="none" xmlns="http://www.w3.org/2000/svg">
<path d="M21.9098 0.816652C22.3396 1.0179 27.4907 3.46653 32.5389 7.2563C35.0643 9.15222 37.5713 11.3891 39.4484 13.8543C41.3249 16.3186 42.5837 19.0263 42.5837 21.8594V27.3768H57.1901H57.1906C57.4046 27.3774 57.6061 27.47 57.7519 27.6284C57.8973 27.7863 57.9765 27.997 57.9765 28.2136V59.5777H62.6562C62.8705 59.5777 63.0725 59.6701 63.2188 59.8286C63.3646 59.9865 63.444 60.1975 63.444 60.4145C63.444 60.6315 63.3646 60.8425 63.2188 61.0005C63.0725 61.1589 62.8705 61.2513 62.6562 61.2513H1.34367C1.12933 61.2513 0.927344 61.1589 0.781065 61.0005C0.635282 60.8425 0.555859 60.6315 0.555859 60.4145C0.555859 60.1975 0.635282 59.9865 0.781065 59.8286C0.927344 59.6701 1.12933 59.5777 1.34367 59.5777H6.01351V17.2175C6.01351 17.0008 6.09269 16.7901 6.23806 16.6322C6.38393 16.4738 6.5854 16.3812 6.7994 16.3807L6.79992 16.3807L20.803 16.3807M21.9098 0.816652C21.9101 0.816781 21.9104 0.81691 21.9107 0.817039L21.8243 0.997433L21.9091 0.816301C21.9093 0.816417 21.9096 0.816534 21.9098 0.816652ZM21.9098 0.816652C21.7887 0.758856 21.6552 0.734622 21.5219 0.747055C21.3886 0.759486 21.2615 0.807995 21.1524 0.886589M21.1524 0.886589C21.0434 0.964107 20.9555 1.06852 20.8951 1.18929C20.8346 1.31026 20.8033 1.44468 20.803 1.58061V1.58091V16.3807M21.1524 0.886589C21.1522 0.88675 21.152 0.886911 21.1518 0.887073L21.2688 1.04923M21.1524 0.886589C21.1527 0.886429 21.1529 0.886269 21.1531 0.88611L21.2688 1.04923M20.803 16.3807H21.003M20.803 16.3807V16.5807H6.79992L21.003 16.3807M21.003 16.3807V1.58091C21.0032 1.47537 21.0276 1.37152 21.074 1.27872C21.1204 1.18591 21.1873 1.10705 21.2688 1.04923M21.003 16.3807L21.2688 1.04923M45.7766 52.5109V59.5777H42.5837V29.052H56.4093V59.5777H53.2121V52.5109C53.2121 52.2943 53.1329 52.0836 52.9876 51.9257C52.8417 51.7673 52.6402 51.6747 52.4262 51.6741H52.4257H46.5644C46.4587 51.6741 46.3544 51.6967 46.2576 51.7402C46.1609 51.7835 46.0742 51.8466 46.0018 51.925C45.9295 52.0033 45.8729 52.0955 45.8346 52.1958C45.7962 52.2961 45.7766 52.4032 45.7766 52.5109ZM51.638 53.3477L51.642 59.5777H47.3509V53.3477H51.638ZM22.3773 59.5777V2.90295C24.4136 3.95395 28.9067 6.42421 32.9739 9.69744C35.1107 11.4171 37.1233 13.3533 38.6003 15.4159C40.0778 17.4794 41.0094 19.6554 41.0094 21.8594V59.5777H22.3773ZM7.59055 18.0573H20.803V59.5777H17.9166V54.3558C17.9166 54.1388 17.8372 53.9278 17.6914 53.7699C17.5452 53.6114 17.3432 53.519 17.1288 53.519H11.269C11.0546 53.519 10.8527 53.6114 10.7064 53.7699C10.5606 53.9278 10.4812 54.1388 10.4812 54.3558V59.5777H7.59055V18.0573ZM16.3424 59.5777H12.0554V55.1926H16.3424V59.5777Z" fill="#7C7C7C" stroke="#7C7C7C" stroke-width="0.4"/>
<path d="M52.4256 35.0193V35.0196L52.4361 35.019C52.6433 35.008 52.8349 34.9112 52.9727 34.7544C53.1102 34.5981 53.1846 34.3934 53.1846 34.1832C53.1846 33.9731 53.1102 33.7684 52.9727 33.6121C52.8349 33.4552 52.6432 33.3585 52.4361 33.3475L52.4362 33.3472H52.4256H46.5692C46.4621 33.3424 46.3556 33.3607 46.256 33.4009C46.1546 33.4417 46.0631 33.5039 45.9866 33.5829C45.9101 33.6618 45.8501 33.7558 45.8093 33.8588C45.7686 33.9618 45.7478 34.0721 45.7478 34.1832C45.7478 34.2944 45.7686 34.4047 45.8093 34.5077C45.8501 34.6107 45.9101 34.7047 45.9866 34.7836C46.0631 34.8626 46.1546 34.9248 46.256 34.9656C46.3556 35.0058 46.4621 35.0241 46.5692 35.0193H52.4256Z" fill="#7C7C7C" stroke="#7C7C7C" stroke-width="0.4"/>
<path d="M52.9882 37.9566L52.8423 38.0913L52.9882 37.9566C52.842 37.7982 52.64 37.7058 52.4256 37.7058H46.5644C46.35 37.7058 46.148 37.7982 46.0018 37.9566C45.856 38.1146 45.7766 38.3256 45.7766 38.5426C45.7766 38.7596 45.856 38.9706 46.0018 39.1285C46.148 39.287 46.35 39.3794 46.5644 39.3794H52.4256C52.64 39.3794 52.842 39.287 52.9882 39.1285L52.8413 38.9928L52.9882 39.1285C53.134 38.9706 53.2134 38.7596 53.2134 38.5426C53.2134 38.3256 53.134 38.1146 52.9882 37.9566Z" fill="#7C7C7C" stroke="#7C7C7C" stroke-width="0.4"/>
<path d="M52.4256 43.7379V43.7382L52.4361 43.7376C52.6432 43.7266 52.8349 43.6299 52.9727 43.473C53.1102 43.3167 53.1846 43.112 53.1846 42.9019C53.1846 42.6917 53.1102 42.4871 52.9727 42.3307C52.8349 42.1739 52.6432 42.0771 52.4361 42.0661L52.4362 42.0658H52.4256H46.5692C46.4621 42.061 46.3556 42.0794 46.256 42.1195C46.1546 42.1603 46.0631 42.2226 45.9866 42.3015C45.9101 42.3804 45.8501 42.4744 45.8093 42.5774C45.7686 42.6804 45.7478 42.7907 45.7478 42.9019C45.7478 43.013 45.7686 43.1233 45.8093 43.2263C45.8501 43.3293 45.9101 43.4233 45.9866 43.5022C46.0631 43.5812 46.1546 43.6434 46.256 43.6842C46.3556 43.7244 46.4621 43.7428 46.5692 43.7379H52.4256Z" fill="#7C7C7C" stroke="#7C7C7C" stroke-width="0.4"/>
<path d="M52.9882 46.6752L52.8423 46.8099L52.9882 46.6752C52.842 46.5168 52.64 46.4244 52.4256 46.4244H46.5644C46.35 46.4244 46.148 46.5168 46.0018 46.6752C45.856 46.8332 45.7766 47.0442 45.7766 47.2612C45.7766 47.4782 45.856 47.6892 46.0018 47.8471C46.148 48.0056 46.35 48.098 46.5644 48.098H52.4256C52.64 48.098 52.842 48.0056 52.9882 47.8471L52.8413 47.7115L52.9882 47.8471C53.134 47.6892 53.2134 47.4782 53.2134 47.2612C53.2134 47.0442 53.134 46.8332 52.9882 46.6752Z" fill="#7C7C7C" stroke="#7C7C7C" stroke-width="0.4"/>
<path d="M24.9797 21.8588C24.9791 21.9668 24.9981 22.0742 25.0361 22.175C25.0741 22.276 25.1306 22.3688 25.2029 22.4478C25.2753 22.5268 25.3623 22.5904 25.4594 22.6342C25.5565 22.678 25.6612 22.7008 25.7675 22.7008H32C32.2144 22.7008 32.4163 22.6084 32.5626 22.4499C32.7084 22.292 32.7878 22.081 32.7878 21.864V15.9896C32.7878 15.7726 32.7084 15.5616 32.5626 15.4036C32.4163 15.2452 32.2144 15.1528 32 15.1528H25.7675C25.5532 15.1528 25.3512 15.2452 25.2049 15.4036C25.0591 15.5616 24.9797 15.7726 24.9797 15.9896V21.8588ZM24.9797 21.8588C24.9797 21.8585 24.9797 21.8583 24.9797 21.8581L25.1797 21.8594H24.9797V21.8588ZM31.2095 16.8264L31.2121 21.0287H29.6688V16.8264H31.2095ZM26.5497 16.8264H28.0903V21.0287H26.5497V16.8264Z" fill="#7C7C7C" stroke="#7C7C7C" stroke-width="0.4"/>
<path d="M11.2691 25.5633L11.2696 25.5633C11.4836 25.5627 11.685 25.4701 11.8309 25.3117C11.9763 25.1539 12.0555 24.9432 12.0555 24.7265V21.8594H12.0557L12.0552 21.8504C12.0458 21.6404 11.9621 21.4395 11.8173 21.2902C11.672 21.1403 11.4758 21.0537 11.2683 21.0537C11.0609 21.0537 10.8646 21.1403 10.7194 21.2902C10.5746 21.4395 10.4909 21.6404 10.4814 21.8504L10.4812 21.8503V21.8594V24.7144C10.4798 24.8227 10.4981 24.9307 10.5355 25.032C10.5731 25.1339 10.6294 25.2277 10.7018 25.3075C10.7743 25.3873 10.8616 25.4517 10.9591 25.4959C11.0567 25.5402 11.1621 25.5633 11.2691 25.5633Z" fill="#7C7C7C" stroke="#7C7C7C" stroke-width="0.4"/>
<path d="M14.1997 25.5633L14.2002 25.5633C14.4142 25.5627 14.6157 25.4701 14.7616 25.3117C14.9069 25.1539 14.9861 24.9432 14.9861 24.7265V21.8594H14.9863L14.9859 21.8504C14.9764 21.6404 14.8928 21.4395 14.748 21.2902C14.6027 21.1403 14.4065 21.0537 14.199 21.0537C13.9916 21.0537 13.7953 21.1403 13.65 21.2902C13.5053 21.4395 13.4216 21.6404 13.4121 21.8504L13.4119 21.8503V21.8594V24.7144C13.4104 24.8227 13.4288 24.9307 13.4661 25.032C13.5037 25.1339 13.56 25.2277 13.6325 25.3075C13.7049 25.3873 13.7923 25.4517 13.8898 25.4959C13.9874 25.5402 14.0928 25.5633 14.1997 25.5633Z" fill="#7C7C7C" stroke="#7C7C7C" stroke-width="0.4"/>
<path d="M17.1285 25.5633H17.129C17.3433 25.5633 17.5453 25.4709 17.6916 25.3124C17.8374 25.1545 17.9168 24.9435 17.9168 24.7265V21.8594H17.917L17.9166 21.8504C17.9071 21.6404 17.8234 21.4395 17.6786 21.2902C17.5334 21.1403 17.3371 21.0537 17.1297 21.0537C16.9222 21.0537 16.726 21.1403 16.5807 21.2902C16.4359 21.4395 16.3523 21.6404 16.3428 21.8504L16.3426 21.8503V21.8594V24.7144C16.3411 24.8226 16.3594 24.9303 16.3966 25.0316C16.4341 25.1333 16.4902 25.227 16.5625 25.3067C16.6348 25.3865 16.7218 25.4509 16.8191 25.4953L16.8987 25.3209L16.8191 25.4953C16.9165 25.5398 17.0217 25.563 17.1285 25.5633ZM17.7168 24.7265V21.8594L17.129 25.3633C17.2849 25.3633 17.4344 25.2962 17.5446 25.1768C17.6549 25.0574 17.7168 24.8954 17.7168 24.7265Z" fill="#7C7C7C" stroke="#7C7C7C" stroke-width="0.4"/>
<path d="M11.2692 31.7256L11.2697 31.7256C11.4837 31.725 11.6852 31.6324 11.831 31.474C11.9764 31.3162 12.0556 31.1055 12.0556 30.8888V28.0366C12.0599 27.9272 12.0441 27.8176 12.0086 27.7143C11.9726 27.6095 11.917 27.5127 11.8444 27.43C11.7717 27.3474 11.6834 27.2805 11.5843 27.2345C11.4851 27.1885 11.3776 27.1644 11.2685 27.1644C11.1594 27.1644 11.0519 27.1885 10.9527 27.2345C10.8535 27.2805 10.7652 27.3474 10.6926 27.43C10.6199 27.5127 10.5643 27.6095 10.5284 27.7143C10.4929 27.8176 10.477 27.9272 10.4814 28.0366V30.8888C10.4814 31.1058 10.5608 31.3168 10.7066 31.4747C10.8529 31.6332 11.0548 31.7256 11.2692 31.7256Z" fill="#7C7C7C" stroke="#7C7C7C" stroke-width="0.4"/>
<path d="M14.1998 31.7256L14.2004 31.7256C14.4144 31.725 14.6158 31.6324 14.7617 31.474C14.9071 31.3162 14.9863 31.1055 14.9862 30.8888V28.0366C14.9906 27.9272 14.9747 27.8176 14.9393 27.7143C14.9033 27.6095 14.8477 27.5127 14.775 27.43C14.7024 27.3474 14.6141 27.2805 14.5149 27.2345C14.4157 27.1885 14.3082 27.1644 14.1991 27.1644C14.09 27.1644 13.9825 27.1885 13.8833 27.2345C13.7842 27.2805 13.6959 27.3474 13.6232 27.43C13.5506 27.5127 13.495 27.6095 13.459 27.7143C13.4236 27.8176 13.4077 27.9272 13.412 28.0366V30.8888C13.412 31.1058 13.4915 31.3168 13.6372 31.4747C13.7835 31.6332 13.9855 31.7256 14.1998 31.7256Z" fill="#7C7C7C" stroke="#7C7C7C" stroke-width="0.4"/>
<path d="M17.1281 31.7256H17.1286C17.343 31.7256 17.5449 31.6332 17.6912 31.4747C17.837 31.3168 17.9164 31.1058 17.9164 30.8888V28.0366C17.9208 27.9272 17.9049 27.8176 17.8694 27.7143C17.8335 27.6095 17.7778 27.5127 17.7052 27.43C17.6326 27.3474 17.5443 27.2805 17.4451 27.2345C17.3459 27.1885 17.2384 27.1644 17.1293 27.1644C17.0202 27.1644 16.9127 27.1885 16.8135 27.2345C16.7144 27.2805 16.6261 27.3474 16.5534 27.43C16.4808 27.5127 16.4252 27.6095 16.3892 27.7143C16.3537 27.8176 16.3379 27.9272 16.3422 28.0366V30.8888C16.3422 31.1055 16.4214 31.3162 16.5668 31.474C16.7126 31.6324 16.9141 31.725 17.1281 31.7256Z" fill="#7C7C7C" stroke="#7C7C7C" stroke-width="0.4"/>
<path d="M11.2692 37.8925L11.2697 37.8925C11.4837 37.8919 11.6852 37.7993 11.831 37.6409C11.9764 37.4831 12.0556 37.2724 12.0556 37.0557V34.2035C12.0599 34.0941 12.0441 33.9845 12.0086 33.8812C11.9726 33.7764 11.917 33.6796 11.8444 33.5969C11.7717 33.5143 11.6834 33.4474 11.5843 33.4014C11.4851 33.3554 11.3776 33.3313 11.2685 33.3313C11.1594 33.3313 11.0519 33.3554 10.9527 33.4014C10.8535 33.4474 10.7652 33.5143 10.6926 33.5969C10.6199 33.6796 10.5643 33.7764 10.5284 33.8812C10.4929 33.9845 10.477 34.0941 10.4814 34.2035V37.0557C10.4814 37.2727 10.5608 37.4837 10.7066 37.6416C10.8529 37.8001 11.0548 37.8925 11.2692 37.8925Z" fill="#7C7C7C" stroke="#7C7C7C" stroke-width="0.4"/>
<path d="M14.1998 37.8925L14.2004 37.8925C14.4144 37.8919 14.6158 37.7993 14.7617 37.6409C14.9071 37.4831 14.9863 37.2724 14.9862 37.0557V34.2035C14.9906 34.0941 14.9747 33.9845 14.9393 33.8812C14.9033 33.7764 14.8477 33.6796 14.775 33.5969C14.7024 33.5143 14.6141 33.4474 14.5149 33.4014C14.4157 33.3554 14.3082 33.3313 14.1991 33.3313C14.09 33.3313 13.9825 33.3554 13.8833 33.4014C13.7842 33.4474 13.6959 33.5143 13.6232 33.5969C13.5506 33.6796 13.495 33.7764 13.459 33.8812C13.4236 33.9845 13.4077 34.0941 13.412 34.2035V37.0557C13.412 37.2727 13.4915 37.4837 13.6372 37.6416C13.7835 37.8001 13.9855 37.8925 14.1998 37.8925Z" fill="#7C7C7C" stroke="#7C7C7C" stroke-width="0.4"/>
<path d="M17.1281 37.8925H17.1286C17.343 37.8925 17.5449 37.8001 17.6912 37.6416C17.837 37.4837 17.9164 37.2727 17.9164 37.0557V34.2035C17.9208 34.0941 17.9049 33.9845 17.8694 33.8812C17.8335 33.7764 17.7778 33.6796 17.7052 33.5969C17.6326 33.5143 17.5443 33.4474 17.4451 33.4014C17.3459 33.3554 17.2384 33.3313 17.1293 33.3313C17.0202 33.3313 16.9127 33.3554 16.8135 33.4014C16.7144 33.4474 16.6261 33.5143 16.5534 33.5969C16.4808 33.6796 16.4252 33.7764 16.3892 33.8812C16.3537 33.9845 16.3379 34.0941 16.3422 34.2035V37.0557C16.3422 37.2724 16.4214 37.4831 16.5668 37.6409C16.7126 37.7993 16.9141 37.8919 17.1281 37.8925Z" fill="#7C7C7C" stroke="#7C7C7C" stroke-width="0.4"/>
<path d="M11.2692 44.0594L11.2697 44.0594C11.4837 44.0588 11.6852 43.9662 11.831 43.8078C11.9764 43.6499 12.0556 43.4392 12.0556 43.2226V40.3719C12.0599 40.2624 12.0441 40.1529 12.0086 40.0496C11.9726 39.9448 11.917 39.8479 11.8444 39.7653C11.7717 39.6827 11.6834 39.6158 11.5843 39.5698C11.4851 39.5237 11.3776 39.4997 11.2685 39.4997C11.1594 39.4997 11.0519 39.5237 10.9527 39.5698C10.8535 39.6158 10.7652 39.6827 10.6926 39.7653C10.6199 39.8479 10.5643 39.9448 10.5284 40.0496C10.4929 40.1529 10.477 40.2624 10.4814 40.3719V43.2226C10.4814 43.4396 10.5608 43.6506 10.7066 43.8085C10.8529 43.967 11.0548 44.0594 11.2692 44.0594Z" fill="#7C7C7C" stroke="#7C7C7C" stroke-width="0.4"/>
<path d="M14.1998 44.0594L14.2004 44.0594C14.4144 44.0588 14.6158 43.9662 14.7617 43.8078C14.9071 43.6499 14.9863 43.4392 14.9862 43.2226V40.3719C14.9906 40.2624 14.9747 40.1529 14.9393 40.0496C14.9033 39.9448 14.8477 39.8479 14.775 39.7653C14.7024 39.6827 14.6141 39.6158 14.5149 39.5698C14.4157 39.5237 14.3082 39.4997 14.1991 39.4997C14.09 39.4997 13.9825 39.5237 13.8833 39.5698C13.7842 39.6158 13.6959 39.6827 13.6232 39.7653C13.5506 39.8479 13.495 39.9448 13.459 40.0496C13.4236 40.1529 13.4077 40.2624 13.412 40.3719V43.2226C13.412 43.4396 13.4915 43.6506 13.6372 43.8085C13.7835 43.967 13.9855 44.0594 14.1998 44.0594Z" fill="#7C7C7C" stroke="#7C7C7C" stroke-width="0.4"/>
<path d="M17.1281 44.0594H17.1286C17.343 44.0594 17.5449 43.967 17.6912 43.8085C17.837 43.6506 17.9164 43.4396 17.9164 43.2226V40.3719C17.9208 40.2624 17.9049 40.1529 17.8694 40.0496C17.8335 39.9448 17.7778 39.8479 17.7052 39.7653C17.6326 39.6827 17.5443 39.6158 17.4451 39.5698C17.3459 39.5237 17.2384 39.4997 17.1293 39.4997C17.0202 39.4997 16.9127 39.5237 16.8135 39.5698C16.7144 39.6158 16.6261 39.6827 16.5534 39.7653C16.4808 39.8479 16.4252 39.9448 16.3892 40.0496C16.3537 40.1529 16.3379 40.2624 16.3422 40.3719V43.2226C16.3422 43.4392 16.4214 43.6499 16.5668 43.8078C16.7126 43.9662 16.9141 44.0588 17.1281 44.0594Z" fill="#7C7C7C" stroke="#7C7C7C" stroke-width="0.4"/>
<path d="M11.2692 50.2278L11.2697 50.2278C11.4837 50.2272 11.6852 50.1346 11.831 49.9762C11.9764 49.8183 12.0556 49.6076 12.0556 49.391V46.5433C12.0599 46.4339 12.0441 46.3244 12.0086 46.2211C11.9726 46.1162 11.917 46.0194 11.8444 45.9368C11.7717 45.8541 11.6834 45.7873 11.5843 45.7413C11.4851 45.6952 11.3776 45.6712 11.2685 45.6712C11.1594 45.6712 11.0519 45.6952 10.9527 45.7413C10.8535 45.7873 10.7652 45.8541 10.6926 45.9368C10.6199 46.0194 10.5643 46.1162 10.5284 46.2211C10.4929 46.3244 10.477 46.4339 10.4814 46.5433V49.3955H10.4814L10.4814 49.3969C10.4828 49.6128 10.5629 49.8224 10.7085 49.9791C10.8547 50.1363 11.0559 50.2278 11.2692 50.2278Z" fill="#7C7C7C" stroke="#7C7C7C" stroke-width="0.4"/>
<path d="M14.1998 50.2278L14.2004 50.2278C14.4144 50.2272 14.6158 50.1346 14.7617 49.9762C14.9071 49.8183 14.9863 49.6076 14.9862 49.391V46.5433C14.9906 46.4339 14.9747 46.3244 14.9393 46.2211C14.9033 46.1162 14.8477 46.0194 14.775 45.9368C14.7024 45.8541 14.6141 45.7873 14.5149 45.7413C14.4157 45.6952 14.3082 45.6712 14.1991 45.6712C14.09 45.6712 13.9825 45.6952 13.8833 45.7413C13.7842 45.7873 13.6959 45.8541 13.6232 45.9368C13.5506 46.0194 13.495 46.1162 13.459 46.2211C13.4236 46.3244 13.4077 46.4339 13.412 46.5433V49.3955H13.412L13.412 49.3969C13.4135 49.6128 13.4935 49.8224 13.6392 49.9791C13.7854 50.1363 13.9865 50.2278 14.1998 50.2278Z" fill="#7C7C7C" stroke="#7C7C7C" stroke-width="0.4"/>
<path d="M17.1281 50.2278H17.1286C17.343 50.2278 17.5449 50.1354 17.6912 49.9769C17.837 49.819 17.9164 49.608 17.9164 49.391V46.5433C17.9208 46.4339 17.9049 46.3244 17.8694 46.2211C17.8335 46.1162 17.7778 46.0194 17.7052 45.9368C17.6326 45.8541 17.5443 45.7873 17.4451 45.7413C17.3459 45.6952 17.2384 45.6712 17.1293 45.6712C17.0202 45.6712 16.9127 45.6952 16.8135 45.7413C16.7144 45.7873 16.6261 45.8541 16.5534 45.9368C16.4808 46.0194 16.4252 46.1162 16.3892 46.2211C16.3537 46.3244 16.3379 46.4339 16.3422 46.5433V49.3955H16.3422L16.3422 49.3969C16.3436 49.6125 16.4235 49.8217 16.5687 49.9783C16.7145 50.1355 16.9151 50.2272 17.1281 50.2278Z" fill="#7C7C7C" stroke="#7C7C7C" stroke-width="0.4"/>
<path d="M25.7675 33.2338H32C32.2143 33.2338 32.4163 33.1414 32.5626 32.9829C32.7084 32.825 32.7878 32.614 32.7878 32.397V26.5226C32.7878 26.3056 32.7084 26.0946 32.5626 25.9367C32.4163 25.7782 32.2143 25.6858 32 25.6858H25.7675C25.5532 25.6858 25.3512 25.7782 25.2049 25.9367C25.0591 26.0946 24.9797 26.3056 24.9797 26.5226V32.397C24.9797 32.614 25.0591 32.825 25.2049 32.9829C25.3512 33.1414 25.5532 33.2338 25.7675 33.2338ZM31.2095 27.3594L31.2121 31.5617H29.6687V27.3594H31.2095ZM26.5497 27.3594H28.0903V31.5617H26.5497V27.3594Z" fill="#7C7C7C" stroke="#7C7C7C" stroke-width="0.4"/>
<path d="M32.7878 42.932V42.9316V37.0557C32.7878 36.8387 32.7084 36.6277 32.5626 36.4697C32.4163 36.3113 32.2143 36.2189 32 36.2189H25.7675C25.5532 36.2189 25.3512 36.3113 25.2049 36.4697C25.0591 36.6277 24.9797 36.8387 24.9797 37.0557L24.9797 42.9316L24.9797 42.932C24.9802 43.1487 25.0598 43.3592 25.2056 43.5167C25.3518 43.6748 25.5535 43.7669 25.7675 43.7669H32C32.214 43.7669 32.4157 43.6748 32.5619 43.5167C32.7077 43.3592 32.7873 43.1487 32.7878 42.932ZM31.2095 37.8925L31.2121 42.0948H29.6687V37.8925H31.2095ZM26.5497 37.8925H28.0903V42.0948H26.5497V37.8925Z" fill="#7C7C7C" stroke="#7C7C7C" stroke-width="0.4"/>
<path d="M32.7878 53.465V53.4646V47.5887C32.7878 47.3717 32.7084 47.1607 32.5626 47.0028C32.4163 46.8443 32.2143 46.7519 32 46.7519H25.7675C25.5532 46.7519 25.3512 46.8443 25.2049 47.0028C25.0591 47.1607 24.9797 47.3717 24.9797 47.5887L24.9797 53.4646L24.9797 53.465C24.9802 53.6817 25.0598 53.8922 25.2056 54.0497C25.3518 54.2078 25.5535 54.2999 25.7675 54.2999H32C32.214 54.2999 32.4157 54.2078 32.5619 54.0497C32.7077 53.8922 32.7873 53.6817 32.7878 53.465ZM31.2095 48.4255L31.2121 52.6278H29.6687V48.4255H31.2095ZM26.5497 48.4255H28.0903V52.6278H26.5497V48.4255Z" fill="#7C7C7C" stroke="#7C7C7C" stroke-width="0.4"/>
</svg>
