<svg width="72" height="71" viewBox="0 0 72 71" fill="none" xmlns="http://www.w3.org/2000/svg">
<path d="M71.1598 63.1626C70.6572 62.5845 69.7814 62.5235 69.2034 63.0261C69.0557 63.1545 68.909 63.2835 68.7628 63.412C67.4456 64.5703 66.1625 65.6985 64.4162 66.1812C62.2594 66.7773 60.2097 66.3068 58.2578 65.3308L65.4797 41.0298C65.6594 40.4253 65.4084 39.7756 64.8691 39.4487L58.1875 35.3998V23.5765C58.1875 22.8106 57.5666 22.1896 56.8007 22.1896H54.0273V18.0291C54.0273 17.2632 53.4065 16.6422 52.6406 16.6422H48.2724V12.4817C48.2724 11.7158 47.6516 11.0948 46.8857 11.0948H40.1602V1.38685C40.1602 0.621032 39.5393 0 38.7734 0H33.2266C32.4607 0 31.8399 0.621032 31.8399 1.38685V11.0948H25.1143C24.3484 11.0948 23.7276 11.7158 23.7276 12.4817V16.6422H19.3594C18.5935 16.6422 17.9727 17.2632 17.9727 18.0291V22.1896H15.1993C14.4334 22.1896 13.8125 22.8106 13.8125 23.5765V35.3998L7.13107 39.4485C6.59164 39.7754 6.34078 40.4252 6.5205 41.0297L13.7277 65.281C13.6084 64.8797 11.5179 64.6112 11.0338 64.5491L10.9934 64.5439C6.95565 64.0213 3.88532 66.0442 0.976826 68.5734C0.398843 69.076 0.337827 69.9518 0.840235 70.5298C1.3199 71.0815 2.21253 71.1741 2.79648 70.6664C5.79289 68.0613 9.17107 66.0755 13.1357 68.0583C16.7223 69.8516 20.4348 70.6206 24.1705 68.6546C27.1827 67.0689 30.0895 65.6997 33.4518 67.3007L36.9084 68.9468C39.8658 70.3553 43.2421 70.3229 46.1716 68.8578C46.5207 68.6832 46.8709 68.4975 47.2236 68.3104C48.6949 67.5301 50.2103 66.7264 51.8736 66.6121C53.8949 66.4733 55.8479 67.2259 57.6239 68.1147C59.9701 69.288 62.7168 69.5224 65.2361 68.8041C67.5408 68.147 69.2223 66.6848 70.9862 65.1509L71.023 65.1189C71.6012 64.6164 71.6622 63.7406 71.1598 63.1626ZM55.414 24.9633V33.7192L40.9647 24.9633H55.414ZM34.6133 2.7737H37.3867V11.0948H34.6133V2.7737ZM26.501 13.8685H45.499V16.6422H26.501V13.8685ZM16.586 24.9633H31.0353L16.586 33.7192V24.9633ZM34.6133 64.7817C34.613 64.5353 32.6365 64.0808 32.3779 64.0248C29.9645 63.5023 27.3735 63.8341 25.1856 64.9859C24.9327 65.1189 24.6813 65.2555 24.4299 65.3921C23.103 66.1131 21.7773 66.8335 20.2508 67.0301L20.2408 67.0313C19.18 67.1603 18.0942 67.0822 17.0674 66.7828L9.48391 41.266L34.6133 26.0384V64.7817ZM20.7461 22.1896V19.4159H51.2539V22.1896H20.7461ZM55.6944 64.2193C55.7098 63.7903 51.8062 63.7941 51.5447 63.8217C49.4908 64.039 47.6735 64.9726 45.8647 65.9018C45.5537 66.0616 45.2429 66.2213 44.9312 66.3771C42.4218 67.632 39.8397 67.2712 37.3867 66.1025V26.0384L62.5161 41.266L55.6944 64.2193Z" fill="#7C7C7C"/>
<path d="M71.1598 63.1626C70.6572 62.5845 69.7814 62.5235 69.2034 63.0261C69.0557 63.1545 68.909 63.2835 68.7628 63.412C67.4456 64.5703 66.1625 65.6985 64.4162 66.1812C62.2594 66.7773 60.2097 66.3068 58.2578 65.3308L65.4797 41.0298C65.6594 40.4253 65.4084 39.7756 64.8691 39.4487L58.1875 35.3998V23.5765C58.1875 22.8106 57.5666 22.1896 56.8007 22.1896H54.0273V18.0291C54.0273 17.2632 53.4065 16.6422 52.6406 16.6422H48.2724V12.4817C48.2724 11.7158 47.6516 11.0948 46.8857 11.0948H40.1602V1.38685C40.1602 0.621032 39.5393 0 38.7734 0H33.2266C32.4607 0 31.8399 0.621032 31.8399 1.38685V11.0948H25.1143C24.3484 11.0948 23.7276 11.7158 23.7276 12.4817V16.6422H19.3594C18.5935 16.6422 17.9727 17.2632 17.9727 18.0291V22.1896H15.1993C14.4334 22.1896 13.8125 22.8106 13.8125 23.5765V35.3998L7.13107 39.4485C6.59164 39.7754 6.34078 40.4252 6.5205 41.0297L13.7277 65.281C13.6084 64.8797 11.5179 64.6112 11.0338 64.5491L10.9934 64.5439C6.95565 64.0213 3.88532 66.0442 0.976826 68.5734C0.398843 69.076 0.337827 69.9518 0.840235 70.5298C1.3199 71.0815 2.21253 71.1741 2.79648 70.6664C5.79289 68.0613 9.17107 66.0755 13.1357 68.0583C16.7223 69.8516 20.4348 70.6206 24.1705 68.6546C27.1827 67.0689 30.0895 65.6997 33.4518 67.3007L36.9084 68.9468C39.8658 70.3553 43.2421 70.3229 46.1716 68.8578C46.5207 68.6832 46.8709 68.4975 47.2236 68.3104C48.6949 67.5301 50.2103 66.7264 51.8736 66.6121C53.8949 66.4733 55.8479 67.2259 57.6239 68.1147C59.9701 69.288 62.7168 69.5224 65.2361 68.8041C67.5408 68.147 69.2223 66.6848 70.9862 65.1509L71.023 65.1189C71.6012 64.6164 71.6622 63.7406 71.1598 63.1626ZM55.414 24.9633V33.7192L40.9647 24.9633H55.414ZM34.6133 2.7737H37.3867V11.0948H34.6133V2.7737ZM26.501 13.8685H45.499V16.6422H26.501V13.8685ZM16.586 24.9633H31.0353L16.586 33.7192V24.9633ZM34.6133 64.7817C34.613 64.5353 32.6365 64.0808 32.3779 64.0248C29.9645 63.5023 27.3735 63.8341 25.1856 64.9859C24.9327 65.1189 24.6813 65.2555 24.4299 65.3921C23.103 66.1131 21.7773 66.8335 20.2508 67.0301L20.2408 67.0313C19.18 67.1603 18.0942 67.0822 17.0674 66.7828L9.48391 41.266L34.6133 26.0384V64.7817ZM20.7461 22.1896V19.4159H51.2539V22.1896H20.7461ZM55.6944 64.2193C55.7098 63.7903 51.8062 63.7941 51.5447 63.8217C49.4908 64.039 47.6735 64.9726 45.8647 65.9018C45.5537 66.0616 45.2429 66.2213 44.9312 66.3771C42.4218 67.632 39.8397 67.2712 37.3867 66.1025V26.0384L62.5161 41.266L55.6944 64.2193Z" stroke="black"/>
</svg>
