<svg width="75" height="73" viewBox="0 0 75 73" fill="none" xmlns="http://www.w3.org/2000/svg">
<path d="M71.0397 37.0443H55.652V34.3693C55.652 33.3684 54.8266 32.5541 53.8119 32.5541H41.3787C40.364 32.5541 39.5387 33.3684 39.5387 34.3693V37.0443H37.5242V27.0877C37.5242 25.1359 35.9146 23.5479 33.936 23.5479H29.5497V4.27215C29.5497 3.10227 28.585 2.15044 27.3989 2.15044H25.7224V1.66859C25.7223 0.748631 24.9634 0 24.0307 0H15.6166C14.684 0 13.9251 0.748631 13.9251 1.66859V2.15044H12.2486C11.0627 2.15044 10.0978 3.10227 10.0978 4.27215V23.5479H4.399C2.42045 23.5479 0.810547 25.1359 0.810547 27.0877V38.1039C0.810547 38.6957 1.29682 39.1756 1.89695 39.1756C2.49707 39.1756 2.98335 38.6957 2.98335 38.1039V27.0877C2.98335 26.3178 3.61838 25.6914 4.399 25.6914H33.9359C34.7163 25.6914 35.3512 26.3178 35.3512 27.0877V64.515C35.3512 65.2849 34.7162 65.9114 33.9359 65.9114H4.399C3.61838 65.9114 2.98335 65.2849 2.98335 64.515V42.3907C2.98335 41.7989 2.49707 41.319 1.89695 41.319C1.29682 41.319 0.810547 41.7989 0.810547 42.3907V64.5149C0.810547 66.4667 2.4203 68.0547 4.399 68.0547H6.60801V71.9246C6.60801 72.5164 7.09428 72.9963 7.69441 72.9963C8.29453 72.9963 8.78081 72.5164 8.78081 71.9246V68.0547H21.0009V69.8924C21.0009 71.6059 22.414 72.9999 24.1507 72.9999H71.0397C72.7765 72.9999 74.1896 71.6059 74.1896 69.8924V40.1516C74.1896 38.4382 72.7767 37.0443 71.0397 37.0443ZM16.0979 2.14344H23.5493V4.30088H16.0979V2.14344ZM12.2706 4.29387H13.9251V4.77572C13.9251 5.69582 14.6839 6.44431 15.6166 6.44431H24.0307C24.9634 6.44431 25.7223 5.69582 25.7223 4.77572V4.29387H27.3768V23.5479H12.2706V4.29387ZM63.1988 39.1877V70.7047H61.025V39.1877H63.1988ZM37.524 64.515V39.1877H47.5952C48.1954 39.1877 48.6816 38.7079 48.6816 38.116C48.6816 37.5241 48.1954 37.0443 47.5952 37.0443H41.7113V34.6975H53.479V37.0443H51.9408C51.3407 37.0443 50.8544 37.5241 50.8544 38.116C50.8544 38.7079 51.3407 39.1877 51.9408 39.1877H58.8522V70.8564H31.7269V68.0547H33.9359C35.9144 68.0548 37.524 66.4668 37.524 64.515ZM23.1737 69.8926V68.0548H29.5541V70.8566H24.1507C23.6119 70.8566 23.1737 70.424 23.1737 69.8926ZM72.0168 69.8926C72.0168 70.4242 71.5786 70.8566 71.0397 70.8566H65.3716V39.1877H71.0397C71.5786 39.1877 72.0168 39.6201 72.0168 40.1517V69.8926Z" fill="#7C7C7C"/>
<path d="M42.4907 62.8791H50.5181C51.8611 62.8791 52.9538 61.8013 52.9538 60.4763V57.3578C52.9538 56.0328 51.8611 54.955 50.5181 54.955H42.4907C41.1478 54.955 40.0552 56.0328 40.0552 57.3578V60.4763C40.0552 61.8013 41.1478 62.8791 42.4907 62.8791ZM42.228 57.3578C42.228 57.2147 42.3459 57.0984 42.4907 57.0984H50.5181C50.6631 57.0984 50.781 57.2147 50.781 57.3578V60.4763C50.781 60.6194 50.6631 60.7357 50.5181 60.7357H42.4907C42.3459 60.7357 42.228 60.6194 42.228 60.4763V57.3578Z" fill="#7C7C7C"/>
<path d="M10.0263 60.3829V31.2199C10.0263 30.628 9.54004 30.1481 8.93991 30.1481C8.33979 30.1481 7.85352 30.628 7.85352 31.2199V60.383C7.85352 60.9749 8.33979 61.4547 8.93991 61.4547C9.54004 61.4546 10.0263 60.9747 10.0263 60.3829Z" fill="#7C7C7C"/>
<path d="M16.8447 60.3829V31.2199C16.8447 30.628 16.3584 30.1481 15.7583 30.1481C15.1581 30.1481 14.6719 30.628 14.6719 31.2199V60.383C14.6719 60.9749 15.1581 61.4547 15.7583 61.4547C16.3583 61.4546 16.8447 60.9747 16.8447 60.3829Z" fill="#7C7C7C"/>
<path d="M23.663 60.3829V31.2199C23.663 30.628 23.1768 30.1481 22.5766 30.1481C21.9765 30.1481 21.4902 30.628 21.4902 31.2199V60.383C21.4902 60.9749 21.9765 61.4547 22.5766 61.4547C23.1768 61.4547 23.663 60.9747 23.663 60.3829Z" fill="#7C7C7C"/>
<path d="M30.4814 60.3829V31.2199C30.4814 30.628 29.9951 30.1481 29.395 30.1481C28.7949 30.1481 28.3086 30.628 28.3086 31.2199V60.383C28.3086 60.9749 28.7949 61.4547 29.395 61.4547C29.9951 61.4546 30.4814 60.9747 30.4814 60.3829Z" fill="#7C7C7C"/>
</svg>
