<svg width="14" height="13" viewBox="0 0 14 13" fill="none" xmlns="http://www.w3.org/2000/svg">
<g clip-path="url(#clip0_1439_16868)">
<path fill-rule="evenodd" clip-rule="evenodd" d="M9.48336 1.25205C11.4911 1.64247 12.9935 2.71135 13.539 4.79741C13.7513 5.60913 14.0183 6.44949 13.999 7.27041C13.9503 9.33182 12.8946 11.2642 10.526 12.0952C9.28095 12.5322 8.02814 12.4912 6.74531 12.2882C5.00777 12.013 3.48054 11.2903 2.07069 10.2748C1.05204 9.54109 0.390674 8.56738 0.158331 7.3314C0.0610737 6.8144 -0.0242979 6.27762 0.00632828 5.75688C0.120591 3.81399 1.35622 1.70373 3.55567 1.19627C5.8673 0.662955 8.38681 1.03889 9.48336 1.25205Z" fill="#CA4140"/>
</g>
<defs>
<clipPath id="clip0_1439_16868">
<rect width="14" height="11.512" fill="white" transform="translate(0 0.923096)"/>
</clipPath>
</defs>
</svg>
