<svg width="117" height="351" viewBox="0 0 117 351" fill="none" xmlns="http://www.w3.org/2000/svg">
<path d="M114.349 227.633C113.227 251.713 112.111 275.796 110.989 299.88C110.398 312.59 109.353 326.429 100.588 335.828C96.0471 340.701 89.8592 343.819 83.5179 346.052C74.3153 349.297 64.4993 350.791 54.7227 350.583C42.1604 350.315 29.6588 347.241 18.5682 341.451C11.6418 337.831 4.93414 332.803 2.19316 325.605C0.453165 321.042 0.475 316.05 0.51866 311.181C0.917986 266.666 1.31785 222.155 1.71718 177.639C1.81568 166.355 2.04515 154.556 7.53828 144.638C11.7898 136.957 16.7468 131.575 18.3441 122.717C20.0239 113.372 30.917 53.2117 31.0922 45.296C31.2892 36.4001 27.454 34.0813 31.2072 24.8052C22.661 24.7839 27.848 19.0911 29.2595 14.903C30.6108 10.9023 30.7093 5.73394 34.7361 3.21658C36.3281 2.21507 38.2651 1.90999 40.1473 1.6688C51.3854 0.233883 62.8312 0.340902 74.0421 1.99039C75.5521 2.20975 77.1334 2.49354 78.3096 3.44713C79.3825 4.31979 80.6523 8.23319 81.1943 9.48654C83.6622 15.2278 90.1398 20.0469 82.1516 23.0727C85.8776 21.6639 83.6606 42.447 83.4801 45.4728C82.4956 61.7967 92.8089 120.168 94.8332 126.761C96.8139 133.23 100.693 138.95 103.784 144.98C116.668 170.082 115.656 199.57 114.349 227.633Z" fill="#222222"/>
<path d="M9.94878 190.313C8.16352 172.034 12.3916 153.219 21.8253 137.461C22.4551 136.409 23.2293 135.28 24.4257 135.01C26.556 134.529 28.0793 136.931 29.8927 138.148C31.8021 139.429 35.0169 138.962 35.6335 136.747C36.127 134.974 34.7544 133.226 33.279 132.125C31.8036 131.024 30.0482 130.114 29.2149 128.472C28.5164 127.095 28.6106 125.466 28.7272 123.925C30.1978 104.504 32.5826 85.1519 35.8709 65.9545C36.6653 61.3132 37.514 56.681 38.4133 52.0589C38.974 49.1779 38.5177 48.4746 41.2805 48.6908C43.5327 48.8665 45.9148 49.8866 48.1808 50.2433C52.6464 50.9462 57.1992 51.0947 61.702 50.6906C62.8047 50.591 74.5236 48.8303 74.3623 48.014C79.3741 73.3457 82.9238 98.967 84.9881 124.707C85.1052 126.166 85.2011 127.712 84.5392 129.017C83.7182 130.636 81.9521 131.49 80.4768 132.548C79.0019 133.607 77.6341 135.369 78.2091 137.09C78.658 138.434 80.2409 139.184 81.6396 138.96C83.0383 138.736 84.2123 137.716 84.9375 136.499C85.4247 135.683 85.8038 134.706 86.6514 134.274C88.2844 133.443 89.993 135.219 90.9375 136.791C99.6444 151.277 104.969 167.783 106.367 184.627C100.832 174.71 92.6333 166.181 82.5809 160.895C72.5286 155.609 60.6089 153.696 49.5471 156.27C32.0954 160.334 18.7925 174.728 9.94878 190.313Z" fill="#CAB99A"/>
<path d="M15.066 240.645C15.1677 245.902 15.4494 250.484 16.1357 255.04C17.4652 263.862 19.8462 272.36 23.9721 280.31C27.6432 287.385 32.3217 293.651 38.9628 298.23C47.1612 303.882 56.0396 305.537 65.6176 302.403C71.231 300.567 75.9798 297.303 80.1696 293.199C86.4827 287.015 90.8928 279.582 94.2051 271.465C98.7441 260.342 100.818 248.717 101.069 236.742C101.21 230.027 100.638 223.362 99.391 216.763C97.8422 208.566 95.2631 200.722 91.183 193.414C88.548 188.694 85.3486 184.412 81.384 180.711C79.2756 178.742 76.8812 177.146 74.6221 175.376C70.4574 172.113 65.7129 170.369 60.3949 170.324C55.6371 170.283 51.2338 171.616 47.1112 173.921C42.799 176.333 39.057 179.5 35.4663 182.858C35.1585 183.146 34.8471 183.456 34.7017 183.849C34.2449 185.087 33.3648 186.029 32.5273 186.99C26.9021 193.448 22.8971 200.811 20.1758 208.908C16.642 219.42 15.0506 230.232 15.066 240.645Z" fill="#C94140"/>
<path d="M9.12291 290.404C11.727 291.223 14.4792 297.733 16.3449 299.993C18.8138 302.985 21.3817 305.905 24.1653 308.609C29.4369 313.73 35.4683 318.153 42.4411 320.64C53.7948 324.69 66.7175 323.173 77.5409 317.865C88.3637 312.557 97.4417 301.693 104.05 291.611C102.665 302.522 105.555 318.519 99.0001 327.351C96.2373 331.073 91.907 334.461 87.7343 336.48C70.4744 344.834 49.9181 344.684 31.7935 338.422C25.7471 336.333 17.307 331.399 13.3409 326.379C6.60555 317.855 7.524 300.76 9.12291 290.404Z" fill="#C9B99A"/>
<path d="M76.7298 25.7987C77.4784 29.2616 78.2275 32.7246 78.9766 36.187C79.1113 36.811 79.245 37.4707 79.0432 38.0761C78.737 38.9961 77.7712 39.5004 76.8815 39.8858C64.4465 45.2773 49.8572 45.4855 37.2731 40.4507C36.8988 40.3011 36.4984 40.1228 36.3057 39.7682C36.1039 39.3971 36.1885 38.9424 36.2785 38.5297C37.3727 33.5142 37.9951 28.3762 40.6077 23.8824C41.3132 25.3722 43.2907 26.1032 44.7953 25.4313C46.1935 24.8073 47.0353 23.2392 48.4857 22.7494C51.1947 21.8336 53.6295 25.1448 56.4887 25.188C59.1647 25.2279 61.3019 22.3985 63.9699 22.6062C65.4693 22.7228 66.6981 23.7765 67.9574 24.6001C69.2155 25.4238 70.8852 26.0462 72.1785 25.2779C73.3743 24.5682 74.3375 22.7505 75.5951 23.3441C76.2133 23.6354 76.4257 24.393 76.57 25.0607C76.6233 25.3067 76.677 25.5527 76.7298 25.7987ZM45.0243 35.1573C45.0243 33.7399 45.0248 32.6586 45.0238 31.5766C45.0232 31.4233 45.0365 31.2513 44.8736 31.1661C44.6867 31.0682 44.5302 31.1901 44.3918 31.2902C44.1681 31.4521 44.0553 31.6959 43.9807 31.9541C43.3764 34.0519 42.8908 36.1716 42.7939 38.3647C42.7737 38.8274 42.8717 39.2506 43.1693 39.5999C43.567 40.0669 44.0627 40.1781 44.6596 39.9902C45.2511 39.8044 45.2043 39.3539 45.1484 38.9179C44.9742 37.5554 45.0392 36.1875 45.0243 35.1573Z" fill="#C9B99A"/>
<path d="M71.9429 9.72447C73.2527 9.52747 74.6029 9.3507 75.9665 9.37573C76.2663 9.38105 76.6251 9.41885 76.7385 9.57699C76.8014 9.66644 76.7625 9.76866 76.7007 9.85865C76.3009 10.4433 75.1322 10.7068 74.0779 10.8878C63.0198 12.7844 49.6099 12.8866 38.7919 10.4076C37.8872 10.2005 36.8543 9.58977 37.5614 9.20748C37.9235 9.01207 38.5022 9.06638 38.9846 9.13879C45.0512 10.0461 50.5097 10.2063 56.7908 10.2143" fill="#FDFCFC"/>
<path d="M45.5633 38.2817C45.5857 38.8003 45.5873 39.3748 45.222 39.764C44.7796 40.2352 43.9303 40.2123 43.3995 39.8295C42.8681 39.4472 42.6184 38.8035 42.5588 38.1784C42.3293 35.7718 43.2941 33.1165 44.3573 30.9703C44.4782 30.727 44.7204 30.4405 44.9829 30.5481C45.1736 30.6258 45.2108 30.8601 45.2209 31.0549" fill="#FDFCFC"/>
<path d="M106.868 216.878C106.016 234.189 106.37 253.023 105.519 270.334C105.323 274.32 104.36 277.134 103.132 280.933C102.129 284.034 100.024 286.587 98.2444 289.318C89.2489 303.124 75.2981 316.158 58.8389 316.946C50.0473 317.367 40.6706 313.964 33.3831 309.028C26.0962 304.092 20.8571 296.779 16.4048 289.187C13.4701 284.182 10.498 279.061 9.43207 273.358C8.19895 266.76 8.65897 260.005 8.99441 253.3C9.58169 241.578 9.29045 229.849 9.66049 217.865C9.76644 214.439 9.34689 211.398 9.95652 208.026C10.5683 204.639 12.3509 200.931 13.8215 197.82C19.8268 185.114 29.8574 171.843 42.9121 165.826C55.4739 160.035 68.2337 160.322 79.5708 166.602C88.4764 171.535 95.5072 180.041 100.722 188.785C103.074 192.728 106.17 196.943 107.201 201.418C107.641 203.329 107.375 204.993 107.488 206.948" fill="#CA4140"/>
<path d="M15.1116 240.644C15.0019 234.246 15.5142 227.845 16.7238 221.558C20.1735 203.636 29.6114 185.063 45.3161 175.04C49.2839 172.508 53.7292 170.602 58.4758 170.317C65.3347 169.904 72.0295 172.911 77.4625 177.118C88.2177 185.447 94.7336 198.273 98.1092 211.45C103.295 231.702 101.648 253.64 93.4978 272.891C90.103 280.909 85.5225 288.576 79.055 294.404C72.5864 300.232 64.0669 304.093 55.3653 303.791C45.6777 303.456 36.6476 297.984 30.4527 290.529C24.2578 283.074 20.6245 273.796 18.286 264.389C16.3565 256.628 15.249 248.637 15.1116 240.644ZM94.978 234.66C94.9024 226.329 93.7044 217.998 91.4187 209.998C89.3166 202.639 86.2753 195.425 81.4265 189.503C76.577 183.582 69.7592 179.031 62.1752 178C43.7188 175.491 32.5899 195.666 27.0701 210.25C20.7933 226.833 19.5117 245.356 23.8494 262.578C24.4995 265.16 25.2758 267.71 26.1783 270.214C28.7196 277.267 32.2763 284.101 37.631 289.348C42.9862 294.594 50.3216 298.119 57.8092 297.747C63.7661 297.453 69.4387 294.73 73.9692 290.851C78.5002 286.973 81.9701 281.989 84.8159 276.748C91.786 263.91 95.1111 249.285 94.978 234.66Z" fill="white"/>
<path d="M38.8418 118.802C39.001 121.115 39.1177 123.496 38.8727 125.869C38.819 126.391 38.6992 127.011 38.3994 127.184C38.2306 127.281 38.0539 127.197 37.9021 127.076C36.9176 126.291 36.6184 124.213 36.4507 122.348C34.5691 101.442 36.5561 80.2066 42.677 60.1109C42.8122 59.6663 42.9634 59.1999 43.3079 58.8874C43.6519 58.5748 44.2535 58.4966 44.557 58.8491C44.8041 59.136 44.7599 59.5641 44.7008 59.9384C43.0092 70.7234 41.1249 81.4658 40.1953 92.3126" fill="#FDFCFC"/>
<path d="M19.8568 163.439C19.7913 164.143 19.9334 165.079 19.6108 165.696C19.3456 166.205 18.5805 166.494 18.0289 166.121C17.792 165.962 17.6408 165.716 17.522 165.473C16.7468 163.892 17.0013 162.168 17.3602 160.59C18.9857 153.446 22.7085 146.59 29.3655 142.979C30.0284 142.619 31.2727 142.555 31.3883 143.306C31.5693 144.488 28.4657 146.515 27.7368 147.256C25.4788 149.552 24.268 151.851 22.7633 154.678" fill="#FDFCFC"/>
<path d="M28.2267 328.438C29.1079 328.92 29.98 329.448 30.5833 330.22C30.7158 330.389 30.8324 330.63 30.6679 330.876C30.5753 331.016 30.4171 331.114 30.2654 331.187C29.2793 331.654 28.3726 331.327 27.633 330.965C19.8744 327.169 13.4708 319.986 11.8053 311.187C11.6664 310.451 12.0188 309.172 12.8718 309.11C13.3079 309.077 13.5043 309.456 13.6305 309.804C15.2241 314.171 17.5551 317.332 20.4782 320.763" fill="#FDFCFC"/>
</svg>
