<svg width="199" height="351" viewBox="0 0 199 351" fill="none" xmlns="http://www.w3.org/2000/svg">
<path d="M196.662 96.398C196.357 101.978 196.003 107.55 195.647 113.105C194.475 131.396 193.303 149.688 192.131 167.979C191.422 179.049 190.71 190.149 188.701 201.058C185.65 217.627 179.663 233.49 175.122 249.714C174.556 251.739 174.009 253.881 174.537 255.915C175.237 258.612 177.62 260.461 179.652 262.366C192.569 274.479 193.817 296.953 182.32 310.421C174.503 319.579 162.526 324.111 153.769 332.374C148.446 337.397 144.253 343.838 137.815 347.319C130.181 351.447 120.936 350.615 112.31 349.67C97.1776 348.013 82.045 346.355 66.9129 344.699C55.084 343.403 41.9244 341.396 34.6412 331.985C31.7816 328.292 30.159 323.8 27.6696 319.847C23.6586 313.478 17.4457 308.576 14.2352 301.769C8.69981 290.033 13.4275 276.319 13.8727 263.351C14.5635 243.232 4.67445 224.16 3.27529 204.077C2.33074 190.518 5.29018 176.889 4.11225 163.347C3.14564 152.24 -0.58951 141.147 1.32827 130.165C2.32633 124.451 4.81239 119.117 6.44879 113.553C10.3197 100.391 9.47056 85.9286 15.0518 73.2489C20.4393 61.0101 33.9741 54.2201 43.4996 67.3532C48.3702 74.0688 49.1365 82.8218 49.7351 91.096C51.169 110.912 52.6024 130.727 54.0363 150.543C57.9342 146.014 64.6967 144.203 70.3358 146.179C72.2944 146.864 74.1521 147.967 76.2205 148.134C78.5962 148.327 80.8659 147.262 83.1749 146.671C88.3886 145.338 94.1911 146.542 98.4438 149.84C112.692 147.911 127.391 149.395 140.966 154.133C145.995 139.507 148.302 123.925 147.467 108.481C147.007 99.9908 145.609 91.5407 145.781 83.0392C146.059 69.3163 150.403 56.0413 154.704 43.0069C158.963 30.0994 163.369 16.9128 171.699 6.17296C173.607 3.71339 175.947 1.26375 179.013 0.725826C185.669 -0.440511 189.982 7.47833 191.648 14.0261C198.463 40.8061 198.174 68.695 196.662 96.398Z" fill="#222222"/>
<path d="M122.644 218.336C123.3 218.419 124.016 218.634 124.805 219.001C126.655 219.863 128.104 221.386 129.445 222.926C139.707 234.719 146.514 249.68 158.903 259.215C164.188 263.281 170.483 266.366 174.253 271.866C176.652 275.367 177.804 279.551 178.876 283.657C179.668 286.692 180.337 290.254 178.36 292.689C176.839 294.563 174.18 295.148 172.516 296.895C169.82 299.725 170.412 304.803 167.355 307.239C165.346 308.839 162.345 308.651 160.086 307.429C157.826 306.208 156.157 304.145 154.625 302.084C145.925 290.373 139.574 276.935 129.853 266.058C124.21 259.745 117.535 254.419 110.488 249.725C108.056 248.104 105.527 246.511 103.728 244.209C101.928 241.906 100.983 238.689 102.156 236.013C103.37 233.242 106.377 231.828 108.912 230.178C112.16 228.062 114.77 225.266 116.883 222.038C118.427 219.681 120.081 218.008 122.644 218.336Z" fill="#FDFDFD"/>
<path d="M171.374 165.311C170.343 165.362 169.514 165.275 168.684 165.179C166.471 164.922 164.535 164.118 163.086 162.358C162.677 161.863 162.249 161.745 161.602 161.935C158.58 162.821 155.969 162.004 153.7 159.903C153.307 159.54 152.909 159.177 152.481 158.858C150.156 157.128 149.227 154.84 149.657 151.978C149.986 149.791 150.927 147.828 151.861 145.865C152.263 145.024 152.581 144.169 152.741 143.251C154.159 135.154 155.697 127.079 157.018 118.962C158.071 112.487 158.419 106.003 158.042 99.4623C157.901 96.9956 157.824 94.5216 157.92 92.0466C158.005 89.8271 157.61 87.6555 157.2 85.4867C156.901 83.906 156.598 82.3242 156.375 80.7319C155.966 77.8017 156.414 74.9466 157.508 72.2332C158.853 68.8997 162.464 67.1243 166.006 67.9375C168.256 68.4545 170.352 69.3847 172.392 70.4512C175.704 72.1836 177.486 71.5408 179.911 69.1077C181.682 67.3295 183.621 66.7431 185.986 67.2942C187.707 67.6948 188.842 68.7607 189.281 70.465C189.779 72.3943 189.756 74.3292 189.361 76.3038C188.194 82.1234 189.895 88.4969 188.071 94.045C186.021 100.279 186.039 105.824 185.416 112.332C184.054 126.554 183.351 139.173 185.121 153.626C185.573 157.321 183.469 162.273 180.621 163.676C179.174 164.388 177.596 164.747 175.957 164.777C174.349 164.806 172.819 165.55 171.374 165.311Z" fill="#FDFDFD"/>
<path d="M25.0555 260.922C25.076 259.365 25.5383 257.836 25.9002 256.314C28.6588 244.707 25.6343 232.55 21.8809 221.225C18.1281 209.902 13.5803 198.57 13.2305 186.645C13.1737 184.71 13.2393 182.72 13.9748 180.929C16.777 174.105 26.0459 177.588 30.2345 180.984C33.632 176.289 40.304 174.282 45.728 176.323C46.203 176.502 46.6984 176.735 46.9572 177.171C47.2286 177.63 47.1762 178.203 47.1161 178.732C45.7153 190.954 44.4849 203.241 44.8916 215.536C45.2982 227.832 47.3892 240.198 52.3867 251.44C53.1458 253.148 53.9828 254.868 54.1831 256.727C54.3839 258.586 53.8074 260.658 52.2565 261.702C50.1958 263.089 47.4162 262.194 44.9627 262.586C40.8976 263.234 38.123 267.334 34.1109 268.255C29.8974 269.222 25.2525 265.686 25.0622 261.368C25.0555 261.219 25.0539 261.071 25.0555 260.922Z" fill="#FDFDFD"/>
<path d="M178.832 180.393C179.01 184.375 178.289 188.25 177.199 192.031C175.654 197.385 174.337 202.796 172.878 208.17C171.902 211.765 170.601 215.259 169.654 218.863C167.841 225.756 166.619 232.767 165.369 239.775C164.778 243.089 163.955 246.353 162.916 249.56C162.699 250.23 162.537 250.459 161.889 249.871C160.036 248.191 158.134 246.57 156.128 245.064C154.198 243.617 152.855 241.615 151.532 239.628C149.43 236.475 147.168 233.461 144.558 230.698C141.771 227.747 139.974 224.176 138.621 220.394C138.225 219.291 138.241 218.051 138.283 216.851C138.433 212.507 139.193 208.262 140.407 204.101C141.459 200.497 142.208 196.815 143.27 193.213C143.637 191.97 143.813 190.627 143.811 189.329C143.804 186.098 144.246 182.917 144.665 179.731C144.766 178.971 144.668 178.263 144.434 177.539C143.801 175.576 143.301 173.59 143.468 171.49C143.78 167.581 146.515 165.498 150.36 166.262C152.773 166.742 154.761 168.028 156.614 169.565C156.981 169.869 157.325 170.2 157.691 170.505C159.411 171.937 161.249 172.211 163.347 171.302C166.367 169.991 169.523 169.904 172.731 170.517C175.591 171.063 179.345 174.369 178.844 178.341C178.759 179.015 178.832 179.709 178.832 180.393Z" fill="#FDFDFD"/>
<path d="M55.1953 202.415C55.4463 200.145 55.1385 197.907 54.9178 195.649C54.5614 192.002 54.5023 188.328 54.7329 184.669C55.1418 178.186 55.9252 171.737 56.5961 165.278C56.8311 163.017 57.5688 160.939 58.8708 159.049C60.131 157.22 61.8198 156.228 64.0316 156.152C64.7329 156.128 65.3668 155.967 65.9935 155.642C70.0084 153.559 74.0685 153.648 78.1121 155.529C78.7951 155.846 79.2415 155.842 79.8726 155.411C81.9973 153.959 84.3383 153.463 86.8458 154.226C89.0991 154.911 90.4044 156.632 90.4977 158.984C90.5517 160.336 90.3984 161.663 89.8069 162.907C89.6519 163.235 89.5575 163.576 89.5675 163.942C89.7451 170.285 89.4985 176.636 89.9316 182.974C89.9581 183.361 89.9697 183.748 90.0044 184.134C90.0458 184.6 89.8538 184.644 89.4875 184.455C89.0643 184.236 88.624 184.05 88.2042 183.824C83.4439 181.273 78.3096 180.403 72.9976 180.757C69.4137 180.996 66.6385 182.742 64.4046 185.708C62.4438 188.313 62.1271 190.968 62.729 193.953C62.8879 194.742 62.9916 195.541 63.1378 196.331C64.2429 202.306 66.1464 207.972 69.5908 213.048C70.8619 214.922 72.0078 216.864 72.9585 218.934C74.4536 222.191 76.5993 225.004 79.2155 227.455C80.2373 228.412 81.2299 229.402 82.2671 230.341C82.8795 230.896 83.2436 231.56 83.2696 232.365C83.3954 236.264 83.9548 240.146 83.8169 244.053C83.6602 248.493 79.5019 250.915 75.5367 248.929C75.4037 248.863 75.2663 248.803 75.1405 248.724C73.6547 247.799 72.2898 247.891 71.0175 249.15C70.5519 249.61 69.9952 249.975 69.3817 250.225C67.7419 250.891 66.292 250.772 64.8051 249.606C61.6653 247.145 60.4438 243.787 59.8187 240.038C58.9707 234.949 58.5271 229.812 57.8341 224.707C57.4104 221.584 57.027 218.441 56.163 215.392C56.131 215.277 56.0852 215.161 56.083 215.044C56.0146 210.819 54.7351 206.679 55.1953 202.415Z" fill="#FCFCFC"/>
<path d="M96.9471 180.895C97.0409 176.663 97.3906 173.362 96.8599 170.064C96.7275 169.238 96.8792 168.395 97.1164 167.59C97.741 165.47 98.562 163.422 99.6069 161.478C100.683 159.476 102.424 158.343 104.678 158.109C107.22 157.844 109.718 157.312 112.273 157.087C114.767 156.867 117.138 157.09 119.499 157.798C120.126 157.985 120.765 158.17 121.349 158.457C123.455 159.494 125.576 160.219 127.998 160.398C131.085 160.627 134.518 164.089 134.684 167.228C134.964 172.541 136.14 177.797 135.68 183.156C135.407 186.338 134.804 189.465 134.284 192.608C133.663 196.368 133.172 200.152 132.282 203.862C131.97 205.162 131.596 206.454 131.15 207.715C130.474 209.631 129.226 210.099 127.201 210.114C124.956 210.13 123.686 209.196 122.62 207.32C121.243 204.895 119.251 202.925 117.03 201.236C113.522 198.569 110.138 195.734 106.466 193.292C103.564 191.362 100.416 189.842 97.3818 188.131C96.6933 187.743 96.53 187.311 96.5923 186.565C96.7738 184.369 96.8715 182.166 96.9471 180.895Z" fill="#FDFDFD"/>
<path d="M42.2561 139.493C42.2732 144.972 42.3201 150.455 43.6128 155.83C43.7662 156.468 43.9328 157.094 44.1921 157.702C45.8991 161.706 45.3728 165.49 43.0379 169.09C42.7185 169.583 42.3052 169.798 41.7011 169.802C39.2244 169.814 36.8002 169.615 34.3555 169.062C31.8413 168.495 29.2449 168.362 26.7169 169.408C24.056 170.509 21.1749 170.715 18.3677 171.201C17.9937 171.266 17.5915 171.228 17.2108 171.175C15.7482 170.972 15.5534 170.707 15.1027 169.29C14.0538 165.989 14.2111 162.626 14.6045 159.279C14.9454 156.382 14.5956 153.582 13.9749 150.775C12.8599 145.73 12.2122 140.623 12.1283 135.454C12.0676 131.729 12.7352 128.094 13.7509 124.533C14.3998 122.259 16.0422 121 18.3953 120.846C21.1103 120.669 23.7591 120.921 26.078 122.587C27.0855 123.311 28.0571 123.354 29.0849 122.503C30.7296 121.14 32.6408 120.356 34.7908 120.188C38.4432 119.904 41.1996 122.06 41.2702 125.714C41.3375 129.186 42.4327 132.531 42.265 136.009C42.2092 137.168 42.2561 138.332 42.2561 139.493Z" fill="#FDFDFD"/>
<path d="M118.501 338.026C118.473 338.026 118.445 338.025 118.416 338.024C116.736 337.933 115.047 338.067 113.379 337.726C113.251 337.7 113.123 337.67 112.998 337.64C110.558 337.045 110.269 335.441 112.35 334.036C112.898 333.667 113.431 333.273 113.946 332.851C116.378 330.852 117.572 328.292 117.697 325.154C117.765 323.428 117.177 321.892 116.605 320.341C116.342 319.628 115.965 318.968 115.538 318.338C114.925 317.434 114.906 316.671 115.44 315.556C116.566 313.203 117.512 310.739 118.127 308.184C118.656 305.985 119.345 303.819 119.626 301.563C119.689 301.052 120.035 300.795 120.438 300.574C123.307 298.997 126.076 297.228 129.132 296.005C129.609 295.814 129.993 295.477 130.386 295.157C133.256 292.829 137.357 293.001 139.988 295.618C141.771 297.391 143.189 299.468 144.496 301.599C146.562 304.968 148.75 308.267 150.532 311.809C151.068 312.874 151.864 313.769 152.799 314.509C153.328 314.929 153.354 315.268 152.983 315.734C149.676 319.885 146.975 324.548 142.812 327.973C139.806 330.447 137.038 333.253 133.509 335.029C129.06 337.268 124.355 338.365 119.352 338.03C119.07 338.01 118.785 338.024 118.501 338.026Z" fill="#FCFCFC"/>
<path d="M75.2656 190.516C77.0471 190.425 79.1723 190.918 81.3042 191.954C91.3471 196.837 101.05 202.418 110.321 208.644C112.176 209.889 114.241 211.635 113.945 213.85C113.555 216.766 109.748 217.463 107.297 219.089C105.173 220.499 103.935 222.867 102.387 224.892C100.838 226.916 98.536 228.782 96.0141 228.415C94.605 228.21 93.3946 227.335 92.2773 226.453C83.1546 219.255 75.9508 209.648 71.5972 198.875C69.3743 193.377 71.5878 190.704 75.2656 190.516Z" fill="#FCFCFC"/>
<path d="M186.052 27.4926C186.097 27.9815 186.137 28.4703 186.176 28.9564C186.721 35.8418 186.984 42.7499 186.965 49.6575C186.956 52.5214 186.847 55.5631 185.26 57.9465C183.653 60.3592 180.758 61.664 177.881 62.0154C175.004 62.3669 172.098 61.8874 169.239 61.4091C166.873 61.013 164.082 60.2742 163.321 57.9984C163.02 57.1002 163.116 56.1231 163.223 55.1818C164.788 41.492 167.654 27.592 175.357 15.9352C176.287 14.5278 177.543 13.0116 179.23 13.026C180.715 13.0387 181.899 14.2607 182.704 15.5082C184.977 19.0298 185.667 23.2896 186.052 27.4926Z" fill="#FCFCFC"/>
<path d="M25.1124 285.774C25.098 280.458 28.0298 277.303 32.6014 277.076C35.12 276.951 37.3137 275.86 39.5288 274.85C41.2077 274.084 42.8088 273.152 44.3238 272.086C45.4306 271.307 46.6504 270.741 47.9277 270.332C49.6876 269.769 51.441 269.197 53.1552 268.504C53.5105 268.361 53.8967 268.274 54.2768 268.217C55.2148 268.077 55.473 268.334 55.5502 269.254C56.2746 277.868 57.1806 286.456 59.5502 294.811C59.7334 295.459 59.6302 295.604 58.9527 295.641C55.324 295.838 52.1549 297.059 49.7643 299.933C49.0763 300.76 48.2471 301.446 47.4681 302.182C45.4979 304.046 43.2695 304.156 40.6775 303.712C36.6737 303.029 34.0276 300.437 31.3286 297.842C28.8249 295.434 26.8784 292.649 25.8671 289.27C25.455 287.893 25.119 286.512 25.1124 285.774Z" fill="#FCFCFC"/>
<path d="M38.9585 93.8673C38.8443 95.8662 39.3756 98.7848 39.5681 101.725C39.7888 105.083 39.9096 108.432 38.468 111.751C37.6266 113.688 35.2818 114.652 33.3204 113.87C31.3155 113.07 30.5343 112.419 29.5185 113.325C28.9541 113.828 28.2032 114.056 27.4413 114.027C25.4148 113.947 23.3911 113.796 21.4629 113.094C18.7512 112.107 17.1512 110.077 17.1572 107.649C17.16 106.509 17.325 105.379 17.7007 104.309C19.8954 98.0477 21.304 91.6019 22.4091 85.0718C22.99 81.6406 23.8513 78.2597 24.5431 74.8478C25.0651 72.2708 26.9503 70.3017 29.2675 68.9373C30.1795 68.3999 31.1075 68.6118 31.9285 69.27C33.0965 70.2062 33.8573 71.4531 34.5265 72.7535C36.3704 76.3353 37.3651 80.1979 38.1662 84.1129C38.7599 87.0089 39.0644 89.9407 38.9585 93.8673Z" fill="#FCFCFC"/>
<path d="M86.0034 260.632C85.8986 263.061 85.3165 265.413 84.6749 267.731C82.8708 274.251 81.2068 280.782 80.5911 287.558C80.2953 290.811 79.5483 294.024 78.9949 297.253C78.894 297.842 78.692 298.405 78.4002 298.931C77.092 301.284 74.0923 301.715 72.1685 299.828C71.6052 299.276 71.1864 298.622 70.9172 297.89C70.5784 296.968 70.195 296.047 69.9969 295.092C68.9178 289.89 67.1555 284.876 65.6648 279.796C64.4896 275.791 63.8491 271.804 63.869 267.666C63.8794 265.341 63.7724 263.018 63.549 260.703C63.4397 259.57 63.8265 258.662 64.6005 257.879C66.7357 255.721 69.3343 255.293 72.19 255.875C72.654 255.969 73.1412 256.081 73.5472 256.31C75.086 257.179 76.5199 257.322 77.9875 256.096C78.5811 255.6 79.4324 255.536 80.2192 255.648C81.1019 255.773 81.9869 255.917 82.8503 256.135C84.5171 256.556 85.8986 258.288 86.0018 260.007C86.0145 260.215 86.0034 260.424 86.0034 260.632Z" fill="#FCFCFC"/>
<path d="M98.3146 272.086C100.013 271.806 101.54 272.593 103.12 272.944C105.43 273.456 107.485 273.132 109.383 271.737C109.503 271.65 109.634 271.577 109.758 271.496C111.847 270.123 112.228 270.138 114.253 271.595C114.586 271.835 114.638 272.16 114.713 272.514C115.162 274.651 114.467 276.713 114.319 278.811C113.887 284.964 112.845 291.045 112.157 297.167C112.025 298.341 112.265 299.555 112.148 300.731C111.879 303.44 111.097 306.036 110.142 308.579C110.009 308.932 109.858 309.278 109.712 309.625C108.936 311.463 106.698 312.279 104.995 311.239C104.681 311.048 104.386 310.815 104.108 310.548C102.258 308.77 100.748 306.779 100.193 304.184C99.5968 301.397 98.3041 298.857 97.2161 296.252C96.2842 294.02 95.4335 291.769 94.8205 289.433C93.8843 285.865 92.6523 282.374 92.1585 278.691C91.753 275.666 93.7585 272.767 96.7477 272.151C96.8536 272.129 96.9595 272.111 97.0666 272.097C97.4771 272.045 97.8986 272.086 98.3146 272.086Z" fill="#FCFCFC"/>
<path d="M87.5841 336.988C84.5613 336.917 81.5814 336.562 78.7081 335.573C73.9175 333.924 72.4808 330.424 74.8504 325.941C76.3919 323.025 77.6548 319.961 79.5423 317.221C80.2087 316.253 80.5365 315.06 81.1009 314.014C82.2032 311.969 83.8766 310.638 86.2727 310.881C88.3428 311.092 90.4073 311.331 92.4873 311.405C92.9281 311.421 93.0887 311.734 93.2757 312.037C93.8876 313.025 94.4928 314.016 95.108 315.001C96.5684 317.341 98.5132 319.2 100.796 320.726C103.417 322.478 106.223 322.523 109.099 321.562C109.873 321.304 110.076 321.533 110.216 322.233C110.802 325.152 109.756 327.793 107.172 329.269C104.892 330.572 102.723 332.021 100.563 333.506C96.6616 336.186 92.255 337.111 87.5841 336.988Z" fill="#FCFCFC"/>
<path d="M43.0257 316.787C43.0726 315.609 43.3131 314.445 43.7699 313.354C46.2576 307.414 53.7048 305.098 59.4504 303.92C60.1643 303.773 60.9113 303.646 61.6137 303.839C62.7679 304.158 63.5094 305.241 64.2338 306.195C66.0054 308.523 68.2514 310.488 70.7893 311.944C71.8586 312.558 72.1979 313.934 71.596 315.01C70.4881 316.991 69.7615 319.204 68.9554 321.341C67.8658 324.23 66.4925 327.181 64.0153 329.025C62.0313 330.503 59.4774 331.122 57.0085 330.96C54.5395 330.799 52.155 329.894 50.0551 328.586C47.5178 327.005 45.328 324.784 44.0855 322.065C43.3341 320.421 42.9539 318.589 43.0257 316.787Z" fill="#FCFCFC"/>
<path d="M110.947 265.155C106.248 265.923 101.497 266.367 96.7383 266.483C95.6763 266.509 94.5188 266.488 93.6912 265.822C92.927 265.207 92.6341 264.19 92.3996 263.236C91.3596 259.019 90.6253 254.726 90.2043 250.403C89.8187 246.447 94.4548 245.604 96.4238 248.729C96.8669 249.432 97.0876 250.257 97.5229 250.966C97.962 251.681 98.602 252.248 99.2486 252.784C102.891 255.798 107.037 258.132 111.195 260.381C111.887 260.755 112.599 261.142 113.097 261.751C113.595 262.36 113.832 263.255 113.457 263.947C113.031 264.736 112.03 264.975 111.145 265.122C111.079 265.133 111.013 265.144 110.947 265.155Z" fill="#FCFCFC"/>
<path d="M123.437 281.661C123.69 280.912 124.653 280.717 125.207 281.279C126.029 282.113 126.792 283.025 127.58 283.88C128.058 284.401 128.556 284.957 128.697 285.65C128.995 287.108 127.609 288.366 126.239 288.944C125.492 289.258 124.684 289.492 123.942 289.818C123.214 290.138 122.406 289.576 122.454 288.781C122.595 286.443 122.746 283.71 123.437 281.661Z" fill="#FCFCFC"/>
</svg>
