<svg width="149" height="351" viewBox="0 0 149 351" fill="none" xmlns="http://www.w3.org/2000/svg">
<path d="M148.366 204.599C147.648 207.029 146.685 209.359 144.998 211.318C144.59 211.794 144.218 212.307 143.799 212.779C142.925 213.768 142.532 214.9 142.479 216.23C142.343 219.649 142.144 223.074 141.929 226.494C141.646 230.998 140.992 235.459 140.154 239.89C139.536 243.157 138.027 245.996 135.472 248.216C134.52 249.044 133.66 249.981 132.687 250.782C131.922 251.416 131.597 252.08 131.734 253.102C131.964 254.815 131.781 256.511 131.341 258.192C130.681 260.712 129.487 262.879 127.492 264.571C126.533 265.388 125.59 266.247 124.538 266.927C123.05 267.886 122.349 269.206 122.066 270.908C120.793 278.554 119.468 286.194 118.165 293.835C116.421 304.052 114.682 314.273 112.943 324.491C112.006 330 110.99 335.499 110.168 341.023C109.828 343.306 108.623 344.422 106.57 345.223C99.0083 348.166 91.1368 349.428 83.1041 350.052C76.2491 350.581 69.4099 350.554 62.5706 349.931C57.8103 349.497 53.1077 348.738 48.5202 347.308C45.8076 346.465 43.4824 344.93 41.0997 343.49C40.2042 342.945 39.8219 342.008 39.6648 340.987C39.3715 339.118 39.0049 337.259 38.7902 335.378C37.9681 328.12 37.2087 320.857 36.4022 313.598C35.9833 309.834 35.491 306.079 35.0616 302.318C34.7055 299.182 34.407 296.04 34.0614 292.903C33.543 288.153 32.6684 283.451 31.8515 278.748C31.3278 275.726 30.7884 272.71 30.27 269.688C30.1233 268.84 29.8405 268.122 28.877 267.929C28.7879 267.908 28.7094 267.851 28.6256 267.824C23.1688 266.06 21.4407 261.682 20.8385 256.576C20.7023 255.424 20.7547 254.214 20.9484 253.072C21.1474 251.868 20.6709 251.224 19.7021 250.674C18.3719 249.92 17.1099 249.05 15.7902 248.276C12.491 246.348 10.6476 243.416 9.48506 239.834C7.86165 234.833 6.94521 229.706 6.18064 224.537C5.70933 221.327 5.27467 218.111 4.87144 214.891C4.74052 213.87 4.44725 213.047 3.65126 212.304C2.0069 210.759 1.2528 208.769 1.07999 206.512C0.922881 204.433 0.760544 202.359 1.37849 200.338C2.24256 197.521 3.59889 195.012 6.14398 193.326C6.7305 192.944 6.95568 192.509 6.83 191.766C5.92403 186.377 6.83 181.171 8.49006 176.055C9.29653 173.552 10.5534 171.263 11.9883 169.064C12.4805 168.315 13.1508 167.671 13.3812 166.755C10.0454 161.402 9.08183 155.553 9.83593 149.374C10.2811 145.708 10.7052 142.032 12.1454 138.57C13.088 136.313 14.1982 134.155 15.7064 132.223C16.8742 130.731 18.0734 129.264 19.2465 127.777C20.43 126.284 22.0167 125.253 23.5983 124.08C21.912 122.142 20.5347 120.152 19.3198 118.042C18.2201 116.12 17.6074 114.072 17.5445 111.868C17.4764 109.616 17.4555 107.369 18.0106 105.149C18.5133 103.112 19.2308 101.184 20.4143 99.4511C21.535 97.812 22.7185 96.2252 23.8444 94.5913C26.1538 91.2293 29.2854 88.8622 32.8622 87.0136C34.297 86.2753 35.7791 85.6207 37.0464 84.678C37.0254 84.4162 37.0673 84.2172 36.994 84.0915C34.7474 80.4153 34.0928 76.3777 34.2866 72.1464C34.3965 69.7636 35.1088 67.5432 36.1404 65.4171C37.4077 62.7882 39.183 60.5259 41.2149 58.4521C45.6295 53.938 50.8297 50.5445 56.5902 48.0885C59.1248 47.0149 60.9943 45.5434 62.3663 43.1763C63.7646 40.7517 65.1366 38.327 66.2625 35.7662C67.3256 33.3416 67.7236 30.7546 67.8912 28.1415C68.242 22.648 68.4986 17.1546 68.8495 11.6612C68.9438 10.1373 69.1951 8.61863 69.4256 7.10519C69.5879 6.02641 70.0592 5.04713 70.5829 4.09403C72.7195 0.213554 79.3912 0.176896 83.1774 1.07239C90.6713 2.84243 96.657 10.5196 99.5477 17.2908C102.925 25.1984 105.423 33.3521 107.256 41.7362C107.293 41.909 107.324 42.0871 107.351 42.2651C107.612 44.2446 108.252 45.9414 110.472 46.4598C115.022 49.0468 118.259 52.8225 120.344 57.5933C122.862 63.359 123.418 69.4075 122.758 75.6131C122.459 78.3939 121.925 81.138 121.187 83.8349C121.029 84.4267 121.082 84.8823 121.548 85.2855C126.57 89.6163 128.984 95.3768 130.356 101.651C131.701 107.809 131.749 113.999 130.314 120.163C129.717 122.723 128.774 125.153 127.418 127.416C127.151 127.861 126.701 128.259 126.868 128.908C133.288 131.181 136.106 136.234 137.117 142.602C137.886 147.441 137.153 152.118 135.362 156.653C135.132 157.234 134.896 157.81 134.681 158.339C134.859 158.554 134.943 158.753 135.068 158.789C137.933 159.528 139.965 161.34 141.609 163.717C143.364 166.252 144.846 168.928 145.951 171.798C147.511 175.851 147.689 180.067 147.076 184.319C146.683 187.089 145.951 189.797 145.013 192.431C144.609 193.567 144.468 194.405 145.61 195.243C146.788 196.112 147.422 197.479 148.035 198.783C148.915 200.661 148.936 202.645 148.366 204.599Z" fill="#222222"/>
<path d="M99.9774 99.2028C99.6271 99.1462 99.2851 99.0373 98.939 98.9524C101.755 96.4398 104.459 93.8157 107.062 91.0763C108.505 89.5581 110.591 89.2623 112.569 89.3597C120.646 89.7566 122.809 99.629 122.409 106.173C121.966 113.415 119.264 121.042 115.18 127.031C113.489 129.51 111.557 131.743 109.084 133.473C108.715 133.732 108.33 133.968 107.974 134.244C105.979 135.797 105.746 137.041 107.003 139.371C107.088 139.529 107.173 139.687 107.259 139.845C104.928 141.482 102.624 143.161 100.255 144.74C98.8531 145.675 97.4214 146.591 95.7964 147.128C95.6728 147.002 95.5304 146.888 95.4261 146.744C94.4254 145.352 93.2592 144.51 91.4352 145.003C90.2564 145.321 89.252 146.078 88.2842 146.823C84.7734 149.526 80.7992 151.105 76.5935 152.42C76.1913 152.546 75.7164 152.44 75.2749 152.441C75.4336 151.958 75.8965 151.814 76.2673 151.592C83.4773 147.261 89.2053 141.355 94.162 134.656C95.9278 132.27 97.2344 129.586 98.4708 126.89C100.831 121.741 102.596 116.357 104.607 111.071" fill="#CA4140"/>
<path d="M123.621 204.495C127.597 203.117 131.574 201.742 135.553 200.375C136.837 199.934 139.134 198.524 140.445 198.776C141.775 199.031 142.535 200.879 142.185 202.069C141.683 203.778 139.988 204.813 138.39 205.598C130.194 209.621 121.064 211.302 112.012 212.492C90.6285 215.306 68.9366 215.623 47.4485 213.776C35.4525 212.746 23.3712 211.004 12.2142 206.478C10.5892 205.817 8.90345 205.033 7.91316 203.585C6.92288 202.138 6.97578 199.839 8.46512 198.913C9.83193 198.063 11.5973 198.705 13.0803 199.33C29.5349 206.264 47.3924 209.104 65.153 209.74C76.5201 210.146 87.9845 209.81 99.2881 208.669" fill="#CAB99A"/>
<path d="M121.229 251.806C122.043 251.587 122.806 251.322 123.421 252.16C126.457 256.308 120.454 258.824 117.202 259.918C105.801 263.756 93.8347 263.648 81.9806 264.259C73.5247 264.045 66.5808 263.943 59.6692 263.287C51.9004 262.55 44.1714 261.563 36.4267 260.59C34.6409 260.365 32.8295 260.134 31.17 259.438C29.1491 258.59 27.3382 256.948 27.1701 254.658C27.1209 253.989 26.8569 252.438 27.666 252.101C27.9918 251.965 28.3615 252.01 28.7113 252.059C32.1733 252.059 35.9119 253.051 39.3467 253.524C42.9727 254.023 46.6165 254.651 50.256 254.98C57.6405 255.648 65.0176 256.405 72.4397 256.646C74.3307 256.708 76.2259 256.715 78.1174 256.673C81.271 256.604 84.4236 256.486 87.5756 256.368C93.6105 256.144 99.6145 255.561 105.621 254.927" fill="#CAB99A"/>
<path d="M107.259 139.845C109.109 140.312 112.806 138.636 113.067 138.566C113.664 140.406 113.649 142.257 113.351 144.161C112.668 148.516 110.952 152.435 108.543 156.079C105.94 160.016 102.671 163.361 99.1457 166.458C89.9284 174.555 79.481 180.647 68.1915 185.354C67.3714 185.696 66.4586 185.855 65.7925 186.518C63.2218 187.08 60.6044 187.091 57.9939 187.172C57.0905 187.2 56.1908 187.224 55.333 187.557C54.071 188.047 53.2027 189.207 53.2813 190.449C53.3624 191.718 54.0076 192.629 55.1922 193.17C55.9641 193.522 56.7658 193.561 57.5739 193.513C60.5416 193.335 63.5224 193.255 66.4717 192.91C78.4614 191.506 89.9478 188.302 100.816 182.995C106.831 180.058 112.473 176.534 117.551 172.147C120.08 169.961 122.426 167.597 124.511 164.979C124.844 164.56 125.209 164.157 125.612 163.807C126.242 163.257 126.923 163.309 127.589 163.78C129.134 167.328 129.031 170.955 128.086 174.613C126.962 178.967 124.675 182.716 121.899 186.178C117.164 192.08 111.228 196.562 104.81 200.464C103.191 201.448 101.526 202.307 99.6705 202.749C96.3477 203 93.027 203.27 89.7043 203.5C80.7038 204.126 71.6975 204.031 62.696 203.586C57.4796 203.329 52.2726 202.901 47.0898 202.214C39.9415 201.265 32.8975 199.847 25.9587 197.857C22.3946 196.835 19.7777 194.633 17.5662 191.825C17.0766 191.203 16.6278 190.437 16.4827 189.675C15.992 187.1 15.8265 184.527 16.6 181.931C18.3627 176.015 22.526 172.642 28.1723 170.851C33.5867 169.134 39.1523 168.06 44.7458 167.107C48.377 166.488 52.0621 166.139 55.5975 164.999C56.4479 164.725 57.3544 164.584 58.2468 164.486C63.1893 163.945 67.9333 162.652 72.68 161.181C78.3813 159.413 83.7773 156.981 89.1958 154.557C89.3597 154.484 89.5126 154.38 89.6828 154.326C93.2171 153.197 94.9825 150.568 95.7978 147.128C97.4228 146.591 98.8546 145.675 100.256 144.74C102.624 143.16 104.928 141.482 107.259 139.845Z" fill="#FDFDFD"/>
<path d="M12.806 213.658C13.0343 213.38 17.6243 215.097 18.1622 215.245C23.2136 216.64 28.3582 217.612 33.5395 218.38C51.1556 220.983 68.8759 221.62 86.6528 220.913C93.2255 220.651 99.7893 220.199 106.324 219.447C115.369 218.406 124.347 216.99 133.12 214.468C135.557 213.766 135.653 213.796 135.449 216.224C135.05 220.981 134.559 225.729 134.071 230.478C133.53 235.743 133.757 241.248 128.523 244.145C124.296 246.484 118.723 246.803 114.03 247.546C108.643 248.398 103.242 249.206 97.8025 249.629C81.2819 250.915 64.6242 252.088 48.2063 249.103C44.4064 248.406 40.6019 247.683 36.7968 246.998C34.0606 246.505 31.3773 245.659 28.7149 244.829C26.0561 244 23.3178 243.353 20.8665 241.956C18.8382 240.8 16.7131 239.929 15.9973 237.525C15.6621 236.401 15.6014 235.218 15.5092 234.048C15.0201 227.823 13.6517 221.68 12.6295 215.533C12.5295 214.928 12.2849 214.297 12.806 213.658Z" fill="#CAB99A"/>
<path d="M101.178 279.968C100.53 279.832 100.317 279.441 100.088 279.059C99.7638 278.52 99.4816 277.941 99.0809 277.464C98.2059 276.419 96.8322 276.093 95.6571 276.567C94.4835 277.041 93.7184 278.232 93.7158 279.557C93.7137 280.497 94.0604 281.328 94.5412 282.096C95.1146 283.011 95.7477 283.89 96.373 284.771C96.66 285.175 96.7448 285.564 96.4803 286.009C95.9378 286.921 92.3736 290.966 91.2441 291.912C89.2504 289.592 87.6815 286.969 85.9114 284.493C85.5967 284.055 85.3563 283.556 85.0034 283.153C84.023 282.038 82.5614 281.759 81.3318 282.399C80.1268 283.025 79.4508 284.422 79.7184 285.825C79.9257 286.911 80.4981 287.833 81.1255 288.722C82.5284 290.711 83.9345 292.698 85.3343 294.689C85.7486 295.279 86.1575 295.873 86.5456 296.481C86.8121 296.899 86.8101 297.347 86.4686 297.723C84.5399 299.847 82.6175 301.978 80.4353 303.988C80.0315 303.514 79.7184 303.195 79.4597 302.835C76.7187 299.035 73.6285 295.491 71.1515 291.496C70.7142 290.791 70.1423 290.216 69.3327 289.955C67.3218 289.307 65.4711 290.661 65.4104 292.799C65.381 293.833 65.7041 294.764 66.2681 295.598C67.1767 296.941 68.1126 298.268 69.0787 299.571C70.7441 301.816 72.4455 304.034 74.1223 306.27C74.6601 306.988 75.2629 307.67 75.5242 308.556C75.4425 308.723 75.3969 308.916 75.2786 309.041C72.9713 311.459 70.3853 313.566 67.8015 315.673C67.2511 316.121 66.8709 316.03 66.4467 315.449C66.0215 314.868 65.6748 314.222 65.203 313.685C64.1682 312.508 62.5191 312.218 61.2827 312.927C59.9049 313.716 59.364 315.342 60.0102 316.909C60.249 317.488 60.5993 318.022 60.9146 318.567C61.6357 319.814 62.3599 321.058 63.0983 322.294C63.3277 322.679 63.5864 323.049 63.865 323.4C65.7712 325.797 67.692 328.181 69.5941 330.581C70.1455 331.277 70.1151 331.656 69.4658 332.176C67.0699 334.094 64.5274 335.804 61.9116 337.405C61.1968 337.843 60.7789 337.791 60.2406 337.181C59.287 336.101 58.315 335.027 57.6656 333.718C57.3436 333.07 57.0163 332.427 56.4549 331.944C55.5715 331.186 54.5744 330.854 53.4532 331.303C52.2738 331.776 51.5553 332.644 51.449 333.95C51.3972 334.587 51.4653 335.212 51.7166 335.806C51.9612 336.383 52.2178 336.955 52.4498 337.485C52.0801 338.123 51.6454 337.779 51.2526 337.681C50.8159 337.573 50.3812 337.45 49.9576 337.299C47.467 336.408 47.4392 336.315 47.1569 333.652C46.5023 327.467 45.8032 321.288 45.1329 315.106C44.5207 309.461 43.9311 303.813 43.3163 298.168C42.6816 292.345 42.0275 286.523 41.3839 280.7C40.9681 276.937 40.5523 273.175 40.1469 269.411C40.0794 268.785 40.0422 268.153 40.0323 267.522C40.0213 266.834 40.3323 266.542 41.0393 266.635C42.4674 266.823 43.8918 267.041 45.3125 267.28C51.6281 268.341 57.9898 268.966 64.3735 269.448C72.0192 270.025 79.6697 270.434 87.3342 270.205C91.6541 270.077 95.9876 270.04 100.286 269.459C100.909 269.374 101.546 269.389 102.173 269.314C102.972 269.217 103.568 269.502 104.032 270.147C104.294 270.513 104.607 270.842 104.886 271.196C106.382 273.088 106.468 272.657 104.952 274.813C103.713 276.576 102.49 278.351 101.178 279.968Z" fill="#CAB99A"/>
<path d="M80.4174 104.8C79.9289 105.169 79.4371 105.536 78.9485 105.905C77.4183 107.062 75.9504 108.271 74.3145 109.282C71.0273 111.313 67.3904 112.717 63.6256 113.562C58.1746 114.788 52.6901 115.77 47.1752 116.627C43.3503 117.221 39.5421 117.908 35.937 119.404C35.3489 119.648 34.7787 119.846 34.1644 119.414C31.3088 117.404 28.9333 114.989 27.7153 111.638C26.603 108.579 26.9758 105.601 28.4406 102.749C31.9545 95.9086 39.9427 92.6948 46.9584 90.8452C54.3779 88.8892 61.5 87.0527 68.3901 83.6278C75.233 80.227 81.5125 75.748 86.9467 70.375C88.545 68.7945 90.0616 67.1533 91.1 65.0911C91.5614 64.1762 92.0604 63.1362 93.1062 62.6277C94.0698 63.7986 95.3748 64.725 95.8644 66.2369C96.8862 69.3968 97.6476 72.4242 97.2266 75.7511C96.7893 79.2027 96.1965 82.6721 94.9444 85.933C93.5189 89.6433 91.0079 93.0017 88.7131 96.216C87.2138 98.316 85.5547 100.309 83.6868 102.092C82.6598 103.071 81.546 103.946 80.4174 104.8Z" fill="#FDFDFD"/>
<path d="M89.8302 55.5325C87.8434 58.8636 85.6507 62.0518 83.1606 65.0289C82.5835 65.7191 82.0106 66.425 81.3529 67.0335C74.5162 73.3538 66.8029 78.2251 57.9145 81.1383C57.8291 81.1661 57.7448 81.1986 57.6616 81.2326C53.7319 82.8487 50.3908 81.5259 47.5425 78.8787C44.5905 76.1351 43.7238 72.5945 44.8272 68.7187C46.2715 63.6443 49.7702 60.4587 54.6221 58.6861C56.3969 58.0372 58.1701 57.4057 59.9097 56.6552C62.1181 55.7021 63.9106 54.2458 65.5492 52.5506C67.3758 50.6612 68.9081 48.5465 70.2346 46.2822C72.7991 41.9042 74.8713 37.3178 75.9359 32.3318C76.9026 27.8036 77.2902 23.2433 76.4884 18.6344C76.303 17.5719 76.1554 16.4973 76.3266 15.4059C76.5727 13.838 77.165 12.4613 78.4339 11.448C79.2435 10.8007 80.1364 10.4346 81.1942 10.7588C83.0323 12.1911 84.8663 13.6003 86.3231 15.4787C89.7459 19.8918 91.4447 24.9385 92.0899 30.4052C92.578 34.5397 92.4591 38.6731 92.1323 42.8164C91.8265 46.6896 91.3871 50.524 90.1146 54.2206C89.9695 54.6406 89.9224 55.0941 89.8302 55.5325Z" fill="#FDFDFD"/>
<path d="M104.607 111.071C105.248 109.388 105.632 107.636 105.617 105.807C105.582 101.912 103.814 99.8249 99.9775 99.2028" fill="#C94241"/>
<path d="M89.8305 55.5325C89.9227 55.0942 89.9698 54.6407 90.1149 54.2207C91.3874 50.524 91.8268 46.6896 92.1326 42.8165C92.4594 38.6731 92.5783 34.5397 92.0902 30.4052C91.4456 24.9385 89.7462 19.8918 86.3234 15.4788C84.8666 13.6003 83.0326 12.1911 81.1945 10.7588C83.0928 10.4823 84.4581 11.5302 85.7615 12.6525C87.773 14.3843 89.1995 16.5874 90.4773 18.8733C92.8611 23.1355 94.7081 27.614 96.011 32.3387C97.4511 37.5608 98.5959 42.8259 99.0253 48.2298C99.096 49.1184 99.5191 49.474 100.305 49.6919C102.314 50.2485 104.198 51.0849 105.932 52.2663C109.233 54.5155 111.109 57.6686 112.068 61.492C113.175 65.904 112.298 70.107 110.734 74.1855C109.207 78.1654 107.05 81.8045 103.993 84.8549C103.23 85.6164 102.568 86.4831 101.896 87.3299C100.545 89.0318 99.0243 90.5594 97.3171 91.9047C96.5384 92.5185 95.789 93.1694 95.0071 93.779C93.1203 95.2505 92.6778 97.6034 94.9113 99.2022C95.1307 99.3588 95.337 99.5342 95.5502 99.7008C91.8818 101.489 88.4166 103.617 85.0807 105.962C83.793 104.512 82.1329 104.57 80.4263 104.811C81.138 104.71 82.3388 103.322 82.8734 102.846C83.7417 102.073 84.5675 101.252 85.3531 100.395C86.7911 98.8252 88.116 97.0818 89.4095 95.3799C92.1038 91.8367 94.208 87.8452 95.5989 83.617C96.8662 79.7658 97.5464 75.679 97.1736 71.642C97.0212 69.9861 96.6829 68.3323 96.0534 66.7895C95.3465 65.0551 94.2541 64.0245 93.1056 62.6278C93.7183 61.3485 94.397 60.0953 94.9275 58.7824C95.5664 57.202 94.9668 55.6686 93.5502 54.9172C92.8951 54.5694 92.2148 54.4019 91.5042 54.7161C90.9371 54.9669 90.3877 55.2586 89.8305 55.5325Z" fill="#CA4140"/>
<path d="M65.792 186.518C66.4581 185.855 67.3709 185.697 68.191 185.355C79.4805 180.647 89.9284 174.556 99.1452 166.458C102.67 163.361 105.941 160.016 108.542 156.079C110.951 152.435 112.668 148.517 113.351 144.161C113.649 142.257 113.663 140.407 113.066 138.566C113.193 137.88 113.797 137.565 114.217 137.113C115.565 135.659 116.916 134.208 118.289 132.778C120.437 130.54 123.668 130.858 125.466 133.414C127.675 136.552 128.245 140.054 127.61 143.725C126.489 150.216 124.062 156.187 119.941 161.385C118.992 162.581 117.94 163.722 116.795 164.729C111.298 169.568 105.416 173.871 98.8195 177.11C92.495 180.216 85.9322 182.717 79.0662 184.331C75.566 185.153 72.017 185.775 68.4785 186.423C67.6071 186.583 66.6891 186.493 65.792 186.518Z" fill="#CA4140"/>
<path d="M105.62 254.926C110.933 254.366 116.097 253.191 121.229 251.807L105.62 254.926Z" fill="#C4B597"/>
<path d="M99.6689 202.75C101.525 202.308 103.191 201.449 104.81 200.464C111.227 196.562 117.163 192.081 121.898 186.178C124.674 182.717 126.961 178.967 128.085 174.613C129.03 170.956 129.133 167.329 127.588 163.78C128.155 163.681 128.643 163.9 129.127 164.153C135.032 167.235 138.255 172.09 138.679 178.744C138.782 180.357 138.674 181.982 138.681 183.601C138.688 185.426 138.238 187.158 137.66 188.869C137.431 189.546 137.167 190.221 137.037 190.918C136.731 192.565 135.796 193.686 134.299 194.338C132.323 195.199 130.355 196.091 128.331 196.829C122.83 198.837 117.136 200.122 111.377 201.122C108.106 201.691 104.825 202.202 101.543 202.706C100.931 202.801 100.295 202.739 99.6689 202.75Z" fill="#CA4140"/>
<path d="M99.2662 311.585C100.997 313.098 102.544 314.452 104.092 315.805C104.552 316.207 104.671 316.684 104.416 317.246C104.379 317.328 104.347 317.412 104.311 317.494C103.278 319.8 99.7207 324.444 97.6161 326.203C96.6457 325.549 96.0639 324.515 95.3119 323.649C94.4897 322.703 93.7015 321.726 92.9302 320.738C92.3122 319.947 92.3237 319.7 92.9998 318.868C93.6209 318.103 94.2875 317.377 94.9306 316.63C96.3278 315.005 97.7239 313.379 99.2662 311.585Z" fill="#CAB99A"/>
<path d="M83.5841 319.567C83.4657 319.771 83.3589 320.025 83.1934 320.231C81.1552 322.773 78.8537 325.046 76.219 326.968C75.5456 327.459 75.2225 327.396 74.6003 326.731C74.2935 326.402 73.9976 326.059 73.7316 325.697C72.7769 324.399 71.5588 323.287 70.9382 321.753C71.6499 320.204 73.2257 319.555 74.3762 318.464C75.8786 317.039 77.4418 315.678 78.9872 314.299C79.2815 314.036 79.6575 313.952 79.9497 314.262C81.3124 315.71 82.443 317.333 83.4841 319.02C83.5678 319.156 83.5485 319.355 83.5841 319.567Z" fill="#CAB99A"/>
<path d="M79.7925 332.374C81.2289 331.078 82.6455 329.851 84.0023 328.56C85.2995 327.327 86.5333 326.025 87.9436 324.603C89.6775 326.729 91.3176 328.733 92.9479 330.746C93.2977 331.177 93.1531 331.614 92.7981 331.942C90.6086 333.965 88.2384 335.759 85.7609 337.413C85.2298 337.767 84.7245 337.629 84.2977 337.207C82.7654 335.693 81.1624 334.243 79.7925 332.374Z" fill="#CAB99A"/>
<path d="M88.383 314.248C88.1641 314.171 87.9374 314.162 87.8489 314.047C86.7502 312.627 85.6604 311.199 84.5958 309.754C84.358 309.432 84.4717 309.048 84.7335 308.77C86.6449 306.741 88.5616 304.717 90.4914 302.706C90.77 302.415 91.1339 302.448 91.4518 302.708C91.5209 302.764 91.5848 302.83 91.6388 302.901C92.6159 304.182 93.833 305.274 94.6175 306.707C94.1713 308.337 92.8233 309.342 91.8639 310.61C90.9994 311.753 89.9672 312.772 88.9931 313.829C88.8219 314.015 88.5684 314.123 88.383 314.248Z" fill="#CAB99A"/>
<path d="M100.763 291.001C101.641 291.255 102.022 291.902 102.501 292.415C104.477 294.532 104.346 293.985 102.833 296.425C101.7 298.253 100.523 300.052 98.8199 301.688C97.7631 300.414 96.7886 299.252 95.8297 298.076C95.5307 297.709 95.3584 297.279 95.7181 296.86C97.4138 294.896 98.9388 292.78 100.763 291.001Z" fill="#CAB99A"/>
<path d="M111.139 280.108C111.128 281.047 110.901 281.889 110.43 282.694C109.523 284.247 108.672 285.832 107.809 287.409C107.519 287.939 107.166 288.039 106.78 287.696C106.646 287.576 106.521 287.446 106.397 287.315C104.643 285.481 104.784 285.742 106.196 283.79C107.303 282.26 108.431 280.744 109.557 279.227C109.768 278.943 110.052 278.596 110.416 278.791C110.694 278.939 110.87 279.308 111.047 279.606C111.133 279.749 111.114 279.953 111.139 280.108Z" fill="#CAB99A"/>
<path d="M108.277 300.705C107.891 303.373 107.512 306.043 107.113 308.709C107.013 309.38 106.523 309.512 105.948 309.055C105.807 308.943 105.664 308.832 105.536 308.706C102.872 306.088 102.995 306.802 105.118 304.083C106.043 302.898 106.938 301.689 107.847 300.491C107.99 300.562 108.133 300.633 108.277 300.705Z" fill="#CAB99A"/>
<path d="M69.8804 339.767C71.0843 338.853 72.2767 337.923 73.4953 337.03C74.4924 336.299 74.6459 336.289 75.4916 337.238C76.2494 338.088 77.2088 338.775 77.7 339.851C76.6285 340.764 75.3549 340.19 74.1829 340.286C72.7915 340.397 71.3828 340.293 69.9814 340.282C69.9474 340.111 69.9144 339.939 69.8804 339.767Z" fill="#CAB99A"/>
<path d="M99.329 337.293C98.256 337.671 97.2673 338.174 96.0979 337.962C96.1089 337.292 96.6143 337.018 96.9766 336.665C98.0643 335.606 98.1188 335.627 99.329 337.293Z" fill="#CAB99A"/>
<path d="M103.455 331.794C103.172 331.904 102.484 331.307 102.53 330.975C102.633 330.212 103.168 329.735 103.726 329.303C103.872 329.19 104.082 329.376 104.059 329.601C103.994 330.227 103.916 330.851 103.802 331.469C103.778 331.594 103.575 331.687 103.455 331.794Z" fill="#CAB99A"/>
<path d="M72.0435 153.405C68.8972 154.463 65.6001 154.992 62.3161 155.422C58.8294 155.88 55.3941 156.497 51.8598 156.734C44.8377 157.205 37.2533 157.423 30.5507 159.743C29.3614 160.155 28.1889 160.646 26.9477 160.857C24.0895 161.343 21.4831 159.478 20.2745 156.936C17.6561 151.429 17.2602 145.906 20.1383 140.342C21.9131 136.91 24.1958 134.034 27.7422 132.209C29.4001 131.355 30.8492 130.066 32.3228 128.888C35.6937 126.191 39.4501 124.385 43.7239 123.675C47.8039 122.998 51.8781 122.287 55.9555 121.596C60.3041 120.86 64.6329 119.971 68.8438 118.696C71.7549 117.815 74.532 116.531 77.1515 114.991C78.4345 114.237 79.6808 113.422 80.8932 112.559C81.7242 111.967 82.6522 111.491 83.4094 110.799C84.0462 110.217 84.5652 109.47 84.7176 108.621C84.825 108.023 84.748 107.402 84.8668 106.806C85.2826 104.721 88.0341 103.943 89.614 102.973C90.9138 102.175 92.1345 101.252 93.4804 100.529C95.1446 99.6353 97.6138 98.8938 99.5111 99.0917C101.207 99.2682 103.138 99.9767 104.257 101.319C105.295 102.565 105.601 104.226 105.616 105.807C105.632 107.636 105.248 109.388 104.607 111.071C102.596 116.358 100.831 121.741 98.4705 126.89C97.2341 129.586 95.9286 132.27 94.1617 134.656C92.5891 136.782 90.9269 138.843 89.1542 140.806C85.9802 144.319 82.3621 147.795 78.368 150.367C76.6115 151.498 74.7294 152.433 72.7677 153.151C72.5274 153.239 72.2859 153.323 72.0435 153.405Z" fill="#FDFDFD"/>
</svg>
