<svg width="378" height="352" viewBox="0 0 378 352" fill="none" xmlns="http://www.w3.org/2000/svg">
<path d="M373.272 92.4367C371.562 88.4886 369.239 84.9313 365.134 83.0123C363.963 82.4642 363.356 81.6391 362.888 80.446C361.138 75.9828 357.923 73.7693 354.705 70.4245C351.329 66.9156 348.236 63.0661 344.154 60.3277C339.198 57.0037 334.528 56.9455 328.909 56.1597C324.11 55.489 321.468 52.0144 318.245 48.8C314.128 44.6939 308.17 43.0463 302.407 42.2709C296.645 41.4955 290.742 41.4202 285.173 39.7463C276.199 37.0489 268.992 30.5081 261.9 24.3845C256.286 19.5379 250.319 14.6772 243.265 12.1096C235.32 9.21747 227.502 11.1058 219.324 10.4669C208.368 9.6113 198.88 3.01544 188.023 1.73411C177 0.43258 165.65 2.96705 156.324 8.97554C152.638 11.3489 149.152 13.9838 146.76 17.7653C145.005 20.5387 143.635 23.5221 142.264 26.4988C141.442 28.2854 140.665 30.1045 140.189 32.0032C139.157 36.1136 138.463 40.2951 138.163 44.5249C138.113 45.2158 137.913 45.6231 137.307 45.9269C130.902 49.1541 126.498 54.5029 122.372 60.1219C121.208 61.7039 120.271 63.4581 119.265 65.1565C117.936 67.3939 117.276 69.8843 116.654 72.3826C116.496 73.0165 116.316 73.6003 115.708 74.0376C112.618 76.2584 109.189 77.7756 105.595 78.9154C103.119 79.7018 100.792 80.8288 98.7049 82.2982C94.861 85.0054 92.1256 88.7862 89.4845 92.6131C87.3457 95.7092 85.703 99.0779 84.2214 102.522C83.906 103.26 83.4534 103.39 82.7533 103.539C78.8132 104.359 75.0305 105.591 71.6575 107.899C68.8474 109.82 66.0551 111.748 63.4545 113.966C59.9302 116.974 56.8641 120.383 53.9762 123.972C50.8366 127.873 49.0984 132.435 47.7001 137.168C45.9631 143.05 44.7307 149.003 45.3242 155.177C45.4627 156.611 45.5196 157.688 43.8273 158.18C42.9833 158.427 42.3574 159.184 41.7277 159.827C40.6804 160.892 39.6293 161.958 38.6059 163.046C35.6776 166.161 33.1388 169.532 31.6235 173.597C31.1035 174.994 30.3857 176.314 29.7567 177.673C27.7685 181.975 26.0395 186.357 25.6016 191.141C25.3535 193.82 25.0993 196.498 25.1538 199.194C25.1747 200.34 25.0099 201.448 24.6155 202.535C22.9801 207.052 20.8474 211.323 18.2633 215.367C14.205 221.725 10.4609 228.237 7.37762 235.147C4.14859 242.382 2.01653 249.88 1.44018 257.75C0.811153 266.331 0.373837 274.922 0.46326 283.542C0.546558 291.217 1.05431 298.836 2.30317 306.403C2.70435 308.823 3.0602 311.246 3.38972 313.676C3.75231 316.338 4.04202 319.024 4.826 321.611C6.56363 327.346 8.84024 332.879 11.42 338.269C13.6354 342.892 17.2154 346.434 21.3546 349.393C23.2459 350.746 25.3566 351.192 27.654 350.477C28.3914 350.249 29.1852 350.209 29.9429 350.049C32.2299 349.568 34.2787 348.624 35.7425 346.742C38.8374 342.769 40.6295 338.275 40.9088 333.222C41.0926 329.936 40.9793 326.645 40.8035 323.361C40.5658 318.882 40.3447 314.402 39.6238 309.964C39.5295 309.376 39.5675 308.954 40.2124 308.667C41.465 308.11 42.685 307.472 43.9161 306.858C44.3614 306.636 44.705 306.642 44.9077 307.178C45.0333 307.514 45.1932 307.836 45.3463 308.159C46.7777 311.142 47.52 314.361 48.5937 317.465C49.5651 320.276 51.0289 322.907 53.3111 324.758C55.4744 326.511 57.7099 328.257 60.1734 329.624C65.3495 332.502 71.0469 331.889 75.507 328.002C78.7182 325.206 80.6911 321.622 82.049 317.662C83.5747 313.211 84.2515 308.613 84.3035 303.919C84.3231 302.218 84.2821 300.514 84.2723 298.837C84.7549 298.749 84.9576 299.004 85.2008 299.154C88.8665 301.447 92.6799 301.978 96.8558 300.555C99.8552 299.534 102.697 298.354 104.794 295.915C107.444 292.833 109.362 289.385 110.084 285.296C111.036 279.919 111.476 274.488 111.542 269.062C111.576 266.316 112.594 264.865 114.868 263.66C120.305 260.779 125.66 257.741 131.02 254.719C131.771 254.293 132.291 254.382 132.972 254.806C136.209 256.82 139.691 257.839 143.554 257.447C146.473 257.152 149.381 256.788 152.245 256.161C154.016 255.77 155.574 254.882 157.072 253.867C160.379 251.626 162.688 248.557 164.621 245.127C166.089 242.517 167.006 239.791 166.989 236.775C166.986 236.263 167.05 235.753 167.087 235.222C167.768 235.312 167.903 235.845 168.209 236.18C168.974 237.017 169.656 237.934 170.459 238.732C172.382 240.65 174.704 241.359 177.367 240.747C180.239 240.088 182.72 238.708 184.704 236.512C185.83 235.265 187.035 234.116 188.332 233.053C189.918 231.744 191.283 230.233 192.085 228.314C192.39 227.578 192.793 227.169 193.621 227.051C195.391 226.797 196.93 226.008 198.157 224.703C198.668 224.157 199.231 224.066 199.926 224.099C203.166 224.25 206.033 223.187 208.638 221.317C210.347 220.094 211.946 218.787 213.104 216.971C214.153 215.333 215.176 215.145 216.811 216.108C218.215 216.936 219.719 217.528 221.294 217.894C224.972 218.756 228.692 219.18 232.49 218.934C235.356 218.749 238.005 218.019 240.464 216.526C245.603 213.418 249.281 209.098 251.606 203.561C252.752 200.832 253.468 197.993 253.879 195.099C254.133 193.298 254.823 192.505 256.61 191.827C262.361 189.651 268.005 187.204 273.817 185.158C281.707 182.38 289.166 178.52 297.081 175.754C303.056 173.666 308.785 170.913 314.707 168.656C322.247 165.789 329.644 162.552 337.226 159.792C344.803 157.033 351.855 153.295 358.372 148.561C363.891 144.556 367.603 139.107 370.513 133.054C371.21 131.603 371.568 129.976 372.351 128.582C375.034 123.82 375.845 118.524 376.518 113.278C377.443 106.083 376.157 99.0815 373.272 92.4367ZM39.6067 290.226C38.9544 290.617 38.3774 291.126 37.4997 291.781C37.286 287.071 37.5444 282.782 38.8423 278.497C38.9305 278.917 39.0322 279.336 39.1051 279.761C39.5699 282.398 39.8578 285.071 40.575 287.658C40.8892 288.802 40.6308 289.608 39.6067 290.226ZM125.443 242.627C121.59 244.376 117.946 246.54 114.169 248.436C114.132 248.456 114.068 248.409 114.009 248.392C113.745 248.13 113.92 247.843 113.988 247.569C114.825 244.072 116.247 240.78 117.701 237.521C118.902 234.829 121.31 234.697 123.108 237.079C124.114 238.413 125.042 239.801 125.757 241.319C126.005 241.847 126.166 242.298 125.443 242.627Z" fill="#222222"/>
<path d="M74.5738 164.47C71.4281 164.827 68.2254 164.499 65.3289 163.254C59.8466 160.899 55.9713 155.198 55.7986 149.234C55.6988 145.781 56.737 142.385 58.1291 139.223C63.1074 127.918 73.7512 116.733 86.69 115.646C91.435 115.247 96.4304 116.533 99.9706 119.718C105.196 124.419 106.356 132.509 104.214 139.203C102.074 145.897 97.1758 151.37 91.7951 155.891C88.0994 158.996 84.0496 161.791 79.4835 163.355C77.8984 163.897 76.2447 164.28 74.5738 164.47Z" fill="#CA4140"/>
<path d="M68.2927 237.523C63.4014 238.226 58.3956 237.969 53.699 236.473C51.1866 235.674 48.6981 234.466 47.0474 232.41C44.8455 229.666 44.4952 225.728 45.6234 222.396C46.7516 219.065 49.1911 216.302 52.0135 214.203C61.1383 207.421 73.4131 204.431 84.4079 207.821C87.4764 208.768 90.6136 210.36 92.0603 213.227C93.2056 215.496 93.0899 218.226 92.3769 220.666C91.3308 224.248 89.0763 227.41 86.2631 229.86C83.45 232.311 80.0941 234.08 76.5993 235.386C73.9239 236.386 71.1279 237.115 68.2927 237.523Z" fill="#CA4140"/>
<path d="M309.434 136.969C308.003 137.572 306.442 137.834 305.071 138.594L309.434 136.969Z" fill="#252424"/>
<path d="M96.3419 105.456C99.1654 99.6134 102.485 94.2762 107.645 90.2846C108.92 89.2985 110.062 88.1427 111.317 87.1291C114.032 84.937 117.022 83.1877 120.258 81.8898C121.974 81.2014 123.01 80.0432 123.805 78.3607C125.741 74.2607 127.568 70.0737 130.645 66.6285C130.843 66.4074 131.004 66.1483 131.153 65.8905C134.575 59.9861 140.149 57.2183 146.418 55.5547C148.368 55.0372 150.426 54.421 152.435 54.8216C154.849 55.3024 156.892 54.9024 159.08 53.7785C161.547 52.5113 164.311 52.6957 166.973 53.4484C168.25 53.8092 169.503 54.0205 170.852 53.928C172.534 53.8128 174.248 54.0499 175.717 54.9073C178.407 56.4759 181.291 57.6544 183.984 59.2193C187.403 61.2056 190.544 63.6114 193.927 65.6461C199.203 68.8181 204.857 71.0525 210.873 72.2879C213.821 72.8924 216.425 73.9722 218.721 75.9512C221.622 78.452 224.919 80.4376 228.012 82.691C228.63 83.1405 229.368 83.4615 230.095 83.7187C234.434 85.2548 238.774 86.7928 243.453 86.9502C244.705 86.9925 246.029 86.9594 247.183 87.3569C249.971 88.3173 252.669 89.5827 255.26 90.9516C257.009 91.8764 258.599 93.2441 260.244 94.4366C264.392 97.4452 269.048 99.2116 274.096 99.9796C275.867 100.249 277.64 100.505 279.418 100.729C280.998 100.927 282.265 101.644 283.145 102.957C285.594 106.612 288.921 109.004 293.041 110.589C298.341 112.628 303.677 114.564 309.005 116.524C311.318 117.374 313.321 118.542 314.561 120.782C315.038 121.641 315.344 122.49 315.302 123.495C315.254 124.628 315.221 125.781 315.381 126.897C316.324 133.466 310.203 135.887 305.217 137.85C304.646 138.075 304.067 138.302 303.458 138.383C301.579 138.633 300.189 138.436 298.843 140.033C295.966 143.45 292.122 144.626 287.844 144.751C285.803 144.811 283.794 144.556 281.824 143.971C280.619 143.613 279.384 143.377 278.108 143.57C276.596 143.799 275.232 144.809 274.694 146.256C274.061 147.959 274.898 149.519 273.645 151.122C272.838 152.156 271.68 152.85 270.52 153.46C267.137 155.239 263.015 157.239 259.213 157.814C256.363 158.246 253.853 159.836 251.748 161.761C249.448 163.864 248.251 166.59 247.491 169.511C246.634 172.811 246.11 176.178 245.86 179.587C245.47 184.923 244.233 190.107 242.631 195.179C241.267 199.493 238.752 203.098 234.935 205.702C231.238 208.223 227.304 208.669 223.165 207.074C220.679 206.116 218.972 204.149 217.341 202.149C214.825 199.062 213.149 195.482 211.448 191.921C211.298 191.606 211.271 191.216 210.814 190.976C209.526 191.847 209.008 193.217 208.671 194.663C208.248 196.471 208.085 198.319 207.976 200.171C207.859 202.143 207.676 204.105 207.096 206.009C206.653 207.465 205.96 208.771 204.881 209.855C202.997 211.747 200.76 212.43 198.156 211.764C197.521 211.601 196.883 211.408 196.292 211.13C195.644 210.827 195.212 210.937 194.727 211.464C194.124 212.12 193.43 212.7 192.739 213.267C190.538 215.071 188.053 215.531 185.325 214.781C184.982 214.687 184.634 214.608 184.283 214.521C183.855 215.066 184.035 215.68 184.002 216.253C183.934 217.505 183.939 218.764 183.828 220.012C183.559 223.038 182.077 225.459 179.834 227.398C177.678 229.263 175.185 229.438 172.598 228.413C170.87 227.728 169.282 226.762 167.687 225.816C166.761 225.268 165.834 224.717 164.873 224.236C162.318 222.957 159.922 223.858 158.969 226.549C157.912 229.533 156.91 232.542 156.153 235.622C155.795 237.079 155.354 238.505 154.73 239.866C153.061 243.502 150.037 245.287 146.052 244.821C141.8 244.323 138.328 242.445 136.023 238.691C134.615 236.398 133.244 234.085 132.08 231.656C130.816 229.02 128.975 226.859 126.721 225.011C124.567 223.245 121.971 222.423 119.364 221.877C117.342 221.454 115.35 222.367 113.598 223.446C110.629 225.272 108.729 228.033 107.47 231.193C105.587 235.921 104.15 240.802 103.246 245.813C102.23 251.457 101.106 257.084 100.51 262.801C100.201 265.779 99.9929 268.753 100.001 271.744C100.008 274.085 99.7308 276.393 99.2598 278.685C98.9431 280.227 98.3888 281.666 97.6061 283.021C95.3337 286.957 90.6366 287.967 86.9678 285.261C84.7077 283.594 83.2016 281.279 81.8143 278.894C80.5759 276.764 79.8592 274.407 78.9877 272.118C78.5626 271.002 78.2086 269.853 77.7162 268.768C76.5702 266.239 76.0141 263.549 75.3936 260.87C74.8693 258.605 73.3522 257.911 71.2808 259.033C69.3631 260.071 68.3378 261.785 67.92 263.879C67.5182 265.89 67.6218 267.919 67.7038 269.955C68.0046 277.425 69.0354 284.844 69.3024 292.31C69.4457 296.32 69.997 300.29 70.1354 304.294C70.1856 305.735 70.1011 307.16 69.7501 308.565C69.5309 309.442 69.2093 310.273 68.7426 311.048C65.9938 315.607 60.6755 315.675 57.8312 311.174C56.703 309.388 55.9037 307.469 55.5937 305.358C54.9255 300.802 54.1409 296.261 53.5787 291.692C52.995 286.947 52.6428 282.177 51.7694 277.464C51.4999 276.008 51.5434 274.499 51.19 273.032C50.6577 270.826 49.6551 268.885 48.1594 267.206C47.1659 266.093 46.0861 265.053 45.0308 263.995C44.2946 263.256 43.4224 262.847 42.3671 262.651C40.7275 262.346 39.1423 261.758 37.4433 261.773C34.5873 261.8 32.2023 262.761 30.4861 265.156C29.2893 266.826 28.3062 268.589 27.8426 270.604C26.3769 276.972 25.3785 283.39 25.6731 289.957C25.8183 293.187 26.2324 296.391 26.5711 299.602C27.3305 306.801 28.3473 313.961 29.8791 321.041C30.2576 322.793 30.7127 324.531 31.1849 326.261C32.2041 329.997 31.3491 333.383 29.1931 336.458C28.2915 337.744 26.8712 338.317 25.256 338.175C23.9753 338.062 22.8226 337.597 21.8084 336.795C20.7065 335.923 19.8845 334.834 19.3204 333.555C16.7382 327.701 14.4383 321.749 12.6302 315.598C9.26402 304.149 8.71768 292.472 9.06986 280.621C9.3712 270.459 11.1401 260.55 13.0394 250.635C14.0335 245.446 16.1331 240.589 17.7727 235.595C19.0081 231.831 20.7077 228.275 22.642 224.823C23.1381 223.939 23.5821 223.019 23.979 222.084C24.8016 220.146 25.8728 218.358 27.0917 216.647C28.7221 214.36 30.3201 212.049 31.953 209.762C32.3474 209.211 32.5453 208.6 32.7149 207.962C33.9313 203.4 35.1342 198.839 36.1154 194.217C37.2253 188.991 39.3751 184.103 41.37 179.175C41.874 177.929 47.9928 170.414 49.0659 169.559C49.437 169.262 49.8645 169.036 50.2449 168.75C51.1091 168.098 51.8649 168.125 52.8351 168.723C58.5514 172.251 64.8423 173.263 71.4412 172.714C77.1135 172.243 82.4035 170.356 87.6231 168.23C90.9532 166.875 94.2564 165.454 96.9464 162.982C99.0576 161.042 101.019 158.95 102.963 156.84C105.241 154.368 107.178 151.694 108.587 148.626C109.532 146.567 110.313 144.446 111.062 142.318C112.295 138.821 113.252 135.222 113.214 131.492C113.11 121.268 109.104 113.094 100.273 107.565C99.6671 107.185 99.0031 106.898 98.3704 106.56C97.7433 106.227 97.0058 106.105 96.3419 105.456ZM160.181 116.844C166.644 115.675 173.044 114.366 178.863 111.015C184.09 108.004 188.339 103.988 191.894 99.1865C192.635 98.1851 193.244 97.0654 193.784 95.9378C195.864 91.591 196.403 87.1107 194.438 82.593C193.177 79.6916 191.051 77.393 188.557 75.4869C184.441 72.3406 179.615 71.0194 174.578 70.3959C167.479 69.517 160.496 70.271 153.65 72.2413C146.93 74.175 140.674 77.0745 135.2 81.5113C131.577 84.4488 128.541 87.8671 126.673 92.1943C123.224 100.184 126.073 107.004 131.925 112.313C132.187 112.55 132.504 112.744 132.825 112.898C134.657 113.77 136.479 114.658 138.424 115.28C145.552 117.558 152.777 118.319 160.181 116.844ZM159.943 192.823C160.087 192.801 160.232 192.778 160.376 192.754C170.833 191.015 180.751 185.097 186.338 176.088C188.926 171.916 190.582 166.905 189.637 162.086C188.881 158.228 186.524 154.839 183.692 152.112C176.956 145.625 167.381 142.462 158.033 142.726C153.087 142.867 148.192 143.922 143.567 145.662C139.223 147.296 134.285 149.453 131.04 152.826C125.071 159.031 121.355 166.94 121.454 175.671C121.481 178.101 121.825 180.614 123.121 182.67C124.578 184.979 127.05 186.428 129.503 187.628C138.894 192.222 149.618 194.431 159.943 192.823ZM236.751 148.327C238.683 148.064 240.78 147.599 242.838 146.948C249.373 144.883 255.283 141.757 260.16 136.846C262.843 134.145 264.833 130.98 266.578 127.617C268.484 123.941 269.008 120.139 267.744 116.201C266.606 112.654 264.305 109.836 261.632 107.308C259.907 105.676 257.743 104.81 255.648 103.782C251.128 101.564 246.375 100.198 241.369 100.076C231.183 99.8271 221.887 102.714 213.626 108.694C209.396 111.756 206.016 115.603 203.941 120.464C201.719 125.671 201.474 130.908 204.055 136.066C204.834 137.622 205.538 139.184 206.039 140.847C206.674 142.955 208.025 144.48 209.918 145.579C211.557 146.529 213.344 146.955 215.19 147.212C217.083 147.476 218.998 147.634 220.863 148.029C226.079 149.134 231.3 149.194 236.751 148.327ZM69.7446 245.149C76.9977 243.68 84.9845 241.074 91.5069 235.122C95.003 231.932 97.8872 228.337 99.5146 223.832C102.197 216.407 99.9176 208.59 93.6573 203.769C91.4108 202.039 88.951 200.704 86.2683 199.79C84.6826 199.249 83.1109 198.679 81.5969 197.959C79.8311 197.119 77.9575 196.808 76.0208 196.841C73.2579 196.888 70.5354 197.197 67.9029 198.111C67.1734 198.364 66.4072 198.529 65.6459 198.673C59.5853 199.822 53.9247 201.996 48.7437 205.35C44.1066 208.352 40.1707 212.066 37.6307 217.051C34.0403 224.098 34.3178 230.855 39.3586 237.178C39.8461 237.789 40.281 238.429 40.616 239.132C41.2805 240.525 42.3506 241.574 43.5835 242.43C45.4638 243.736 47.5683 244.615 49.8204 244.969C56.047 245.948 62.2986 246.178 69.7446 245.149ZM59.7164 180.195C58.0321 180.481 56.3287 180.721 54.9782 181.784C51.4674 184.544 49.4382 188.265 48.2923 192.517C47.629 194.978 49.9521 198.202 53.0188 197.783C54.5991 197.566 55.8681 196.876 56.6178 195.438C57.1966 194.327 57.6517 193.154 58.2305 192.045C59.4316 189.741 60.5751 188.344 63.7521 189.724C65.6018 190.528 67.5721 191.052 69.4917 191.695C70.2242 191.94 70.928 192.251 71.7217 192.332C76.1139 192.778 80.827 190.84 82.7263 185.361C83.3033 183.697 82.8255 181.481 81.6802 180.565C79.9793 179.204 78.1896 179.201 76.4826 180.6C75.7452 181.203 75.0457 181.857 74.3591 182.52C73.7344 183.123 73.098 183.272 72.2485 182.954C70.1293 182.16 67.9341 181.554 65.8345 180.735C63.7784 179.934 61.7762 179.907 59.7164 180.195ZM137.066 197.168C132.175 193.034 128.164 193.018 122.279 195.738C121.405 196.143 120.735 196.891 120.237 197.708C119.354 199.154 118.948 200.734 119.93 202.267C120.997 203.932 122.589 204.597 124.567 204.158C125.384 203.976 126.195 203.772 127.007 203.571C127.53 203.442 128.042 203.224 128.57 203.175C131.403 202.915 132.581 203.78 132.514 206.363C132.491 207.256 132.595 208.153 132.641 209.048C132.814 211.046 133.55 212.827 135.09 214.079C136.796 215.468 138.603 216.783 140.777 217.401C143.166 218.079 145.284 217.427 147.121 215.871C148.378 214.806 148.956 213.377 148.778 211.71C148.521 209.305 146.531 207.899 144.18 208.431C142.49 208.814 141.771 208.466 141.254 206.843C140.948 205.88 140.785 204.867 140.604 203.87M191.489 115.55C191.756 117.081 192.207 118.436 193.768 118.999C195.389 119.583 196.839 119.076 198.108 118.057C199.045 117.305 199.763 116.34 200.285 115.246C200.771 114.227 201.246 113.203 201.737 112.186C203.095 109.37 205.137 107.308 208.251 106.559C210.34 106.057 212.215 105.122 213.728 103.669C215.76 101.72 217.295 99.4529 217.858 96.5516C218.224 94.6633 216.683 92.2378 215.491 91.7135C213.683 90.9191 211.298 91.5567 210.024 93.2257C209.555 93.8407 209.107 94.4881 208.762 95.1765C208.044 96.6085 206.937 97.4464 205.393 97.8776C199.962 99.3941 196.159 102.862 193.609 107.825C193.088 108.838 192.742 109.921 192.224 110.925C191.453 112.42 191.277 113.98 191.489 115.55ZM209.961 179.238C211.138 179.009 212.281 178.66 213.384 178.195C215.732 177.207 217.273 175.476 218.02 173.044C218.213 172.417 218.407 171.783 218.513 171.137C218.753 169.675 219.472 168.663 220.838 167.979C222.221 167.286 223.508 166.396 224.81 165.549C226.774 164.274 227.477 162.18 226.619 160.287C225.752 158.373 223.781 157.582 221.469 158.222C220.654 158.447 219.911 158.834 219.202 159.278C217.683 160.229 216.164 161.181 214.671 162.172C213.131 163.194 212.027 164.593 211.407 166.335C211.048 167.346 210.783 168.391 210.489 169.425C210.047 170.979 209.342 171.344 207.841 170.689C207.023 170.332 206.245 169.875 205.463 169.438C204.673 168.997 203.863 168.623 202.954 168.519C200.017 168.181 197.868 170.762 198.725 173.581C198.997 174.473 199.526 175.195 200.245 175.751C202.351 177.377 204.676 178.578 207.286 179.171C208.163 179.37 209.063 179.397 209.961 179.238ZM135.768 135.936C138.711 135.437 140.933 134.11 142.571 131.926C143.642 130.499 143.869 128.874 143.027 127.205C142.175 125.514 140.637 125.195 138.954 125.188C137.905 125.183 136.989 125.651 136.063 126.067C134.633 126.708 134.499 126.675 133.467 125.547C132.691 124.699 132.185 123.687 131.644 122.689C129.251 118.273 123.899 117.939 120.939 119.634C119.166 120.649 118.137 122.779 118.569 124.6C119.013 126.47 120.827 128.072 122.845 128.047C124.046 128.033 124.589 128.624 125.03 129.502C126 131.43 127.469 132.876 129.294 133.972C129.956 134.37 130.723 134.602 131.358 135.032C132.795 136.003 134.376 136.018 135.768 135.936ZM278.614 125.81C280.432 125.475 280.444 125.451 281.951 126.302C284.229 127.588 286.455 128.968 288.756 130.208C292.211 132.07 295.535 132.155 298.438 129.253C300.051 127.642 300.395 124.887 299.16 123.249C298.078 121.815 296.506 121.585 294.964 121.924C293.588 122.228 292.505 121.86 291.412 121.212C289.572 120.121 287.784 118.937 285.906 117.917C283.034 116.358 280.037 115.585 276.816 116.916C274.635 117.818 273.404 119.429 273.089 121.746C272.809 123.801 274.067 125.487 276.11 125.886C277.015 126.064 277.893 125.93 278.614 125.81ZM232.492 198.715C233.758 198.553 235.014 198.008 236.092 197.121C239.792 194.079 241.133 190.019 241.058 185.375C241.052 185.025 240.94 184.668 240.829 184.33C239.914 181.553 236.792 180.76 234.656 182.76C233.75 183.61 233.299 184.706 233.018 185.885C232.797 186.813 232.631 187.756 232.36 188.668C232.029 189.779 231.461 190.442 230.061 190.387C228.108 190.309 226.684 191.516 226.198 193.239C225.719 194.937 226.374 196.697 227.926 197.779C229.264 198.711 230.756 198.994 232.492 198.715ZM150.702 66.4735C152.171 66.2714 153.484 65.8892 154.622 65.0599C156.461 63.7198 157.162 61.3201 156.269 59.5132C155.405 57.7664 153.548 57.1558 151.149 57.8712C150.052 58.1982 148.966 58.404 147.804 58.314C143.856 58.009 140.896 59.7448 138.657 62.8825C137.982 63.8276 137.576 64.8848 137.573 66.0534C137.57 67.3427 138.104 68.3802 139.249 69.016C140.41 69.6597 141.554 69.5041 142.618 68.7544C142.957 68.5156 143.276 68.2338 143.554 67.9258C144.543 66.8294 145.713 66.3462 147.224 66.5078C148.401 66.6334 149.607 66.7198 150.702 66.4735Z" fill="white"/>
<path d="M270.3 164.174C273.325 164.188 275.892 162.373 278.645 161.129C282.619 159.333 285.783 156.396 288.891 153.428C289.56 152.788 290.159 152.549 290.94 152.943C295.35 155.168 299.74 151.759 303.653 149.391C305.789 148.099 310.459 145.454 312.842 144.558C315.136 143.693 319.582 143.381 321.956 143.914C324.471 144.48 329.391 149.535 325.411 151.31C315.257 155.841 304.741 160.558 294.465 165.199C284.486 169.705 274.333 175.766 263.551 178.047C263.005 178.163 262.34 178.229 261.986 177.799C261.773 177.541 261.749 177.179 261.751 176.845C261.768 173.406 263.516 170.094 264.714 166.956C265.223 165.623 266.251 164.852 267.644 164.591C268.466 164.436 269.297 164.33 270.3 164.174Z" fill="#CAB99A"/>
<path d="M114.01 248.393C113.745 248.129 113.922 247.842 113.987 247.569C114.824 244.072 116.247 240.781 117.701 237.52C118.901 234.828 121.309 234.697 123.108 237.081C124.114 238.415 125.043 239.8 125.757 241.32C126.004 241.845 126.164 242.299 125.444 242.626C121.59 244.376 117.947 246.54 114.168 248.439C114.133 248.455 114.067 248.41 114.01 248.393Z" fill="#CAB99A"/>
<path d="M37.4993 291.78C37.2862 287.072 37.5452 282.78 38.8443 278.496C38.9325 278.917 39.0324 279.337 39.1065 279.76C39.5695 282.398 39.8598 285.071 40.5746 287.659C40.89 288.802 40.6316 289.607 39.6063 290.225C38.957 290.617 38.3776 291.125 37.4993 291.78Z" fill="#CAB99A"/>
<path d="M166.611 79.3255C169.437 78.9519 172.281 78.7988 175.123 79.0027C177.529 79.1748 179.952 79.6152 182.112 80.6877C184.272 81.7607 186.158 83.5235 187.018 85.7762C188.409 89.4132 186.9 93.5879 184.5 96.654C181.412 100.599 176.977 103.285 172.372 105.258C164.557 108.607 155.876 110.126 147.451 108.981C144.975 108.645 142.493 108.069 140.308 106.858C138.123 105.647 136.246 103.738 135.471 101.362C133.644 95.7634 138.13 90.5867 142.331 87.5236C146.993 84.1237 152.641 82.3334 158.185 80.9761C160.961 80.2963 163.776 79.701 166.611 79.3255Z" fill="#CA4140"/>
<path d="M155.751 151.748C161.531 150.998 167.943 151.346 174.027 154.332C176.037 155.319 177.827 156.578 179.306 158.266C182.439 161.841 183.146 165.856 181.427 170.276C180.085 173.731 177.647 176.339 174.752 178.537C171.237 181.204 167.304 182.996 163.041 184.167C158.663 185.37 154.239 185.831 149.742 185.368C144.975 184.879 140.459 183.562 136.612 180.566C134.516 178.933 132.83 176.962 132.051 174.3C131.293 171.714 131.494 169.228 132.445 166.77C133.877 163.071 136.502 160.316 139.631 158.023C144.204 154.672 149.389 152.793 155.751 151.748Z" fill="#CA4140"/>
<path d="M237.466 140.328C233.536 141.079 229.495 141.199 225.537 140.595C222.893 140.192 220.267 139.464 217.95 138.129C215.633 136.794 213.631 134.816 212.573 132.359C209.32 124.804 216.076 118.523 221.807 114.773C228.244 110.559 235.973 108.294 243.674 108.518C247.121 108.619 250.618 109.213 253.66 110.835C256.703 112.456 259.253 115.208 260.084 118.554C260.894 121.819 259.997 125.352 258.182 128.185C256.367 131.018 253.706 133.219 250.862 135.018C246.783 137.598 242.205 139.422 237.466 140.328Z" fill="#CA4140"/>
<path d="M345.871 87.2152C333.594 88.9418 322.481 97.4052 317.556 108.782C301.345 97.377 280.522 94.2619 263.948 83.3933C260.179 80.9219 256.646 78.0592 252.627 76.0202C246.36 72.8414 239.26 71.832 232.455 70.0772C217.42 66.2002 203.645 58.6072 190.176 50.8844C185.065 47.953 179.912 44.9665 174.272 43.2558C168.633 41.5458 162.371 41.2064 156.959 43.5406C155.624 44.117 154.244 44.8673 152.805 44.6517C150.983 44.3779 149.709 42.5656 149.443 40.7422C148.743 35.9464 152.3 31.3926 154.884 27.7048C157.575 23.8627 160.754 20.2882 164.721 17.7268C174.015 11.7256 186.082 12.1531 196.869 14.6159C207.655 17.0788 218.073 21.3545 229.084 22.4239C233.616 22.8637 238.306 22.7755 242.537 24.4598C249.385 27.186 253.636 33.9234 259.25 38.6995C265.638 44.1348 273.768 46.9859 281.696 49.7243C295.815 54.6009 309.935 59.4782 324.054 64.3548C333.939 67.7688 344.255 71.459 351.324 79.1665C352.216 80.1392 353.091 81.2778 353.114 82.5977C353.169 85.7459 349.005 86.7761 345.871 87.2152Z" fill="#CAB99A"/>
<path d="M348.036 141.737C352.947 134.522 356.37 126.3 358.032 117.731C358.566 114.98 358.854 111.893 357.25 109.595C355.512 107.104 351.959 106.394 349.048 107.263C346.138 108.132 343.779 110.269 341.788 112.563C339.951 114.682 338.331 116.99 336.967 119.44C336.248 120.73 335.584 122.115 335.557 123.592C335.529 125.068 336.302 126.654 337.696 127.142C340.19 128.016 342.28 125.214 343.677 122.971C345.671 119.768 348.176 116.884 351.068 114.46C350.216 123.532 346.661 132.332 340.972 139.45C339.761 140.964 338.233 142.515 336.296 142.584C335.064 142.628 333.897 142.048 332.87 141.367C328.28 138.318 325.484 132.981 324.84 127.509C323.229 113.845 332.246 101.509 344.623 96.7066C350.564 94.4012 358.036 93.7434 362.667 98.122C367.024 102.243 367.112 109.201 365.572 114.997C364.023 120.825 361.182 126.233 357.978 131.343C355.398 135.456 352.389 139.57 348.036 141.737Z" fill="#CAB99A"/>
</svg>
