<svg width="382" height="352" viewBox="0 0 382 352" fill="none" xmlns="http://www.w3.org/2000/svg">
<path d="M381.713 53.8109C382.035 62.2946 379.493 72.4023 376.888 80.4492C370.334 100.696 357.927 119.926 341.139 133.006C348.23 142.667 344.946 155.252 336.315 163.564C327.683 171.876 312.806 172.587 303.42 165.138C257.988 205.65 212.557 246.162 167.125 286.673C173.197 297.9 170.131 313.257 160.212 321.29C150.293 329.324 134.634 329.132 124.915 320.86C110.596 334.226 93.4359 345.152 74.2782 349.235C55.1204 353.319 33.8256 349.867 18.7461 337.364C3.66604 324.862 -3.67091 302.697 3.68321 284.542C10.4864 267.748 26.8555 258.437 41.8626 249.962C57.9581 240.872 70.9073 229.73 85.521 218.928C107.609 202.602 127.757 182.403 148.369 164.246C169.275 145.831 190.03 127.244 210.479 108.322C220.294 99.24 230.04 90.0821 239.695 80.8314C254.449 66.6969 269.047 52.288 281.515 36.1017C290.122 24.9276 298.172 12.5048 310.646 5.92194C329.468 -4.00975 354.555 3.23762 367.86 19.8473C375.877 29.8557 381.223 40.947 381.713 53.8109Z" fill="#211F1C"/>
<path d="M292.46 164.253C288.806 167.448 286.486 169.505 282.866 172.734C279.469 175.763 276.095 178.818 272.695 181.846C269.183 184.975 265.653 188.078 262.136 191.198C258.614 194.321 255.092 197.444 251.575 200.572C247.604 204.103 243.636 207.637 239.672 211.176C235.825 214.609 231.995 218.059 228.143 221.486C222.8 226.243 217.434 230.973 212.093 235.733C203.682 243.23 195.293 250.751 186.882 258.247C178.625 265.611 171.435 273.253 163.17 280.611C163.162 280.617 159.29 283.295 159.284 283.301C158.052 284.41 149.056 277.204 148.239 276.263C147.251 275.122 149.113 268.388 149.314 266.806C149.551 264.943 149.749 263.077 149.962 261.214C150.082 260.155 149.814 259.181 149.157 258.362C146.026 254.458 138.193 244.965 135.685 244.716C131.118 244.264 128.52 245.673 124.524 245.493C121.209 245.344 122.216 244.523 121.746 241.381C121.359 238.794 120.55 236.251 119.461 233.877C117.404 229.39 113.872 224.375 109.378 222.155C109.364 221.504 109.699 221.285 110.142 220.881C122.042 210.049 133.945 199.221 145.845 188.391C155.079 179.987 164.261 171.524 173.555 163.186C180.421 157.027 187.436 151.03 194.382 144.957C197.999 141.792 201.598 138.607 205.224 135.451C208.765 132.373 212.341 129.333 215.88 126.249C219.377 123.205 222.835 120.112 226.33 117.062C229.87 113.969 233.437 110.905 236.981 107.821C239.291 105.811 241.68 103.854 243.911 101.758C245.39 100.369 247.006 97.4186 249.135 99.6587C250.84 101.453 252.498 103.29 254.191 105.095C256.37 107.416 258.56 109.729 260.753 112.034C261.631 112.956 262.833 113.451 264.029 113.817C264.502 113.961 265.412 114.004 265.801 114.295C266.286 114.657 265.958 114.903 265.602 115.313C262.879 118.453 260.136 121.576 257.429 124.729C255.379 127.12 255.371 128.707 257.295 131.236C260.181 135.026 263.031 138.848 265.952 142.612C267.924 145.153 269.804 149.018 272.734 150.517C274.882 151.616 277.488 151.237 279.784 150.496C283.841 149.186 287.897 147.999 291.985 146.773C295.377 145.755 295.141 151.646 295.238 152.937C295.424 155.424 295.815 158.295 297.036 159.615C297.375 159.981 293.336 163.487 292.46 164.253Z" fill="#CAB99A"/>
<path d="M376.497 52.8318C376.527 58.3035 375.691 63.7531 373.968 68.9463C366.196 92.372 356.027 106.348 339.147 124.396C338.501 125.087 337.246 126.678 336.313 126.835C333.855 127.249 334.731 125.187 331.993 123.364C326.148 119.469 325 120.541 321.908 120.632C320.126 120.684 318.25 121.606 316.694 120.737C315.932 120.31 315.385 119.592 314.86 118.894C309.735 112.072 304.609 105.249 299.483 98.4266C298.977 97.7529 298.459 97.0565 298.246 96.2411C297.986 95.2441 298.21 94.1943 298.35 93.1727C299.132 87.4801 297.206 81.6795 294.147 76.8152C292.346 73.953 290.164 71.3582 287.856 68.896C285.513 66.3976 282.18 64.8539 284.608 61.5437C288.39 56.3892 292.096 51.2476 295.597 45.8912C302.361 35.5404 309.127 24.8774 318.717 16.868C322.387 13.802 326.523 11.1306 331.168 9.99121C335.017 9.04695 339.268 9.27335 342.778 11.0263C344.012 11.6429 344.105 12.3166 343.554 13.5818C339.654 22.5434 334.36 28.1293 329.194 36.4872C328.69 37.3032 327.036 40.8201 327.275 41.8104C327.39 42.289 327.73 42.7117 328.201 42.859C328.928 43.086 329.466 42.6025 329.924 42.1417C337.469 34.5532 341.012 24.1921 348.345 16.568C348.837 16.0569 349.869 16.4587 349.548 17.2165C349.006 18.4933 348.776 19.5253 348.135 21.4096C347.861 22.2152 348.166 23.149 348.929 23.5263C350.03 24.07 351.002 23.0177 351.641 22.0967L354.347 18.1939C354.75 17.6116 355.55 17.4454 356.14 17.838C367.708 25.5357 375.52 35.4325 375.968 49.3057C375.972 49.4278 376.494 52.3139 376.497 52.8318Z" fill="#CAB99A"/>
<path d="M119.654 313.623C119.428 313.194 119.066 312.816 118.75 312.437C116.733 310.022 116.258 306.423 117.579 303.566C117.98 302.7 118.545 301.834 118.463 300.881C118.397 300.113 117.916 299.451 117.453 298.834C111.659 291.112 105.864 283.389 100.07 275.666C99.1711 274.468 98.2441 273.243 96.9807 272.439C95.4573 271.468 93.6068 271.207 91.8501 270.785C86.2207 269.429 81.0748 266.145 77.4751 261.609C75.8798 259.601 74.5146 257.115 72.4433 255.54C69.5215 253.319 68.6441 254.399 65.9168 256.272C60.8347 259.764 55.3931 262.651 49.8784 265.393C39.111 270.746 27.8412 275.638 18.7912 283.755C15.0435 287.117 11.6683 291.124 10.1676 295.929C8.53674 301.152 9.26933 306.846 10.8443 312.086C13.8379 322.043 19.8753 331.072 27.97 337.599C31.336 340.312 35.5861 342.701 39.789 341.691C42.0813 341.14 44.0121 339.644 45.8651 338.188L59.6671 327.339C60.5163 326.672 61.8048 326.789 62.3797 327.703C62.9877 328.668 62.1753 329.704 61.4317 330.446L50.1213 341.727C48.8998 342.946 49.8532 344.993 51.5761 344.895C55.4458 344.675 59.3732 342.243 62.6981 339.892C71.745 333.493 80.792 327.096 89.8389 320.696C90.234 320.417 90.6752 320.196 91.1513 320.109C93.0319 319.764 93.5755 321.593 93.0564 322.819C92.6791 323.709 91.8992 324.353 91.1476 324.961L71.745 340.639C70.9554 341.277 71.5695 342.555 72.558 342.324C89.9328 338.265 106.129 329.232 118.677 316.543C119.298 315.915 119.955 315.155 119.862 314.277C119.837 314.044 119.761 313.828 119.654 313.623ZM71.7634 321.417C71.5622 322.33 71.0621 323.126 70.3246 323.682C68.7104 324.903 67.0452 326.054 65.3971 327.23C65.1431 327.411 64.8443 327.465 64.5369 327.481C63.4086 327.522 62.657 326.582 62.9282 325.461C63.0926 324.791 63.5092 324.274 64.0369 323.872C65.6904 322.618 67.3581 321.385 69.0374 320.168C69.3166 319.967 69.6601 319.821 69.9951 319.735C71.1965 319.431 72.0316 320.216 71.7634 321.417Z" fill="#CAB99A"/>
<path d="M141.101 289.027C140.909 290.469 140.403 291.776 139.624 292.983C138.758 294.321 137.57 295.212 135.992 295.55C134.799 295.804 133.598 295.98 132.378 296.017C129.626 296.042 127.316 295.123 125.567 292.928C124.394 291.458 123.073 290.131 121.648 288.897C120.964 288.305 120.397 287.567 119.832 286.852C118.232 284.824 116.545 282.861 114.88 280.888C112.427 277.983 110.265 274.835 107.592 272.12C106.497 271.007 106.455 269.703 106.645 268.307C106.714 267.804 107.167 267.714 107.5 267.53C109.134 266.617 110.684 265.599 112.156 264.423C114.075 262.895 115.693 261.112 117.215 259.219C117.405 258.985 117.558 258.719 117.746 258.483C118.025 258.119 118.338 258.144 118.648 258.44C118.869 258.65 119.1 258.854 119.285 259.091C121.612 262.077 124.028 264.999 126.377 267.966C128.377 270.494 130.397 273.011 132.411 275.528C133.576 276.989 134.696 278.483 135.906 279.913C137.205 281.452 138.389 283.081 139.817 284.52C141.048 285.759 141.33 287.321 141.101 289.027Z" fill="#F2F2F0"/>
<path d="M244.12 90.8313C244.039 91.5958 243.382 92.3603 242.764 92.9242C197.013 134.781 150.701 176.024 103.844 216.641C102.116 218.138 99.2155 219.544 97.8816 217.687C136.59 183.829 175.077 149.774 213.272 115.337L239.356 91.8198C240.651 90.6522 242.361 89.3999 243.976 90.0564C244.108 90.3098 244.148 90.57 244.12 90.8313Z" fill="#CAB99A"/>
<path d="M312.861 131.967C312.646 134.844 311.176 136.735 308.937 138.621C307.12 140.151 304.535 142.149 302.685 140.881C300.71 139.525 296.808 132.483 295.269 130.427C293.241 127.721 291.252 124.986 289.224 122.282C286.984 119.299 284.712 116.335 282.459 113.36C282.277 113.123 282.123 112.863 281.883 112.502C283.679 111.519 285.417 110.698 286.97 109.575C288.98 108.117 290.869 106.513 292.448 104.578C292.573 104.421 292.66 104.234 292.789 104.083C293.526 103.223 293.66 103.201 294.364 104.139C296.244 106.642 298.074 109.179 299.95 111.684C301.953 114.355 303.984 117.003 306.004 119.662C308.02 122.316 309.99 125 311.827 127.782C312.685 129.081 312.974 130.438 312.861 131.967Z" fill="#F2F2F0"/>
<path d="M105.7 232.86C105.66 231.01 105.083 229.176 103.875 227.792C102.207 225.883 99.5557 225.056 97.0211 225.091C90.3781 225.18 83.8142 229.302 80.0727 234.652C77.6798 238.073 76.4466 242.446 77.3872 246.514C77.6915 247.831 78.2369 249.131 79.1947 250.083C81.3551 252.233 84.8965 252.048 87.8318 251.226C93.5496 249.623 98.7194 246.127 102.336 241.417C103.846 239.45 105.111 237.227 105.548 234.786C105.662 234.155 105.713 233.506 105.7 232.86ZM95.6921 241.409C93.879 243.259 91.6586 244.334 88.9798 243.915C85.9433 243.44 84.1805 240.44 84.9849 237.208C85.8285 233.82 89.5129 231.219 92.3316 231.4C94.3987 231.241 96.5634 232.596 97.2953 235.185C98.0218 237.756 97.3763 239.688 95.6921 241.409Z" fill="#CA4140"/>
<path d="M281.863 75.1548C281.447 73.0055 280.316 71.0145 278.496 69.8303C276.044 68.2351 272.84 68.3326 270.011 69.0738C262.549 71.0274 251.102 81.0566 254.648 89.8581C255.738 92.5615 258.351 94.5899 261.24 94.9758C263.474 95.274 265.733 94.6519 267.809 93.7782C271.614 92.1786 275.05 89.7066 277.776 86.6075C279.878 84.2183 281.598 81.3561 281.975 78.1956C282.095 77.1918 282.057 76.1561 281.863 75.1548ZM266.947 87.7524C263.458 88.0402 260.776 84.5091 262.039 80.8695C263.07 77.8944 266.431 75.0204 269.44 75.4113C270.195 75.5088 271.348 75.7119 271.968 76.1482C273.389 77.1489 273.992 78.1066 274.179 79.7633C274.659 84.0011 271.254 87.761 266.947 87.7524Z" fill="#CA4140"/>
<path d="M160.301 310.914C157.611 314.749 154.01 317.428 149.532 318.923C146.348 319.984 143.133 320.387 139.811 319.783C138.632 319.567 135.82 316.897 135.266 316.308C135.068 316.095 134.811 315.863 134.948 315.521C135.059 315.235 135.35 315.233 135.596 315.227C139.83 315.121 143.613 313.493 147.172 311.456C150.284 309.677 153.071 307.426 155.507 304.702C157.568 302.394 159.147 299.856 160.446 297.09C160.467 297.046 160.486 297 160.505 296.954C160.756 296.36 161.56 296.212 161.965 296.714C162.748 297.682 163.154 298.846 163.262 300.131C163.591 304.078 162.552 307.702 160.301 310.914Z" fill="#CA4140"/>
<path d="M109.363 256.829C107.131 259.245 104.402 261.024 101.343 262.159C97.8264 263.46 94.1782 263.913 90.449 263.008C89.5243 262.784 88.7647 262.374 88.1555 261.634C87.5806 260.93 87.0609 260.181 86.3989 259.542C85.9068 259.067 86.0356 258.685 86.675 258.67C87.5996 258.653 88.4739 258.405 89.3709 258.265C91.9405 257.857 94.3205 256.927 96.614 255.706C97.8626 255.039 99.1339 254.415 100.29 253.597C102.394 252.111 104.371 250.505 106.168 248.619C108.687 245.974 110.565 242.968 112.059 239.675C112.098 239.591 112.182 239.524 112.358 239.314C113.654 240.586 114.313 241.961 114.467 243.658C114.936 248.904 112.784 253.119 109.363 256.829Z" fill="#CA4140"/>
<path d="M290.788 91.158C289.95 96.2082 287.129 100.038 283.07 103.069C280.204 105.208 277.014 106.55 273.531 107.091C271.123 107.466 268.673 107.338 266.301 106.625C266.014 106.539 265.67 106.458 265.483 106.253C264.66 105.358 263.603 104.067 262.673 102.97C262.447 102.705 262.645 102.301 262.993 102.308C264.046 102.325 264.932 102.237 265.726 102.1C268.662 101.588 271.324 100.457 273.944 99.0999C276.944 97.5463 279.584 95.5437 281.959 93.1723C284.634 90.5014 286.876 87.5238 288.243 83.9566C288.361 83.6492 288.392 83.1743 288.849 83.1939C289.238 83.2081 289.369 83.6241 289.59 83.8953C291.36 86.0906 291.204 88.6608 290.788 91.158Z" fill="#CA4140"/>
<path d="M337.15 145.878C337.15 145.981 337.147 146.082 337.145 146.185C337.128 146.612 337.088 147.035 337.03 147.448C336.016 154.515 330.359 160.216 323.674 162.882C323.661 162.89 323.646 162.895 323.63 162.898C322.823 163.22 322.001 163.493 321.171 163.722C318.867 164.357 316.415 164.686 314.096 164.113C313.663 164.007 313.177 163.839 312.68 163.619C312.247 163.426 311.807 163.191 311.391 162.923C311.38 162.918 311.372 162.909 311.361 162.904C310.296 162.211 309.377 161.286 309.109 160.214C309.065 160.032 309.037 159.847 309.031 159.658V159.635C314.503 157.834 319.442 156.817 324.233 153.258C327.311 150.971 330.012 148.163 332.146 144.975C332.157 144.959 332.171 144.939 332.182 144.92C333.057 143.607 333.835 142.23 334.504 140.8C334.616 140.568 334.719 140.336 334.823 140.101C334.828 140.104 334.831 140.11 334.835 140.112C335.886 140.914 336.528 142.068 336.861 143.35C336.87 143.381 336.877 143.408 336.884 143.437C336.928 143.61 336.965 143.783 336.996 143.959C337.009 144.037 337.023 144.113 337.034 144.191C337.071 144.42 337.099 144.649 337.115 144.883C337.122 144.97 337.13 145.059 337.133 145.146C337.135 145.207 337.138 145.269 337.141 145.333C337.144 145.414 337.147 145.495 337.147 145.574C337.15 145.674 337.15 145.777 337.15 145.878Z" fill="#CA4140"/>
<path d="M312.727 10.2644C304.208 23.3148 295.683 36.3744 286.392 48.8874C283.064 53.37 279.452 57.9349 274.422 60.3628C269.932 62.528 276.934 54.1468 277.65 53.2651C280.432 49.8396 283.154 46.365 285.813 42.8432C290.983 35.994 295.917 28.9669 300.601 21.7772C303.717 16.9945 307.218 11.7615 312.727 10.2644Z" fill="#CAB99A"/>
<path d="M67.2217 244.42C67.0106 245.188 66.5683 245.754 66.024 246.34C51.5023 261.978 28.446 266.383 11.6516 279.55C13.1616 274.163 18.4572 270.886 23.327 268.132C30.8088 263.9 38.2899 259.668 45.7717 255.436C49.626 253.256 53.4798 251.076 57.3342 248.896C59.4663 247.69 64.9969 243.188 67.2217 244.42Z" fill="#CAB99A"/>
<path d="M328.139 134.561C328.105 136.877 327.206 138.922 325.96 140.788C323.08 145.101 319.225 148.344 314.463 150.358C311.82 151.475 309.035 152.358 306.049 151.677C305.082 151.456 304.244 151.076 303.532 150.372C302.979 149.827 302.803 149.182 302.76 148.456C302.727 147.9 302.906 147.548 303.526 147.629C304.595 147.768 305.635 147.534 306.691 147.431C309.362 147.171 311.582 145.998 313.674 144.394C317.186 141.707 318.873 138.02 319.725 133.844C319.884 133.056 319.872 132.229 319.89 131.422C319.906 130.729 320.228 130.399 320.906 130.377C322.27 130.327 323.632 130.204 324.987 130.564C327.164 131.142 328.141 132.352 328.139 134.561Z" fill="#CA4140"/>
<path d="M153.596 293.897C152.677 296.11 151.425 298.115 149.752 299.866C147.638 302.084 145.274 303.975 142.576 305.398C140.333 306.579 137.979 307.445 135.389 307.679C133.889 307.814 132.467 307.856 131.084 307.241C129.671 306.611 128.621 304.604 128.869 303.088C128.972 302.448 129.148 302.087 129.961 302.33C132.252 303.018 134.579 302.892 136.889 302.406C139.109 301.936 141.107 300.928 142.825 299.479C146.197 296.637 148.149 293.034 148.325 288.38C148.289 288.101 148.224 287.651 148.169 287.201C148.062 286.349 148.261 286.053 149.115 286.087C150.28 286.137 151.454 286.302 152.509 286.822C153.819 287.468 154.331 288.643 154.392 290.054C154.451 291.402 154.102 292.679 153.596 293.897Z" fill="#CA4140"/>
<path d="M136.459 253.881C131.808 255.023 130.777 256.146 130.137 260.906C127.956 258.11 125.542 255.722 123.221 252.973C126.495 252.177 129.445 251.484 132.377 250.73C133.414 250.465 134.196 250.538 134.772 251.59C135.219 252.409 136.023 253.001 136.459 253.881Z" fill="#F2F2F0"/>
<path d="M142.911 263.116C142.509 266.385 142.227 269.667 141.9 272.944C141.881 273.145 141.9 273.355 141.853 273.547C141.694 274.193 141.233 274.327 140.774 273.851C140.459 273.525 140.179 273.164 139.892 272.813C138.099 270.62 135.755 268.943 134.093 266.625C133.677 266.05 133.263 265.48 132.83 264.664C134.757 265.488 136.559 265.729 138.378 264.885C140.185 264.047 141.21 262.558 141.794 260.647C142.786 261.281 143.048 262.024 142.911 263.116Z" fill="#F2F2F0"/>
<path d="M139.074 259.907C139.09 261.377 137.976 262.552 136.54 262.58C134.767 262.614 133.141 261.172 133.16 259.577C133.177 258.063 134.459 256.794 135.993 256.775C137.622 256.756 139.052 258.211 139.074 259.907Z" fill="#F2F2F0"/>
<path d="M276.313 136.274C274.489 136.171 273.24 135.006 273.333 133.489C273.431 131.919 275.199 130.305 276.738 130.383C278.308 130.464 279.512 131.835 279.451 133.472C279.389 135.154 278.028 136.372 276.313 136.274Z" fill="#211F1C"/>
<path d="M279.45 133.472C279.388 135.154 278.028 136.372 276.313 136.273C274.489 136.17 273.24 135.005 273.332 133.488C273.43 131.919 275.199 130.304 276.738 130.383C278.308 130.464 279.511 131.835 279.45 133.472Z" fill="#F2F2F0"/>
<path d="M288.745 139.955L273.027 118.267C272.603 117.683 271.779 117.552 271.192 117.973L264.016 127.306C263.684 127.736 263.678 128.332 263.996 128.77C266.48 132.158 276.539 145.805 277.061 145.425L288.455 141.79C289.039 141.365 289.17 140.541 288.745 139.955ZM277.315 139.125C274.687 139.48 272.044 137.997 270.893 135.625C269.884 133.552 269.703 131.424 271.01 129.393C272.253 127.466 274.817 126.287 277.069 126.935C278.005 127.209 278.893 127.773 279.644 128.505C280.829 129.664 281.678 131.242 281.857 132.748C282.218 135.781 280.43 138.706 277.315 139.125Z" fill="#F2F2F0"/>
</svg>
