<svg width="30" height="30" viewBox="0 0 30 30" fill="none" xmlns="http://www.w3.org/2000/svg">
<path d="M26.4248 18.9943L27.8513 14.1309C28.384 12.3162 27.024 10.5 25.1328 10.5H11.1913C9.94042 10.5 8.83683 11.3203 8.477 12.5202L5.18042 23.5093C4.975 24.1963 4.34175 24.6667 3.62492 24.6667V24.6667C2.72675 24.6667 2 23.9399 2 23.0418V4.83333C2 3.26792 3.26792 2 4.83333 2H11.1588C11.6319 2 12.0739 2.23658 12.3374 2.63183L14.3293 5.61958C14.5913 6.01342 15.0348 6.25 15.5079 6.25H21.8333C23.3988 6.25 24.6667 7.51792 24.6667 9.08333V10.5" stroke="#222222" stroke-width="2.125" stroke-linecap="round" stroke-linejoin="round"/>
<path d="M21.125 28.9166C17.6046 28.9166 14.75 26.062 14.75 22.5416C14.75 19.0212 17.6046 16.1666 21.125 16.1666C24.6468 16.1666 27.5 19.0212 27.5 22.5416C27.5 26.062 24.6468 28.9166 21.125 28.9166" stroke="#222222" stroke-width="2.125" stroke-linecap="round" stroke-linejoin="round"/>
<path d="M15.1182 24.6667H3.62903" stroke="#222222" stroke-width="2.125" stroke-linecap="round" stroke-linejoin="round"/>
<path d="M19.1702 22.3715H23.4202" stroke="#222222" stroke-width="2.125" stroke-linecap="round" stroke-linejoin="round"/>
<path d="M21.2951 24.4965V20.2465" stroke="#222222" stroke-width="2.125" stroke-linecap="round" stroke-linejoin="round"/>
</svg>
