<svg width="403" height="53" viewBox="0 0 403 53" fill="none" xmlns="http://www.w3.org/2000/svg">
<path id="W E N O X O" d="M14.8842 52L0.317472 1.09091H12.0753L20.5021 36.4638H20.9247L30.2216 1.09091H40.2891L49.5611 36.5384H50.0085L58.4354 1.09091H70.1932L55.6264 52H45.1364L35.4418 18.7152H35.044L25.3743 52H14.8842ZM92.1552 52V1.09091H126.459V9.9652H102.919V22.0959H124.694V30.9702H102.919V43.1257H126.559V52H92.1552ZM193.799 1.09091V52H184.502L162.354 19.9581H161.981V52H151.218V1.09091H160.664L182.638 33.108H183.086V1.09091H193.799ZM265.676 26.5455C265.676 32.0971 264.624 36.8201 262.519 40.7145C260.431 44.6089 257.581 47.5836 253.968 49.6385C250.372 51.6768 246.328 52.696 241.837 52.696C237.313 52.696 233.253 51.6686 229.657 49.6136C226.061 47.5587 223.219 44.584 221.131 40.6896C219.043 36.7952 217.999 32.0805 217.999 26.5455C217.999 20.9938 219.043 16.2708 221.131 12.3764C223.219 8.48201 226.061 5.51562 229.657 3.47727C233.253 1.42235 237.313 0.394884 241.837 0.394884C246.328 0.394884 250.372 1.42235 253.968 3.47727C257.581 5.51562 260.431 8.48201 262.519 12.3764C264.624 16.2708 265.676 20.9938 265.676 26.5455ZM254.763 26.5455C254.763 22.9493 254.225 19.9167 253.148 17.4474C252.087 14.9782 250.587 13.1056 248.648 11.8295C246.71 10.5535 244.439 9.91548 241.837 9.91548C239.236 9.91548 236.965 10.5535 235.026 11.8295C233.087 13.1056 231.579 14.9782 230.502 17.4474C229.442 19.9167 228.911 22.9493 228.911 26.5455C228.911 30.1416 229.442 33.1742 230.502 35.6435C231.579 38.1127 233.087 39.9853 235.026 41.2614C236.965 42.5374 239.236 43.1754 241.837 43.1754C244.439 43.1754 246.71 42.5374 248.648 41.2614C250.587 39.9853 252.087 38.1127 253.148 35.6435C254.225 33.1742 254.763 30.1416 254.763 26.5455ZM299.943 1.09091L310.209 18.4418H310.607L320.923 1.09091H333.078L317.542 26.5455L333.426 52H321.047L310.607 34.6243H310.209L299.769 52H287.439L303.373 26.5455L287.738 1.09091H299.943ZM402.873 26.5455C402.873 32.0971 401.821 36.8201 399.716 40.7145C397.628 44.6089 394.778 47.5836 391.165 49.6385C387.569 51.6768 383.526 52.696 379.035 52.696C374.51 52.696 370.45 51.6686 366.854 49.6136C363.258 47.5587 360.416 44.584 358.328 40.6896C356.24 36.7952 355.196 32.0805 355.196 26.5455C355.196 20.9938 356.24 16.2708 358.328 12.3764C360.416 8.48201 363.258 5.51562 366.854 3.47727C370.45 1.42235 374.51 0.394884 379.035 0.394884C383.526 0.394884 387.569 1.42235 391.165 3.47727C394.778 5.51562 397.628 8.48201 399.716 12.3764C401.821 16.2708 402.873 20.9938 402.873 26.5455ZM391.961 26.5455C391.961 22.9493 391.422 19.9167 390.345 17.4474C389.284 14.9782 387.785 13.1056 385.846 11.8295C383.907 10.5535 381.636 9.91548 379.035 9.91548C376.433 9.91548 374.162 10.5535 372.224 11.8295C370.285 13.1056 368.777 14.9782 367.699 17.4474C366.639 19.9167 366.108 22.9493 366.108 26.5455C366.108 30.1416 366.639 33.1742 367.699 35.6435C368.777 38.1127 370.285 39.9853 372.224 41.2614C374.162 42.5374 376.433 43.1754 379.035 43.1754C381.636 43.1754 383.907 42.5374 385.846 41.2614C387.785 39.9853 389.284 38.1127 390.345 35.6435C391.422 33.1742 391.961 30.1416 391.961 26.5455Z" fill="black"/>
</svg>
