<svg width="328" height="116" viewBox="0 0 217 43" fill="none" xmlns="http://www.w3.org/2000/svg">
<g filter="url(#filter0_d_1_7)">
<path d="M14.5284 34L4.72727 1.27273H7.45455L15.892 30.1861H16.1264L24.5852 1.27273H27.2912L35.7287 30.1648H35.9418L44.3793 1.27273H47.1065L37.3054 34H34.4077L26.0554 5.51278H25.7784L17.4261 34H14.5284ZM66.8526 34.6818C63.8981 34.6818 61.3271 33.9503 59.1396 32.4872C56.9521 31.0241 55.2617 29.0213 54.0685 26.4787C52.8754 23.9361 52.2788 21.0384 52.2788 17.7855C52.2788 14.5185 52.8754 11.6065 54.0685 9.04971C55.2759 6.4929 56.9308 4.47585 59.033 2.99858C61.1353 1.52131 63.5359 0.782669 66.2347 0.782669C68.0671 0.782669 69.8001 1.15199 71.4336 1.89062C73.0813 2.61506 74.5302 3.66619 75.7802 5.04403C77.0444 6.42187 78.0316 8.08381 78.7418 10.0298C79.4663 11.9759 79.8285 14.1634 79.8285 16.5923V18.2116H53.9194V15.8466H77.229C77.229 13.4744 76.7461 11.3366 75.7802 9.43324C74.8143 7.52983 73.5004 6.01705 71.8384 4.89489C70.1765 3.77273 68.3086 3.21165 66.2347 3.21165C64.0614 3.21165 62.1225 3.82244 60.418 5.04403C58.7276 6.25142 57.3853 7.88494 56.391 9.9446C55.4109 12.0043 54.8995 14.3054 54.8569 16.848V17.9134C54.8569 20.6406 55.3327 23.0909 56.2844 25.2642C57.2504 27.4233 58.6282 29.1349 60.418 30.3991C62.2077 31.6491 64.3526 32.2741 66.8526 32.2741C68.6424 32.2741 70.1694 31.9759 71.4336 31.3793C72.712 30.7685 73.756 30.0298 74.5657 29.1634C75.3754 28.2969 75.9862 27.4588 76.3981 26.6491L78.7631 27.608C78.266 28.7017 77.4918 29.7955 76.4407 30.8892C75.4038 31.9687 74.0827 32.8707 72.4776 33.5952C70.8867 34.3196 69.0117 34.6818 66.8526 34.6818ZM91.3768 12.7784V34H88.7773V1.27273H91.3129V6.45028H91.5685C92.3356 4.75994 93.5643 3.40341 95.2546 2.38068C96.945 1.35795 98.9549 0.846591 101.284 0.846591C103.486 0.846591 105.418 1.31534 107.08 2.25284C108.756 3.19034 110.063 4.52557 111 6.25852C111.952 7.97727 112.428 10.0298 112.428 12.4162V34H109.828V12.5227C109.828 9.73864 108.998 7.50142 107.336 5.81108C105.688 4.10653 103.507 3.25426 100.794 3.25426C98.9762 3.25426 97.3569 3.65199 95.9364 4.44744C94.516 5.2429 93.4009 6.35795 92.5913 7.79261C91.7816 9.21307 91.3768 10.875 91.3768 12.7784ZM135.397 34.6818C132.698 34.6818 130.297 33.9574 128.195 32.5085C126.093 31.0455 124.438 29.0355 123.23 26.4787C122.023 23.9219 121.419 21.0099 121.419 17.7429C121.419 14.4616 122.023 11.5497 123.23 9.0071C124.438 6.45028 126.093 4.44034 128.195 2.97727C130.297 1.5142 132.698 0.782669 135.397 0.782669C138.096 0.782669 140.496 1.5142 142.598 2.97727C144.701 4.44034 146.355 6.45028 147.563 9.0071C148.77 11.5639 149.374 14.4759 149.374 17.7429C149.374 21.0099 148.77 23.9219 147.563 26.4787C146.355 29.0355 144.701 31.0455 142.598 32.5085C140.496 33.9574 138.096 34.6818 135.397 34.6818ZM135.397 32.2741C137.684 32.2741 139.679 31.6278 141.384 30.3352C143.103 29.0426 144.431 27.2955 145.368 25.0938C146.32 22.892 146.796 20.4418 146.796 17.7429C146.796 15.044 146.32 12.6009 145.368 10.4134C144.417 8.21165 143.088 6.46449 141.384 5.17188C139.679 3.86506 137.684 3.21165 135.397 3.21165C133.11 3.21165 131.114 3.86506 129.409 5.17188C127.705 6.46449 126.377 8.21165 125.425 10.4134C124.473 12.6009 123.998 15.044 123.998 17.7429C123.998 20.4418 124.466 22.892 125.404 25.0938C126.355 27.2955 127.684 29.0426 129.388 30.3352C131.107 31.6278 133.11 32.2741 135.397 32.2741ZM157.961 1.27273L166.995 15.8253L176.029 1.27273H179.033L168.55 17.6364L179.033 34H176.029L166.995 19.6818L157.961 34H154.935L165.375 17.6364L154.935 1.27273H157.961ZM198.561 34.6818C195.862 34.6818 193.461 33.9574 191.359 32.5085C189.257 31.0455 187.602 29.0355 186.395 26.4787C185.187 23.9219 184.583 21.0099 184.583 17.7429C184.583 14.4616 185.187 11.5497 186.395 9.0071C187.602 6.45028 189.257 4.44034 191.359 2.97727C193.461 1.5142 195.862 0.782669 198.561 0.782669C201.26 0.782669 203.66 1.5142 205.762 2.97727C207.865 4.44034 209.52 6.45028 210.727 9.0071C211.934 11.5639 212.538 14.4759 212.538 17.7429C212.538 21.0099 211.934 23.9219 210.727 26.4787C209.52 29.0355 207.865 31.0455 205.762 32.5085C203.66 33.9574 201.26 34.6818 198.561 34.6818ZM198.561 32.2741C200.848 32.2741 202.843 31.6278 204.548 30.3352C206.267 29.0426 207.595 27.2955 208.532 25.0938C209.484 22.892 209.96 20.4418 209.96 17.7429C209.96 15.044 209.484 12.6009 208.532 10.4134C207.581 8.21165 206.252 6.46449 204.548 5.17188C202.843 3.86506 200.848 3.21165 198.561 3.21165C196.274 3.21165 194.278 3.86506 192.574 5.17188C190.869 6.46449 189.541 8.21165 188.589 10.4134C187.637 12.6009 187.162 15.044 187.162 17.7429C187.162 20.4418 187.63 22.892 188.568 25.0938C189.52 27.2955 190.848 29.0426 192.552 30.3352C194.271 31.6278 196.274 32.2741 198.561 32.2741Z" fill="black"/>
</g>
<defs>
<filter id="filter0_d_1_7" x="0.727264" y="0.782669" width="215.811" height="41.8992" filterUnits="userSpaceOnUse" color-interpolation-filters="sRGB">
<feFlood flood-opacity="0" result="BackgroundImageFix"/>
<feColorMatrix in="SourceAlpha" type="matrix" values="0 0 0 0 0 0 0 0 0 0 0 0 0 0 0 0 0 0 127 0" result="hardAlpha"/>
<feOffset dy="4"/>
<feGaussianBlur stdDeviation="2"/>
<feComposite in2="hardAlpha" operator="out"/>
<feColorMatrix type="matrix" values="0 0 0 0 0 0 0 0 0 0 0 0 0 0 0 0 0 0 0.25 0"/>
<feBlend mode="normal" in2="BackgroundImageFix" result="effect1_dropShadow_1_7"/>
<feBlend mode="normal" in="SourceGraphic" in2="effect1_dropShadow_1_7" result="shape"/>
</filter>
</defs>
</svg>
