<svg xmlns="http://www.w3.org/2000/svg" shape-rendering="geometricPrecision" text-rendering="geometricPrecision" image-rendering="optimizeQuality" fill-rule="evenodd" clip-rule="evenodd" viewBox="0 0 512 492.94"><path d="M31.31 0h449.38C497.85 0 512 14.15 512 31.31v430.32c0 17.23-14.08 31.31-31.31 31.31H31.31C14.14 492.94 0 478.79 0 461.63V31.31C0 14.08 14.1 0 31.31 0zm404.72 150.83-166.38 70.36 166.38 70.33V150.83zM257.1 226.5l-169 71.46h338.05L257.1 226.5zM75.97 292.48l168.58-71.29-168.58-71.26v142.55zm181.13-76.6 160.64-67.93H96.4l160.7 67.93zm21.99 123.84h155.79c8.17 0 14.89 6.72 14.89 14.9v69.19c0 8.11-6.78 14.89-14.89 14.89H279.09c-8.17 0-14.89-6.71-14.89-14.89v-69.19c0-8.17 6.72-14.9 14.89-14.9zm155.79 13.75H279.09c-.65 0-1.15.49-1.15 1.15v69.19c0 .6.56 1.15 1.15 1.15h155.79c.6 0 1.15-.54 1.15-1.15v-69.19c0-.6-.55-1.15-1.15-1.15zM77.12 339.72h147.93c8.14 0 14.9 6.76 14.9 14.9v69.19c0 8.15-6.75 14.89-14.9 14.89H77.12c-8.14 0-14.89-6.75-14.89-14.89v-69.19c0-8.17 6.73-14.9 14.89-14.9zm147.93 13.75H77.12c-.65 0-1.15.49-1.15 1.15v69.19c0 .63.53 1.15 1.15 1.15h147.93c.58 0 1.15-.58 1.15-1.15v-69.19c0-.64-.51-1.15-1.15-1.15zM77.12 134.21h357.76c8.14 0 14.89 6.75 14.89 14.89v147.71c0 8.14-6.75 14.89-14.89 14.89H77.12c-8.14 0-14.89-6.75-14.89-14.89V149.1c0-8.19 6.72-14.89 14.89-14.89zm410.51-29.36-463.26-.51v361.21c0 1.7 1.32 3.02 3.01 3.02h457.24c1.61 0 3.01-1.4 3.01-3.02v-360.7zm-32.82-68.34c9.34 0 16.9 7.57 16.9 16.9 0 9.34-7.56 16.91-16.9 16.91s-16.91-7.57-16.91-16.91c0-9.33 7.57-16.9 16.91-16.9zm-59.11 0c9.34 0 16.91 7.57 16.91 16.9 0 9.34-7.57 16.91-16.91 16.91s-16.9-7.57-16.9-16.91c0-9.33 7.56-16.9 16.9-16.9zm-59.1 0c9.33 0 16.9 7.57 16.9 16.9 0 9.34-7.57 16.91-16.9 16.91-9.34 0-16.91-7.57-16.91-16.91 0-9.33 7.57-16.9 16.91-16.9z"/></svg>